<?xml version="1.0" encoding="utf-8"?>
<!-- Generator: Adobe Illustrator 17.0.0, SVG Export Plug-In . SVG Version: 6.00 Build 0)  -->
<!DOCTYPE svg PUBLIC "-//W3C//DTD SVG 1.1//EN" "http://www.w3.org/Graphics/SVG/1.1/DTD/svg11.dtd">
<svg version="1.1" id="Layer_1" xmlns="http://www.w3.org/2000/svg" xmlns:xlink="http://www.w3.org/1999/xlink" x="0px" y="0px"
	 width="200px" height="200px" viewBox="0 0 200 200" enable-background="new 0 0 200 200" xml:space="preserve">
<path fill="none" stroke="#FFFFFF" stroke-width="16" stroke-miterlimit="10" d="M184,175.927c0,5.563-4.51,10.073-10.073,10.073
	H26.073C20.51,186,16,181.49,16,175.927V28.073C16,22.51,20.51,18,26.073,18h147.853C179.49,18,184,22.51,184,28.073V175.927z"/>
<g enable-background="new    ">
	<path fill="#FFFFFF" d="M56.291,119.842l-9.38,28.408H34.85l30.687-90.317h14.07l30.821,90.317H97.965l-9.648-28.408H56.291z
		 M85.905,110.729l-8.844-25.997c-2.01-5.896-3.35-11.256-4.69-16.482h-0.268c-1.34,5.36-2.814,10.854-4.556,16.349l-8.844,26.131
		H85.905z"/>
	<path fill="#FFFFFF" d="M119.249,117.966c0.269,15.946,10.452,22.512,22.245,22.512c8.441,0,13.534-1.474,17.956-3.35l2.01,8.442
		c-4.154,1.876-11.256,4.02-21.574,4.02c-19.966,0-31.893-13.132-31.893-32.696s11.524-34.975,30.418-34.975
		c21.173,0,26.801,18.626,26.801,30.553c0,2.412-0.268,4.288-0.401,5.494H119.249z M153.822,109.523
		c0.134-7.504-3.082-19.162-16.349-19.162c-11.927,0-17.152,10.987-18.091,19.162H153.822z"/>
</g>
</svg>
