<?xml version="1.0" encoding="utf-8"?>
<!-- Generator: Adobe Illustrator 17.0.0, SVG Export Plug-In . SVG Version: 6.00 Build 0)  -->
<!DOCTYPE svg PUBLIC "-//W3C//DTD SVG 1.1//EN" "http://www.w3.org/Graphics/SVG/1.1/DTD/svg11.dtd">
<svg version="1.1" id="Layer_1" xmlns="http://www.w3.org/2000/svg" xmlns:xlink="http://www.w3.org/1999/xlink" x="0px" y="0px"
	 width="200px" height="200px" viewBox="0 0 200 200" enable-background="new 0 0 200 200" xml:space="preserve">
<path fill="none" stroke="#FFFFFF" stroke-width="16" stroke-miterlimit="10" d="M184,175.927c0,5.563-4.51,10.073-10.073,10.073
	H26.073C20.51,186,16,181.49,16,175.927V28.073C16,22.51,20.51,18,26.073,18h147.853C179.49,18,184,22.51,184,28.073V175.927z"/>
<g enable-background="new    ">
	<path fill="#FFFFFF" d="M61.879,123.875L51.52,155.25H38.2l33.891-99.749h15.54l34.039,99.749h-13.764L97.25,123.875H61.879z
		 M94.586,113.812l-9.768-28.711c-2.22-6.512-3.7-12.432-5.18-18.203h-0.296c-1.48,5.919-3.108,11.987-5.032,18.055l-9.768,28.859
		H94.586z"/>
	<path fill="#FFFFFF" d="M145.94,63.493c0.148,4.439-3.107,7.991-8.288,7.991c-4.588,0-7.844-3.552-7.844-7.991
		c0-4.588,3.404-8.14,8.14-8.14C142.833,55.354,145.94,58.905,145.94,63.493z M131.437,155.25V83.62h13.024v71.63H131.437z"/>
</g>
</svg>
