<?xml version="1.0" encoding="utf-8"?>
<!-- Generator: Adobe Illustrator 17.0.0, SVG Export Plug-In . SVG Version: 6.00 Build 0)  -->
<!DOCTYPE svg PUBLIC "-//W3C//DTD SVG 1.1//EN" "http://www.w3.org/Graphics/SVG/1.1/DTD/svg11.dtd">
<svg version="1.1" id="Layer_1" xmlns="http://www.w3.org/2000/svg" xmlns:xlink="http://www.w3.org/1999/xlink" x="0px" y="0px"
	 width="200px" height="200px" viewBox="0 0 200 200" enable-background="new 0 0 200 200" xml:space="preserve">
<path fill="#FFFFFF" d="M119.915,14.406c7.446,6.926,9.524,15.968,4.723,20.274l-90.041,80.735
	c-4.801,4.305-14.663,2.243-22.11-4.683l0,0c-7.446-6.926-9.524-15.968-4.723-20.274L97.806,9.722
	C102.607,5.417,112.469,7.48,119.915,14.406L119.915,14.406z"/>
<path fill="#FFFFFF" d="M194.5,99.5c0,9.713-6.848,17.5-15.295,17.5H20.795C12.348,117,5.5,109.213,5.5,99.5l0,0
	c0-9.713,6.848-17.5,15.295-17.5h158.41C187.652,82,194.5,89.787,194.5,99.5L194.5,99.5z"/>
<path fill="#FFFFFF" d="M119.766,184.467c-7.448,6.924-17.306,8.989-22.1,4.689L7.767,108.512c-4.794-4.3-2.709-13.337,4.74-20.262
	l0,0c7.448-6.924,17.306-8.989,22.1-4.689l89.899,80.644C129.3,168.506,127.214,177.543,119.766,184.467L119.766,184.467z"/>
</svg>
