<?xml version="1.0" encoding="utf-8"?>
<!-- Generator: Adobe Illustrator 17.0.0, SVG Export Plug-In . SVG Version: 6.00 Build 0)  -->
<!DOCTYPE svg PUBLIC "-//W3C//DTD SVG 1.1//EN" "http://www.w3.org/Graphics/SVG/1.1/DTD/svg11.dtd">
<svg version="1.1" id="Layer_1" xmlns="http://www.w3.org/2000/svg" xmlns:xlink="http://www.w3.org/1999/xlink" x="0px" y="0px"
	 width="200px" height="200px" viewBox="0 0 200 200" enable-background="new 0 0 200 200" xml:space="preserve">
<path fill="#FFFFFF" d="M99.968,40.954c3.204,3.195,3.465,8.072,0.618,10.927L47.19,105.432c-2.847,2.856-7.725,2.608-10.929-0.586
	l0,0c-3.204-3.195-3.465-8.072-0.618-10.927l53.397-53.551C91.886,37.512,96.763,37.759,99.968,40.954L99.968,40.954z"/>
<path fill="#FFFFFF" d="M165.5,100.04c0,4.526-4.754,8.153-10.618,8.153H44.906c-5.864,0-10.618-3.628-10.618-8.153l0,0
	c0-4.526,4.754-8.153,10.618-8.153h109.976C160.746,91.887,165.5,95.514,165.5,100.04L165.5,100.04z"/>
<path fill="#FFFFFF" d="M101.828,159.41c-3.197,3.203-8.14,3.396-11.075,0.466l-55.048-54.944c-2.935-2.93-2.752-7.873,0.444-11.076
	l0,0c3.197-3.203,8.14-3.396,11.075-0.466l55.048,54.944C105.208,151.264,105.025,156.207,101.828,159.41L101.828,159.41z"/>
</svg>
