<?xml version="1.0" encoding="utf-8"?>
<!-- Generator: Adobe Illustrator 17.0.0, SVG Export Plug-In . SVG Version: 6.00 Build 0)  -->
<!DOCTYPE svg PUBLIC "-//W3C//DTD SVG 1.1//EN" "http://www.w3.org/Graphics/SVG/1.1/DTD/svg11.dtd">
<svg version="1.1" id="Layer_1" xmlns="http://www.w3.org/2000/svg" xmlns:xlink="http://www.w3.org/1999/xlink" x="0px" y="0px"
	 width="250px" height="250px" viewBox="260.75 130 250 250" enable-background="new 260.75 130 250 250" xml:space="preserve">
<g id="Layer_1_1_">
	<path fill="#F2D0AF" d="M568.131,391c-1.52-4.752-4.388-8.738-7.355-12.629c-9.759-12.8-22.703-21.51-37.022-28.338
		c-19.905-9.49-41.077-14.808-62.669-18.677c-1.871-0.335-3.752-0.617-5.62-0.968c-2.242-0.421-4.327-1.11-5.933,1.634
		c-0.948,1.621-3.182,1.537-5.032,1.5c-1.027-0.021-2.054-0.095-3.08-0.146c-3.437-1.113-6.954-1.318-10.487-0.7
		c-1.831,0.321-3.563,0.349-3.95-1.789c-0.375-2.071,1.369-2.54,2.999-2.867c0.777-0.156,1.54-0.388,2.966-0.754
		c-3.518-1.014-6.591-1.541-8.231-4.48c-0.279-3.87,2.141-6.215,4.77-8.442c4.887-2.056,9.842-1.86,14.835-0.452
		c2.305,1.652,4.739,3.117,6.287,5.662c0.755,1.241,2.306,0.859,3.523,0.956c14.716,1.168,29.319,3.129,43.757,6.232
		c18.626,4.003,36.59,9.844,53.062,19.642c17.125,10.186,30.546,23.832,38.875,42.152c0.355,0.782,0.884,1.524,0.695,2.464
		C583.057,391,575.594,391,568.131,391z"/>
	<path fill="#262121" d="M392.039,291.055c-1.028-0.045-2.056-0.129-3.084-0.129c-22.226-0.008-44.452-0.004-66.678-0.007
		c-6.147-0.001-8.47-2.334-8.47-8.489c-0.001-32.149-0.001-64.297,0-96.445c0-6.255,2.206-8.48,8.431-8.48
		c60.407-0.002,120.814-0.002,181.221,0c5.788,0,8.075,2.269,8.075,8.017c0.004,32.466,0.003,64.932,0,97.397
		c0,5.572-2.4,7.995-7.954,7.997c-22.702,0.008-45.404,0.001-68.107,0.009c-1.028,0-2.056,0.081-3.085,0.123
		c-5.063-0.041-10.125-0.12-15.188-0.113C408.814,290.946,400.426,291.012,392.039,291.055z M499.275,280.589
		c1.7,0.044,2.095-0.501,2.092-2.137c-0.048-29.524-0.046-59.049-0.004-88.573c0.002-1.586-0.317-2.183-2.064-2.181
		c-57.7,0.046-115.4,0.046-173.1-0.001c-1.747-0.001-2.075,0.582-2.05,2.166c0.087,5.634,0.034,11.27,0.034,16.905
		c0,23.81-0.005,47.62,0.019,71.43c0.001,1.013-0.651,2.429,1.493,2.389"/>
	<path fill="#EDEDED" d="M444.32,313.893c-4.993-1.408-9.948-1.604-14.835,0.452c-15.132-0.009-30.264-0.017-45.395-0.027
		c-0.634,0-1.268-0.003-1.901-0.02c-0.841-0.022-1.332-0.459-1.406-1.296c-0.071-0.821,0.512-1.222,1.164-1.205
		c3.353,0.084,3.958-2.394,4.73-4.834c0.738-2.335,1.625-4.623,2.447-6.932c15.202-0.557,30.424-0.205,45.62-1.018
		c1.496,3.147,2.406,6.506,3.407,9.819c0.536,1.774,1.397,2.687,3.282,2.649c0.693-0.013,1.391,0.254,2.087,0.391
		C444.838,312.131,445.045,312.828,444.32,313.893z"/>
	<path fill="#F2D0AF" d="M434.745,299.013c-15.196,0.813-30.418,0.461-45.62,1.018c0.971-2.992,1.943-5.984,2.914-8.976
		c8.388-0.043,16.775-0.109,25.162-0.12c5.063-0.007,10.125,0.073,15.188,0.113C433.036,293.745,434.364,296.239,434.745,299.013z"
		/>
	<path fill="#EDEDED" d="M424.716,322.787c1.64,2.94,4.713,3.466,8.231,4.48c-1.426,0.366-2.188,0.598-2.966,0.754
		c-1.63,0.327-3.374,0.796-2.999,2.867c0.387,2.137,2.119,2.109,3.95,1.789c3.533-0.618,7.05-0.413,10.487,0.7
		c-5.761,0.676-11.535,0.74-17.272-0.095c-2.275-0.331-3.389-2.259-3.069-4.63C421.414,326.176,422.597,324.18,424.716,322.787z"/>
	<path fill="#EDEDED" d="M343.291,247.631c44.429,0.01,88.859,0.012,133.289,0.062c1.675,0.002,2.16-0.517,2.145-2.164
		c-0.072-7.854-0.031-15.709-0.032-23.563c0-3.066-0.003-3.07-3.084-3.07 M456.527,252.215c-7.56,0-7.884,0.312-7.884,7.604
		c0,7.425,0.354,7.78,7.748,7.78c7.42,0,7.761-0.341,7.761-7.769C464.152,252.54,463.827,252.215,456.527,252.215z M357.025,259.611
		c0,7.755,0.123,7.88,7.761,7.88c6.99,0,7.431-0.436,7.431-7.345c0-7.624-0.197-7.713-7.857-7.849
		C357.563,252.176,356.758,252.888,357.025,259.611z M379.891,259.936c0,7.268,0.343,7.622,7.393,7.622
		c7.645,0,7.906-0.26,7.906-7.846c0-7.166-0.274-7.437-7.534-7.437C379.992,252.273,379.891,252.372,379.891,259.936z
		 M418.102,259.841c0-7.399-0.151-7.549-7.601-7.549c-7.521,0-7.655,0.136-7.654,7.753c0,7.141,0.354,7.495,7.508,7.495
		C417.871,267.54,418.102,267.311,418.102,259.841z M440.962,260.003c0-7.611-0.024-7.635-7.703-7.635
		c-7.109,0-7.407,0.302-7.407,7.52c0,7.262,0.324,7.584,7.657,7.584C440.686,267.47,440.962,267.195,440.962,260.003z"/>
	<path fill="#FCFCFC" d="M343.272,218.946c0.006,9.562,0.013,19.123,0.019,28.684"/>
	<path fill="#FCFCFC" d="M325.695,280.585c-2.145,0.04-1.492-1.376-1.493-2.389c-0.024-23.81-0.019-47.62-0.019-71.43
		c0-5.635,0.053-11.271-0.034-16.905c-0.024-1.584,0.303-2.167,2.05-2.166c57.7,0.047,115.4,0.047,173.1,0.001
		c1.747-0.001,2.066,0.595,2.064,2.181c-0.042,29.524-0.044,59.049,0.004,88.573c0.002,1.636-0.392,2.181-2.092,2.137"/>
	<g>
		<path fill="#E8E8E8" d="M488.263,272.547c0,2.882-2.358,5.24-5.24,5.24H338.847c-2.882,0-5.24-2.358-5.24-5.24v-73.358
			c0-2.882,2.358-5.24,5.24-5.24h144.176c2.882,0,5.24,2.358,5.24,5.24L488.263,272.547L488.263,272.547z"/>
	</g>
	<path fill="#28BEBA" d="M476.544,207.071c3.081,0,3.084,0.004,3.084,3.07c0.001,7.855-0.04,15.71,0.032,23.563
		c0.015,1.646-0.469,2.165-2.145,2.164c-44.429-0.05-88.859-0.052-133.289-0.062c-0.006-9.561-0.013-19.123-0.019-28.684
		 M357.03,225.524c0.559-0.045,1.346-0.096,2.13-0.174c0.634-0.063,1.399-0.148,1.603-0.79c0.253-0.796-0.568-1.008-1.104-1.283
		c-0.956-0.49-1.54-0.866-0.534-2.034c1.003-1.163,0.744-2.548-0.415-3.583c-1.083-0.967-2.333-0.998-3.44-0.065
		c-1.278,1.077-1.468,2.468-0.422,3.768c0.659,0.818,0.766,1.217-0.255,1.715c-0.584,0.285-1.572,0.437-1.394,1.356
		c0.193,0.997,1.209,0.815,1.952,0.933C355.695,225.454,356.25,225.463,357.03,225.524z M367.115,212.509c0,0.175,0,0.35,0,0.525
		c8.009,0,16.017,0,24.026,0c0-0.175,0-0.35,0-0.525C383.132,212.509,375.123,212.509,367.115,212.509z"/>
	<path fill="#28BEBA" d="M456.527,252.215c7.3,0,7.625,0.325,7.625,7.615c0,7.428-0.341,7.769-7.761,7.769
		c-7.394,0-7.748-0.355-7.748-7.78C448.643,252.528,448.967,252.215,456.527,252.215z"/>
	<path fill="#E14826" d="M357.025,259.611c-0.266-6.723,0.538-7.435,7.334-7.314c7.66,0.136,7.857,0.226,7.857,7.849
		c0,6.909-0.441,7.345-7.431,7.345C357.147,267.491,357.025,267.367,357.025,259.611z"/>
	<path fill="#28BEBA" d="M379.891,259.936c0-7.563,0.101-7.662,7.765-7.662c7.26,0,7.534,0.271,7.534,7.437
		c0,7.587-0.262,7.846-7.906,7.846C380.235,267.557,379.891,267.203,379.891,259.936z"/>
	<path fill="#28BEBA" d="M418.102,259.841c0,7.47-0.231,7.7-7.747,7.7c-7.154,0-7.508-0.354-7.508-7.495
		c0-7.617,0.134-7.753,7.654-7.753C417.952,252.292,418.102,252.442,418.102,259.841z"/>
	<path fill="#E14826" d="M440.962,260.003c0,7.192-0.275,7.468-7.453,7.468c-7.332,0-7.657-0.322-7.657-7.584
		c0-7.217,0.298-7.52,7.407-7.52C440.937,252.367,440.962,252.391,440.962,260.003z"/>
	<path fill="#E14826" d="M357.017,225.774c-0.78-0.061-1.336-0.07-1.879-0.156c-0.743-0.118-1.759,0.063-1.952-0.933
		c-0.178-0.919,0.81-1.07,1.394-1.356c1.021-0.499,0.914-0.897,0.255-1.715c-1.047-1.299-0.856-2.691,0.422-3.768
		c1.108-0.934,2.357-0.902,3.44,0.065c1.159,1.035,1.418,2.419,0.415,3.583c-1.007,1.167-0.423,1.544,0.534,2.034
		c0.536,0.274,1.357,0.487,1.104,1.283c-0.204,0.642-0.969,0.727-1.603,0.79C358.364,225.677,357.577,225.729,357.017,225.774z"/>
	<path fill="#E14826" d="M367.13,212.478c8.009,0,16.017,0,24.026,0c0,0.175,0,0.35,0,0.525c-8.009,0-16.017,0-24.026,0
		C367.13,212.828,367.13,212.653,367.13,212.478z"/>
	
		<line fill="none" stroke="#FFFFFF" stroke-width="3" stroke-linecap="round" stroke-miterlimit="10" x1="367.114" y1="216.915" x2="473.083" y2="216.915"/>
	
		<line fill="none" stroke="#FFFFFF" stroke-width="3" stroke-linecap="round" stroke-miterlimit="10" x1="367.114" y1="221.469" x2="473.083" y2="221.469"/>
	
		<line fill="none" stroke="#FFFFFF" stroke-width="3" stroke-linecap="round" stroke-miterlimit="10" x1="365.779" y1="225.524" x2="471.748" y2="225.524"/>
	
		<line fill="none" stroke="#FFFFFF" stroke-width="3" stroke-linecap="round" stroke-miterlimit="10" x1="366.055" y1="230.236" x2="472.024" y2="230.236"/>
	<path fill="none" d="M443.07,280.591"/>
	<path fill="#FBD156" d="M347.502,184.941c-0.151,0.89-0.734,1.253-1.554,1.571c-14.646,5.664-29.291,11.332-43.894,17.104
		c-1.942,0.767-2.286-0.332-2.985-1.581c-3.386-6.05-3.206-11.905,0.613-17.719c0.703-1.07,1.639-2.169,1.296-3.727
		c-0.816-3.714-1.963-4.471-5.754-3.357c-6.3,1.85-12.135,4.9-18.255,7.221c-1.144,0.434-3.777,7.365-3.443,8.657
		c3.247,12.544,6.134,25.197,9.895,37.585c3.755,12.368,3.152,14.545,6.393,24.473c2.489,7.624,4.192,15.405,6.205,23.127
		c0.192,0.736,0.267,1.596,1.031,2.077c-0.746,2.346,1.105,4.019,1.58,6.052c0.902,3.856,2.081,7.656,2.795,11.544
		c0.427,2.322,1.491,2.831,3.639,2.745c3.623-0.146,7.257,0.02,10.887,0.028c2.797,0.006,4.056,1.396,4.183,4.174
		c0.42,9.203,0.455,9.263-8.599,9.344c-9.301,0.083-18.603-0.051-27.903,0.088c-2.446,0.036-3.069-0.793-3.05-3.117
		c0.091-10.959-0.847-10.725,10.488-10.537c0.567,0.01,1.141-0.06,1.7,0.006c2.285,0.267,2.895-0.435,2.225-2.803
		c-1.323-4.675-2.411-9.426-3.362-14.192c-0.263-1.318-1.348-2.072-1.54-3.313c-1.748-7.351-2.974-14.879-5.382-22.007
		c-2.677-7.925-3.653-16.26-6.393-24.085c-3.061-8.744-4.303-17.923-7.12-26.677c-1.549-4.814-2.885-9.66-4.072-14.558
		c-0.301-1.24-0.997-2.01-2.021-2.552c-2.752-1.46-4.104-3.594-2.932-6.668c1.186-3.11,3.837-4.639,6.925-4.239
		c4.696,0.609,8.451-1.339,12.28-3.407c7.004-2.285,13.807-5.058,20.393-8.359c0.229,0.064,0.458,0.127,0.688,0.19
		c0.56,3.212,2.186,3.642,5.035,2.315c3.545-1.651,7.271-2.915,10.918-4.346c0.869-0.221,1.73-0.484,2.609-0.656
		c2.828-0.553,5.248-0.22,6.063,3.113c0.672,2.746,2.436,3.225,5.127,3.68C339.61,173.385,344.622,178.021,347.502,184.941z
		 M265.645,185.571c-0.111,2.157,1.22,3.307,3.048,3.266c1.846-0.042,3.865-0.463,3.868-3.199c0.003-2.734-2.023-3.096-3.867-3.263
		C266.656,182.191,265.713,183.603,265.645,185.571z"/>
	<polygon opacity="0.5" fill="#F9E7BB" enable-background="new    " points="324.382,314.821 301.055,203.864 347.502,185.851 
		493.82,314.821 	"/>
</g>
<g id="Layer_2" display="none">
	<path display="inline" fill="#FDFDFD" d="M23.429,23.721c0-13.569,0.118-27.14-0.091-40.706c-0.047-3.041,0.542-4.215,3.654-3.622
		c1.149,0.219,2.374,0.035,3.564,0.035c234.481,0,468.963,0.031,703.444-0.172c6.01-0.005,6.834,1.482,6.828,7.06
		c-0.181,157.59-0.173,315.181-0.02,472.771c0.005,4.989-0.821,6.285-6.137,6.281c-235.195-0.174-470.391-0.172-705.586-0.009
		c-5.008,0.003-5.805-1.146-5.788-5.914c0.206-55.227,0.132-110.456,0.132-165.684c29.931,0.099,59.863,0.198,89.796,0.297
		c0.405,2.604,2.681,4.187,3.233,6.954c1.996,10.006,4.28,19.979,7.058,29.794c1.407,4.971,0.127,6.445-4.67,5.884
		c-1.174-0.137-2.379,0.007-3.569-0.013c-23.796-0.393-21.825-0.887-22.017,22.12c-0.041,4.879,1.267,6.62,6.402,6.544
		c19.522-0.29,39.052-0.009,58.576-0.184c19.008-0.17,18.934-0.297,18.052-19.616c-0.266-5.831-2.91-8.749-8.782-8.762
		c-7.619-0.016-15.249-0.365-22.854-0.058c-4.51,0.182-6.742-0.887-7.639-5.762c-1.5-8.161-3.975-16.139-5.868-24.234
		c-0.998-4.267-4.882-7.78-3.318-12.704c29.982-0.051,59.963-0.102,89.945-0.154c0.078,17.852,0.612,35.72-0.033,53.545
		c-0.206,5.69,1.524,7.025,6.21,7.024c34.048-0.009,68.096-0.102,102.143,0.008c5.159,0.017,6.539-2.234,6.401-6.956
		c-0.244-8.327,0.232-16.681-0.174-24.995c-0.263-5.369,0.976-7.305,6.914-7.254c39.762,0.345,79.527,0.23,119.291,0.324
		c14.229,0.034,14.122,0.104,13.36,14.033c-0.27,4.93-1.92,7.203-7.335,7.036c-11.657-0.358-23.332-0.122-35-0.108
		c-7.674,0.009-11.767,3.149-13.169,10.514c-0.863,4.539-0.143,7.907,5.957,7.697c9.513-0.328,19.046-0.081,28.571-0.08
		c29.288,0.004,58.577,0.029,87.865-0.023c2.702-0.005,5.917,0.887,7.343-2.759c2.084-5.327-4.642-15.303-10.427-15.328
		c-12.144-0.054-24.289-0.123-36.431,0.003c-5.782,0.06-8.94-2.122-8.608-8.275c0.141-2.612,0.223-5.256-0.022-7.852
		c-0.342-3.632,0.844-4.958,4.702-4.942c33.811,0.133,67.624,0.151,101.435-0.019c4.307-0.022,5.147,1.553,5.029,5.404
		c-0.24,7.85-0.077,15.713-0.008,23.57c0.071,8.159,1.706,10.148,9.96,10.195c30.472,0.173,60.945,0.147,91.418,0.075
		c5.916-0.014,9.11-2.79,8.962-9.305c-0.281-12.376-0.061-24.762-0.094-37.144c-0.022-8.419-1.961-10.322-10.636-10.357
		c-12.382-0.05-24.764-0.006-37.146-0.039c-2.428-0.006-5.709,0.954-4.788-3.591c24.497-0.084,48.994-0.176,73.491-0.241
		c3.332-0.009,6.427,0.687,6.392-4.747c-0.272-42.336-0.269-84.674-0.351-127.011c0.082-44.731,0.102-89.463,0.341-134.193
		c0.024-4.575-2.099-4.836-5.624-4.821c-22.841,0.093-45.684,0.049-68.525,0.049c-187.989-0.002-375.977-0.006-563.966,0.012
		c-3.079,0-6.158,0.272-9.237,0.416c-1.406-0.034-2.812-0.067-4.218-0.101C66.321,23.173,44.874,22.971,23.429,23.721z
		 M486.893,451.821c-0.272-0.615-0.718-1.304-1.358-0.692c-0.6,0.573-0.075,1.143,0.614,1.419c1.507,2.397,3.747,1.231,5.693,1.056
		c1.88-0.17,2.786-1.599,2.887-3.376c0.032-0.56-0.447-1.494-0.918-1.677c-2.071-0.806-2.764,0.45-3.317,2.259
		C489.914,452.708,488.167,451.694,486.893,451.821z M279.231,446.434c2.366,1.514,1.318,3.608,1.682,5.306
		c0.227,1.058,0.76,1.733,1.819,1.683c0.598-0.028,1.659-0.406,1.69-0.709c0.314-3.127,1.887-7.202-2.495-8.277
		c-2.417-0.593-4.295-1.428-6.263-4.207c-0.559,5.296-0.991,9.278,0.207,14.406C278.557,451.317,276.568,448.434,279.231,446.434z
		 M301.715,453.3c-0.378-0.963-0.937-1.897-1.096-2.895c-0.303-1.906-0.381-4.33,1.955-4.602c2.566-0.298,2.3,2.205,2.411,3.986
		c0.12,1.916,0.164,3.884,3.288,3.63c-0.661-2.26-1.439-4.157-0.94-6.819c1.533-8.181-7.166,3.679-7.333-3.323
		c-0.021-0.872-2.009,1.02-1.851,1.612C298.925,447.801,297.568,451.431,301.715,453.3z M253.576,451.638
		c3.23-0.065,6.247-0.53,6.292-3.607c0.017-1.177-3.142-2.971-5.113-3.482c-3.632-0.941-1.792,4.492-4.79,4.726
		C250.484,451.582,252.12,451.894,253.576,451.638z M233.24,445.998c5.057-0.581,5.245-0.474,2.844,3.76
		c-0.723,1.276-0.807,2.186-0.159,3.036c1.176,1.543,1.822,0.251,2.513-0.713c1.402-1.955,4.923-3.032,3.428-6.2
		c-1.667-3.534-3.909,0.799-5.986,0.048C235.109,445.65,234.126,445.958,233.24,445.998z M415.11,454.885
		c-0.727-4.51,1.441-8.882-1.884-9.856c-3.383-0.991-8.1-2.034-11.348,0.215c-2.547,1.764-1.301,5.313-0.069,9.972
		c2.079-4.07-0.069-8.859,6.223-8.806C414.377,446.463,411.225,451.629,415.11,454.885z M364.84,447.502
		c1.093,2.002-1.598,5.475,1.777,5.746c1.381,0.111,3.05-3.352,4.588-5.189c-3.4-1.023-1.894-6.532-4.362-6.496
		C363.184,441.617,366.117,445.631,364.84,447.502z M343.432,453.519c-3.16-2.479-3.173-4.684-1.963-6.977
		c0.872-1.652-0.432-2.763-1.173-3.501c-1.457-1.452-2.379-0.11-3.034,1.268c-0.734,1.545-4.201,1.057-2.693,4.477
		C336.171,452.422,338.688,453.416,343.432,453.519z M399.133,448.948c0.035-3.156-1.511-4.816-4.673-4.957
		c-1.916-0.086-3.732,0.565-2.852,2.696c1.087,2.633,2.327,5.978,5.214,6.646C398.659,453.758,399.143,450.895,399.133,448.948z
		 M532.169,445.648c0.244,4.694,4.307,3.478,6.914,4.514c1.886,0.749,3.053-0.696,2.807-1.9c-0.786-3.847-4.359-4.661-7.471-5.453
		C532.788,442.393,532.099,444.057,532.169,445.648z M312.426,452.138c2.5,0.184,2.801-3.073,5.479-2.656
		c1.989,0.309,1.721-1.803,1.313-3.048c-0.563-1.719-2.015-2.683-3.802-2.164C311.553,445.392,311.617,448.359,312.426,452.138z
		 M446.102,455.11c0-4.881,0.023-8.061-0.012-11.239c-0.013-1.205-0.185-2.523-1.881-2.108c-0.952,0.233-3.065,0.993-2.208,1.698
		C445.434,446.283,441.568,450.828,446.102,455.11z M471.638,450.603c-0.335-3.291-2.405-3.89-4.849-4.177
		c-2.239-0.263-4.329,0.956-4.194,2.643c0.322,4.008,6.44-0.338,6.956,4.22C470.335,452.279,471.12,451.269,471.638,450.603z
		 M504.738,450.397c-0.17-3.205-3.176-3.221-4.689-4.805c-1.051,1.201-2.999,2.416-2.981,3.601c0.05,3.252,5.498,0.281,5.542,4.21
		C503.371,452.328,504.132,451.253,504.738,450.397z M529.932,443.906c-0.328-1.165-1.376-1.108-2.249-1.245
		c-0.419-0.065-0.885,0.172-1.33,0.273c0.926,0.618,1.839,1.259,2.803,1.81C529.231,444.787,529.666,444.201,529.932,443.906z
		 M354.63,446.841c-0.422,1.036-0.886,1.634-0.813,2.156c0.07,0.501,0.698,0.924,1.081,1.382c0.319-0.532,0.883-1.062,0.888-1.597
		C355.791,448.274,355.211,447.76,354.63,446.841z M293.718,445.378l-0.257-0.366l-0.18,0.389L293.718,445.378z M512.095,448.152
		c1.025-0.143,2.049,0.144,2.175-1.011c0.016-0.146-1.107-0.59-1.698-0.582c-0.588,0.008-1.17,0.411-1.755,0.64
		C511.29,447.553,511.763,447.906,512.095,448.152z M525.4,447.926c1.168-0.013,1.982-0.132,1.675-0.943
		c-0.135-0.358-1.188-0.385-1.831-0.53c-0.764-0.173-1.443,0.132-1.139,0.908C524.265,447.769,525.234,447.861,525.4,447.926z
		 M273.518,451.111c-0.335-0.434-0.719-0.931-1.102-1.428c-0.263,0.285-0.805,0.689-0.742,0.834
		c0.306,0.713,0.773,1.358,1.183,2.027C273.045,452.136,273.233,451.729,273.518,451.111z M270.441,448.798
		c-0.367-0.24-0.689-0.56-1.073-0.676c-0.666-0.201-1.236,0.022-1.079,0.824c0.044,0.223,0.702,0.475,1.058,0.448
		C269.718,449.366,270.065,449.017,270.441,448.798z"/>
	<path display="inline" fill="#CD5740" d="M91.986,23.734c3.079-0.145,6.158-0.416,9.237-0.416
		C289.211,23.3,477.2,23.304,665.189,23.306c22.842,0,45.684,0.044,68.525-0.049c3.525-0.014,5.648,0.246,5.624,4.821
		c-0.239,44.73-0.259,89.462-0.341,134.193c-2.058-0.46-4.095-1.084-6.177-1.353c-14.635-1.895-29.246-4.085-43.933-5.431
		c-9.81-0.899-19.363-4.234-29.373-3.087c-0.077-11.411-0.172-22.823-0.225-34.234c-0.07-15.017-4.708-19.725-19.485-19.781
		c-26.392-0.1-52.785-0.221-79.177-0.333c5.621-3.326,11.003-7.087,16.353-10.758c7.576-5.199,16.847-8.264,22.271-16.402
		c2.958,0.144,5.831-0.763,8.152-2.222c20.432-12.837,40.744-25.866,61.076-38.863c1.432-0.915,4.201-1.624,2.436-3.925
		c-1.235-1.61-2.864,0.269-4.253,1.139C650.47,37.157,634.1,47.02,618.097,57.445c-6.447,4.2-13.504,7.662-18.885,13.407
		c-10.447,3.848-19.324,10.531-28.439,16.58c-5.339,3.543-11.696,5.728-15.994,10.824c-76.846,0.039-153.692,0.116-230.538,0.048
		c-6.665-0.006-12.661,1.316-18.003,5.325c-0.998-1.292-2.449-1.155-3.861-1.336c-10.029-1.287-20.041-2.703-30.074-3.958
		c-12.846-1.607-25.705-3.103-38.559-4.646c-6.048-14.527-16.569-24.258-32.1-26.887c-5.648-0.956-9.352-1.961-10.763-7.726
		c-1.712-6.998-6.793-7.697-12.729-6.536c-1.845,0.361-3.653,0.913-5.478,1.377c-3.464-8.323-5.167-8.661-13.169-6.444
		c-6.615,1.833-12.293,6.328-19.409,6.494c-1.25-0.095-2.499-0.19-3.749-0.284c-0.213-1.426-0.59-2.737-2.426-2.584
		c-0.31,0.026-0.872,0.554-0.83,0.743c0.376,1.707,1.861,1.702,3.184,1.924c0.489,1.338,0.978,2.676,1.467,4.014
		c-13.827,6.931-28.108,12.754-42.811,17.551c-0.9-1.568-2.512-2.619-4.04-2.604c-12.12,0.119-23.731-3.41-35.634-4.833
		c-10.684-1.277-21.633-1.411-31.829-5.593c0-12.859,0-25.718,0-38.577c21.446-0.75,42.893-0.548,64.339-0.087
		c5.846,5.219,12.155,9.642,19.918,11.561c3.46,7.208,11.057,8.193,17.169,11.411c0.473,0.475,0.946,0.951,1.418,1.426
		c0.678,1.002,1.567,1.507,2.785,1.104c0.164-0.054,0.247-0.352,0.368-0.537c-1.034-0.206-2.068-0.412-3.102-0.618
		c-0.476-0.472-0.951-0.945-1.426-1.418c-3.255-7.49-11.082-8.14-17.13-11.45C103.933,29.343,96.71,28.272,91.986,23.734z"/>
	<path display="inline" fill="#E86449" d="M23.429,62.299c10.196,4.182,21.146,4.315,31.829,5.593
		c11.903,1.423,23.514,4.951,35.634,4.833c1.528-0.015,3.14,1.036,4.039,2.603c-8.038,4.342-15.92,8.43-25.779,7.152
		c-6.483-0.84-12.049,2.369-14.538,8.898c-2.46,6.454,0.378,10.934,6.156,13.998c2.15,1.14,3.611,2.755,4.242,5.358
		c2.491,10.283,5.296,20.455,8.548,30.562c5.913,18.377,8.52,37.646,14.946,56.002c5.751,16.428,7.8,33.925,13.42,50.562
		c5.055,14.965,7.629,30.767,11.297,46.2c-29.931-0.099-59.863-0.198-89.794-0.298C23.429,216.608,23.429,139.453,23.429,62.299z"/>
	<path display="inline" fill="#1D3541" d="M560.627,98.052c26.392,0.112,52.784,0.232,79.177,0.333
		c14.778,0.056,19.416,4.765,19.485,19.781c0.053,11.412,0.148,22.823,0.225,34.234c-0.016,47.29-0.032,94.58-0.048,141.871
		c-0.92,4.545,2.361,3.584,4.788,3.591c12.382,0.033,24.764-0.011,37.146,0.039c8.675,0.035,10.613,1.938,10.636,10.357
		c0.033,12.382-0.187,24.769,0.094,37.144c0.148,6.515-3.047,9.291-8.962,9.305c-30.473,0.072-60.946,0.098-91.418-0.075
		c-8.254-0.047-9.889-2.036-9.96-10.195c-0.068-7.857-0.232-15.721,0.008-23.57c0.118-3.851-0.722-5.425-5.029-5.404
		c-33.811,0.17-67.624,0.152-101.435,0.019c-3.858-0.015-5.044,1.31-4.702,4.942c0.245,2.596,0.163,5.24,0.022,7.852
		c-0.332,6.154,2.826,8.336,8.608,8.275c12.142-0.127,24.287-0.057,36.431-0.003c5.784,0.025,12.51,10.002,10.427,15.328
		c-1.426,3.646-4.641,2.754-7.343,2.759c-29.288,0.051-58.577,0.027-87.865,0.023c-9.525-0.001-19.058-0.248-28.571,0.08
		c-6.1,0.21-6.82-3.158-5.957-7.697c1.401-7.366,5.495-10.505,13.169-10.514c11.668-0.013,23.343-0.249,35,0.108
		c5.415,0.166,7.065-2.107,7.335-7.036c0.762-13.929,0.869-13.999-13.36-14.033c-39.764-0.094-79.53,0.021-119.291-0.324
		c-5.939-0.052-7.177,1.885-6.914,7.254c0.406,8.314-0.069,16.668,0.174,24.995c0.138,4.723-1.243,6.973-6.401,6.956
		c-34.047-0.109-68.096-0.017-102.143-0.008c-4.685,0.001-6.415-1.334-6.21-7.024c0.645-17.825,0.11-35.694,0.032-53.546
		c0.593-22.455,0.609-44.909,0.02-67.364c0.474-1.373,0.947-2.745,1.421-4.118c0.996-0.201,1.992-0.401,2.988-0.602
		c0.419-0.162,0.838-0.324,1.258-0.487c0,0,0.069-0.295,0.07-0.295c0.443-0.032,0.887-0.064,1.33-0.096
		c2.818,0.024,5.637,0.048,8.455,0.072c5.325-0.007,10.65-0.014,15.975-0.021c2.799-0.019,5.598-0.039,8.397-0.058
		c1.926-0.002,3.853-0.005,5.779-0.007c2.861-0.003,5.722-0.007,8.583-0.01c0.571,0.066,1.142,0.133,1.713,0.199
		c3.722-0.036,7.445-0.071,11.167-0.107c0.933-0.038,1.866-0.075,2.799-0.113c2.389,0.008,4.778,0.017,7.168,0.025
		c1.002,0.045,2.004,0.09,3.006,0.134c3.91,0.823,6.342-0.05,5.862-4.762c-0.395-3.882,0.631-7.844-0.582-11.694
		c-0.072-0.748-0.145-1.496-0.217-2.244c0-2.468,0-4.936,0-7.404c0.115-0.869,0.23-1.737,0.345-2.606
		c0.141-2.111,0.414-4.223,0.402-6.333c-0.13-23.154-0.248-46.309-0.514-69.461c-0.053-4.62,0.723-8.899,3.038-12.889
		c5.342-4.01,11.339-5.331,18.003-5.325c76.846,0.068,153.692-0.009,230.539-0.049C556.73,98.186,558.679,98.119,560.627,98.052z
		 M481.348,116.665c-49.285,0-98.57,0.091-147.855-0.125c-5.593-0.025-7.016,1.548-6.984,7.064
		c0.158,27.112-0.432,54.23-0.06,81.336c0.087,6.366-4.169,14.862,5.569,18.793c0.478,0.193,0.293,2.206,0.297,3.372
		c0.07,19.983,0.347,39.97,0.036,59.947c-0.09,5.803,1.796,7.193,7.29,7.144c33.566-0.301,67.134-0.335,100.702-0.358
		c63.089-0.043,126.178-0.113,189.265,0.128c6.323,0.024,7.893-1.657,7.863-7.921c-0.258-54.046-0.252-108.094-0.002-162.14
		c0.028-6.077-1.734-7.404-7.56-7.377C580.39,116.765,530.869,116.664,481.348,116.665z M227.815,285.221
		c0,16.165,0.156,32.333-0.099,48.494c-0.073,4.619,1.214,6.06,5.948,6.023c27.816-0.217,55.636-0.212,83.452-0.025
		c4.587,0.031,6.163-1.149,6.138-5.935c-0.174-32.81-0.12-65.621,0.009-98.431c0.013-3.244-0.508-4.605-4.17-4.598
		c-28.462,0.06-56.924-0.079-85.387-0.172c-4.154-0.014-6.18,1.097-6.048,6.144C228.079,252.879,227.814,269.053,227.815,285.221z"
		/>
	<path display="inline" fill="#E86449" d="M306.237,103.628c-2.314,3.99-3.091,8.269-3.038,12.889
		c0.266,23.153,0.384,46.307,0.514,69.461c0.012,2.11-0.261,4.222-0.402,6.333c-4.269,0.039-8.553,0.316-12.803,0.051
		c-4.462-0.278-5.757,1.605-5.618,5.838c0.248,7.584,0.052,15.182,0.041,22.774c-3.722,0.036-7.445,0.071-11.17,0.107
		c-0.353-8.056-0.956-16.141,0.299-24.145c0.538-3.431-1.061-4.107-3.767-4.497c-7.946-1.145-8.92-0.243-10.231,10.04
		c-3.47-5.509-8.134-9.8-14.551-9.852c-6.478-0.052-10.589-0.718-9.453-8.719c0.544-3.83-2.724-4.596-5.829-4.305
		c-2.519,0.236-6.485-1.489-6.596,3.055c-0.101,4.126-1.542,8.503,1.099,12.428c0,1.488,0.001,2.977,0.001,4.465
		c-2.798,7.016-0.666,14.308-1.202,21.45c0,0-0.069,0.295-0.068,0.293c-0.419,0.161-0.839,0.325-1.259,0.49
		c-0.996,0.201-1.992,0.401-2.989,0.601c-0.661-7.475-3.512-10.393-11.71-11.374c-2.631-0.315-5.107-0.424-7.27-2.274
		c-1.31-1.121-2.616-1.996-2.387-3.985c0.251-2.181,2.118-2.22,3.569-2.91c4.017-1.913,7.866-0.445,11.805,0.317
		c1.853,0.358,3.96,0.346,4.309-2.368c0.273-2.12-1.129-2.762-2.82-3.42c-5.163-2.01-10.174-1.043-15.336,0.121
		c-5.397,1.217-8.512,4.374-8.586,9.715c-0.073,5.249,3.323,7.796,8.318,9.092c3.817,0.99,7.97,0.627,11.475,3.183
		c3.247,2.368,3.67,3.956-0.117,6.099c-4.734,2.678-9.442,2.385-14.422,0.907c-1.929-0.572-4.555-1.033-5.217,1.962
		c-0.662,2.993,1.872,3.598,3.897,3.99c8.354,1.618,16.516,1.995,23.071-4.936c0.59,22.455,0.573,44.909-0.02,67.364
		c-29.981,0.052-59.963,0.103-89.943,0.154c-1.604-1.009-1.761-2.814-2.164-4.36c-4.227-16.21-7.801-32.544-13.027-48.55
		c-5.479-16.78-8.256-34.365-13.421-51.375c-7.896-26.006-13.957-52.568-20.773-78.901c-0.702-2.712,4.826-17.264,7.227-18.174
		c12.848-4.873,25.097-11.277,38.322-15.16c7.959-2.337,10.368-0.749,12.08,7.048c0.718,3.271-1.246,5.577-2.721,7.824
		c-8.017,12.205-8.395,24.497-1.286,37.198c1.468,2.622,2.191,4.93,6.267,3.319c30.657-12.118,61.401-24.016,92.147-35.907
		c1.723-0.666,2.947-1.429,3.263-3.297c12.854,1.544,25.713,3.039,38.559,4.646c10.033,1.255,20.045,2.671,30.074,3.958
		C303.789,102.473,305.24,102.336,306.237,103.628z"/>
	<path display="inline" fill="#E86449" d="M659.466,294.271c0.016-47.29,0.032-94.581,0.048-141.871
		c10.01-1.147,19.563,2.189,29.373,3.088c14.687,1.346,29.298,3.537,43.933,5.431c2.083,0.27,4.119,0.894,6.177,1.353
		c0.082,42.337,0.078,84.675,0.351,127.011c0.035,5.434-3.059,4.738-6.392,4.747C708.46,294.095,683.963,294.187,659.466,294.271z"
		/>
	<path display="inline" fill="#CD5740" d="M279.231,446.434c-2.664,1.999-0.674,4.883-3.36,8.202
		c-1.198-5.128-0.765-9.11-0.207-14.406c1.968,2.779,3.845,3.614,6.263,4.207c4.382,1.075,2.809,5.15,2.495,8.277
		c-0.03,0.303-1.092,0.68-1.69,0.709c-1.059,0.05-1.593-0.624-1.819-1.683C280.549,450.042,281.598,447.948,279.231,446.434z"/>
	<path display="inline" fill="#1D3541" d="M301.715,453.3c-4.147-1.87-2.79-5.499-3.566-8.409c-0.158-0.593,1.83-2.484,1.851-1.612
		c0.167,7.002,8.866-4.858,7.333,3.323c-0.499,2.662,0.279,4.559,0.94,6.819c-3.123,0.254-3.168-1.714-3.288-3.63
		c-0.112-1.781,0.154-4.284-2.411-3.986c-2.336,0.271-2.258,2.696-1.955,4.602C300.778,451.403,301.337,452.338,301.715,453.3z"/>
	<path display="inline" fill="#CD5740" d="M253.576,451.638c-1.456,0.256-3.092-0.056-3.61-2.363
		c2.997-0.235,1.157-5.667,4.79-4.726c1.971,0.51,5.13,2.305,5.113,3.482C259.823,451.108,256.806,451.573,253.576,451.638z"/>
	<path display="inline" fill="#1D3541" d="M233.24,445.998c0.886-0.04,1.868-0.348,2.639-0.069c2.078,0.751,4.319-3.582,5.986-0.048
		c1.495,3.168-2.026,4.245-3.428,6.2c-0.691,0.963-1.337,2.256-2.513,0.713c-0.648-0.85-0.564-1.76,0.159-3.036
		C238.485,445.524,238.297,445.417,233.24,445.998z"/>
	<path display="inline" fill="#CD5740" d="M415.11,454.885c-3.884-3.257-0.732-8.422-7.078-8.476
		c-6.292-0.053-4.144,4.736-6.223,8.806c-1.232-4.658-2.478-8.208,0.069-9.972c3.248-2.249,7.965-1.206,11.348-0.215
		C416.55,446.003,414.382,450.376,415.11,454.885z"/>
	<path display="inline" fill="#1D3541" d="M364.84,447.502c1.277-1.871-1.656-5.885,2.002-5.939
		c2.468-0.037,0.963,5.473,4.362,6.496c-1.538,1.837-3.206,5.3-4.588,5.189C363.242,452.977,365.933,449.504,364.84,447.502z"/>
	<path display="inline" fill="#1D3541" d="M343.432,453.519c-4.744-0.103-7.26-1.097-8.862-4.732
		c-1.507-3.42,1.959-2.932,2.693-4.477c0.655-1.378,1.577-2.72,3.034-1.268c0.74,0.738,2.044,1.849,1.173,3.501
		C340.259,448.836,340.272,451.04,343.432,453.519z"/>
	<path display="inline" fill="#CD5740" d="M399.136,448.947c0.007,1.948-0.477,4.811-2.314,4.386
		c-2.887-0.668-4.127-4.013-5.214-6.646c-0.88-2.13,0.936-2.781,2.852-2.696C397.621,444.132,399.167,445.792,399.136,448.947z"/>
	<path display="inline" fill="#E86449" d="M91.986,23.734c4.723,4.537,11.946,5.609,15.78,11.379l-0.082,0.082
		c-7.762-1.919-14.071-6.342-19.917-11.561C89.175,23.667,90.58,23.701,91.986,23.734z"/>
	<path display="inline" fill="#CD5740" d="M532.169,445.648c-0.07-1.591,0.619-3.255,2.25-2.839
		c3.112,0.792,6.684,1.606,7.471,5.453c0.246,1.204-0.921,2.65-2.807,1.9C536.476,449.127,532.413,450.342,532.169,445.648z"/>
	<path display="inline" fill="#CD5740" d="M312.426,452.138c-0.809-3.779-0.873-6.746,2.991-7.868
		c1.787-0.519,3.238,0.445,3.802,2.164c0.408,1.245,0.676,3.357-1.313,3.048C315.227,449.065,314.926,452.321,312.426,452.138z"/>
	<path display="inline" fill="#CD5740" d="M446.102,455.11c-4.534-4.282-0.667-8.827-4.1-11.65
		c-0.857-0.705,1.256-1.465,2.208-1.698c1.696-0.415,1.868,0.904,1.881,2.108C446.124,447.049,446.102,450.229,446.102,455.11z"/>
	<path display="inline" fill="#1D3541" d="M471.638,450.603c-0.518,0.666-1.302,1.676-2.087,2.686
		c-0.516-4.558-6.634-0.212-6.956-4.22c-0.135-1.687,1.955-2.906,4.194-2.643C469.233,446.713,471.303,447.312,471.638,450.603z"/>
	<path display="inline" fill="#1D3541" d="M504.738,450.397c-0.606,0.856-1.367,1.931-2.128,3.007
		c-0.044-3.929-5.492-0.959-5.542-4.21c-0.018-1.185,1.93-2.4,2.981-3.601C501.562,447.176,504.568,447.191,504.738,450.397z"/>
	<path display="inline" fill="#CD5740" d="M486.893,451.817c1.274-0.123,3.022,0.891,3.601-1.007
		c0.553-1.809,1.246-3.065,3.317-2.259c0.471,0.183,0.95,1.117,0.918,1.677c-0.101,1.776-1.007,3.206-2.887,3.376
		c-1.946,0.176-4.186,1.342-5.693-1.056C486.409,452.317,486.657,452.073,486.893,451.817z"/>
	<path display="inline" fill="#63C3EC" d="M529.933,443.907c-0.267,0.294-0.702,0.88-0.777,0.837
		c-0.964-0.551-1.877-1.192-2.803-1.81c0.445-0.1,0.911-0.338,1.33-0.273C528.555,442.798,529.604,442.74,529.933,443.907z"/>
	<path display="inline" fill="#63C3EC" d="M354.63,446.841c0.58,0.919,1.16,1.432,1.156,1.94c-0.005,0.535-0.569,1.065-0.888,1.597
		c-0.383-0.457-1.011-0.88-1.081-1.382C353.744,448.475,354.209,447.878,354.63,446.841z"/>
	<polygon display="inline" fill="#1D3541" points="293.718,445.378 293.281,445.401 293.461,445.012 	"/>
	<path display="inline" fill="#1D3541" d="M512.095,448.152c-0.331-0.247-0.804-0.6-1.278-0.952c0.585-0.23,1.167-0.633,1.755-0.64
		c0.591-0.008,1.714,0.436,1.698,0.582C514.143,448.297,513.12,448.01,512.095,448.152z"/>
	<path display="inline" fill="#1D3541" d="M525.4,447.926c-0.166-0.065-1.135-0.157-1.294-0.565
		c-0.304-0.776,0.376-1.081,1.139-0.908c0.643,0.145,1.696,0.173,1.831,0.53C527.382,447.793,526.568,447.912,525.4,447.926z"/>
	<path display="inline" fill="#1D3541" d="M273.518,451.111c-0.285,0.618-0.473,1.025-0.661,1.432
		c-0.41-0.669-0.876-1.313-1.183-2.027c-0.062-0.145,0.479-0.549,0.742-0.834C272.8,450.18,273.183,450.677,273.518,451.111z"/>
	<path display="inline" fill="#1D3541" d="M270.441,448.798c-0.375,0.219-0.723,0.568-1.094,0.596
		c-0.356,0.027-1.014-0.225-1.058-0.448c-0.157-0.802,0.413-1.025,1.079-0.824C269.752,448.237,270.074,448.558,270.441,448.798z"/>
	<path display="inline" fill="#CD5740" d="M486.149,452.548c-0.688-0.277-1.213-0.846-0.614-1.419
		c0.64-0.612,1.086,0.077,1.358,0.69C486.657,452.073,486.409,452.317,486.149,452.548z"/>
	<path display="inline" fill="#63C3EC" d="M172.675,53.915c-7.657,3.004-15.478,5.657-22.92,9.123
		c-5.98,2.785-9.393,1.883-10.569-4.862c0.303-1.404,0.607-2.807,0.911-4.21c7.117-0.166,12.794-4.662,19.409-6.494
		C167.508,45.254,169.21,45.592,172.675,53.915z"/>
	<path display="inline" fill="#E86449" d="M599.211,70.852c5.381-5.744,12.438-9.207,18.885-13.407
		c16.003-10.426,32.372-20.288,48.565-30.424c1.389-0.87,3.018-2.749,4.253-1.139c1.765,2.301-1.004,3.01-2.436,3.925
		c-20.332,12.997-40.644,26.026-61.076,38.863c-2.321,1.458-5.194,2.366-8.152,2.221C599.251,70.892,599.211,70.852,599.211,70.852z
		"/>
	<path display="inline" fill="#E86449" d="M560.627,98.052c-1.949,0.067-3.898,0.134-5.848,0.202
		c4.296-5.094,10.653-7.279,15.992-10.823c9.115-6.049,17.992-12.731,28.439-16.58c0,0,0.039,0.04,0.04,0.04
		c-5.423,8.138-14.694,11.203-22.271,16.402C571.63,90.964,566.248,94.726,560.627,98.052z"/>
	<path display="inline" fill="#E86449" d="M124.855,46.606c-6.112-3.218-13.709-4.203-17.169-11.411l0.081-0.081
		c6.049,3.31,13.876,3.96,17.131,11.45L124.855,46.606z"/>
	<path display="inline" fill="#E86449" d="M136.275,53.764c-1.323-0.222-2.808-0.217-3.184-1.924
		c-0.042-0.189,0.52-0.717,0.83-0.743c1.836-0.152,2.213,1.158,2.426,2.585C136.347,53.682,136.275,53.764,136.275,53.764z"/>
	<path display="inline" fill="#E86449" d="M140.096,53.966c-0.304,1.403-0.607,2.806-0.911,4.21
		c-0.481-0.131-0.963-0.264-1.444-0.397c-0.488-1.339-0.977-2.677-1.466-4.015c0,0,0.071-0.081,0.071-0.082
		C137.597,53.776,138.847,53.871,140.096,53.966z"/>
	<path display="inline" fill="#E86449" d="M126.324,47.981c1.034,0.206,2.068,0.412,3.102,0.619
		c-0.121,0.185-0.204,0.483-0.368,0.537c-1.218,0.403-2.107-0.103-2.785-1.104C126.274,48.032,126.324,47.981,126.324,47.981z"/>
	<path display="inline" fill="#E86449" d="M124.898,46.563c0.475,0.473,0.951,0.945,1.426,1.418c0,0-0.05,0.051-0.051,0.051
		c-0.473-0.475-0.946-0.951-1.418-1.426L124.898,46.563z"/>
	<path display="inline" fill="#63C3EC" d="M481.348,116.665c49.521,0,99.042,0.1,148.562-0.135c5.826-0.028,7.588,1.299,7.56,7.377
		c-0.25,54.046-0.256,108.094,0.002,162.14c0.03,6.264-1.54,7.945-7.863,7.921c-63.088-0.241-126.177-0.171-189.265-0.128
		c-33.568,0.023-67.136,0.057-100.702,0.358c-5.494,0.049-7.38-1.341-7.29-7.144c0.311-19.978,0.034-39.964-0.036-59.947
		c-0.004-1.166,0.181-3.179-0.297-3.372c-9.738-3.931-5.482-12.427-5.569-18.793c-0.372-27.106,0.218-54.225,0.06-81.336
		c-0.032-5.516,1.39-7.089,6.984-7.064C382.777,116.756,432.063,116.665,481.348,116.665z"/>
	<path display="inline" fill="#63C3EC" d="M227.814,285.221c-0.001-16.168,0.264-32.342-0.157-48.499
		c-0.132-5.048,1.894-6.158,6.048-6.144c28.462,0.093,56.925,0.231,85.387,0.172c3.662-0.008,4.183,1.354,4.17,4.598
		c-0.129,32.81-0.183,65.622-0.009,98.431c0.025,4.786-1.551,5.965-6.138,5.935c-27.817-0.187-55.636-0.193-83.452,0.025
		c-4.734,0.037-6.021-1.404-5.948-6.023C227.971,317.554,227.815,301.386,227.814,285.221z"/>
	<path display="inline" fill="#CD5740" d="M224.732,199.553c0-1.488-0.001-2.977,0-4.465c0.029-3.319,0.01-6.64,0.099-9.958
		c0.067-2.5,1.77-3.08,3.888-3.061c2.181,0.02,4.47-0.076,4.702,2.962c0.126,1.652,0.214,3.326,0.097,4.975
		c-0.292,4.133-0.084,6.154,5.62,5.296c11.612-1.747,18.685,5.288,18.701,17.066c0.004,2.844-0.098,5.689-0.151,8.533
		c-2.799,0.019-5.598,0.039-8.398,0.058c-0.034-4.522,0.051-9.048-0.128-13.564c-0.231-5.833-4.221-6.51-8.969-6.602
		c-4.786-0.093-7.101,1.569-6.842,6.624c0.231,4.508-0.005,9.04-0.035,13.562c-2.818-0.024-5.637-0.048-8.455-0.073
		C224.818,213.788,224.775,206.671,224.732,199.553z"/>
	<path display="inline" fill="#CD5740" d="M217.794,226.505c-6.556,6.931-14.717,6.553-23.071,4.936
		c-2.026-0.392-4.559-0.997-3.897-3.99c0.662-2.995,3.288-2.534,5.217-1.962c4.98,1.478,9.688,1.771,14.422-0.907
		c3.787-2.143,3.364-3.731,0.117-6.099c-3.505-2.556-7.658-2.193-11.475-3.183c-4.995-1.295-8.391-3.842-8.318-9.092
		c0.074-5.341,3.189-8.498,8.586-9.715c5.162-1.164,10.173-2.132,15.336-0.121c1.692,0.659,3.093,1.301,2.82,3.42
		c-0.349,2.714-2.455,2.727-4.309,2.368c-3.938-0.762-7.787-2.229-11.805-0.317c-1.451,0.691-3.318,0.729-3.569,2.91
		c-0.229,1.989,1.077,2.864,2.387,3.985c2.163,1.851,4.639,1.96,7.27,2.274c8.197,0.981,11.049,3.899,11.71,11.374
		C218.741,223.759,218.268,225.132,217.794,226.505z"/>
	<path display="inline" fill="#FBD156" d="M257.688,220.9c0.053-2.844,0.155-5.689,0.151-8.533
		c-0.017-11.778-7.089-18.813-18.701-17.066c-5.704,0.858-5.912-1.164-5.62-5.296c0.117-1.648,0.029-3.322-0.097-4.975
		c-0.232-3.038-2.521-2.942-4.702-2.962c-2.118-0.019-3.822,0.561-3.888,3.061c-0.088,3.318-0.07,6.639-0.099,9.958
		c-2.641-3.926-1.201-8.302-1.1-12.428c0.111-4.543,4.077-2.819,6.596-3.055c3.105-0.291,6.373,0.475,5.829,4.305
		c-1.137,8,2.975,8.666,9.453,8.719c6.417,0.052,11.081,4.343,14.551,9.852c1.311-10.283,2.285-11.185,10.231-10.04
		c2.706,0.39,4.305,1.066,3.767,4.497c-1.255,8.004-0.652,16.088-0.299,24.145c-0.568-0.066-1.139-0.133-1.71-0.199
		c0.013-7.084,0.042-14.168,0.03-21.252c-0.005-3.271-1.84-4.555-4.961-4.608c-3.328-0.057-3.825,1.967-3.796,4.621
		c0.078,7.083,0.1,14.166,0.144,21.249C261.541,220.895,259.614,220.898,257.688,220.9z"/>
	<path display="inline" fill="#E86449" d="M233.316,220.979c0.03-4.522,0.266-9.054,0.035-13.562
		c-0.259-5.055,2.056-6.717,6.842-6.624c4.748,0.092,8.738,0.769,8.969,6.602c0.179,4.516,0.094,9.042,0.128,13.564
		C243.966,220.965,238.641,220.972,233.316,220.979z"/>
	<path display="inline" fill="#FBD156" d="M284.93,220.975c0.011-7.592,0.208-15.19-0.041-22.774
		c-0.139-4.234,1.156-6.116,5.618-5.838c4.25,0.265,8.534-0.012,12.803-0.051c-0.115,0.868-0.23,1.737-0.345,2.606
		c-3.628,2.469-3.66,4.936,0,7.403c0.072,0.748,0.145,1.496,0.213,2.239c-3.539-1.391-5.521-0.516-5.427,3.61
		c0.098,4.283,0.104,8.567,0.151,12.851c-1.002-0.045-2.004-0.09-3.006-0.134c0.012-7.075,0.051-14.149,0.023-21.224
		c-0.011-2.743-1.242-4.542-4.22-4.524c-3.102,0.019-3.091,2.331-3.087,4.5c0.014,7.074,0.074,14.149,0.116,21.223
		C286.796,220.9,285.863,220.938,284.93,220.975z"/>
	<path display="inline" fill="#CD5740" d="M263.467,220.893c-0.044-7.083-0.066-14.167-0.144-21.249
		c-0.029-2.654,0.468-4.678,3.796-4.621c3.122,0.054,4.956,1.338,4.961,4.608c0.012,7.084-0.018,14.168-0.03,21.252
		C269.189,220.886,266.328,220.89,263.467,220.893z"/>
	<path display="inline" fill="#CD5740" d="M287.729,220.863c-0.042-7.074-0.102-14.149-0.116-21.223
		c-0.004-2.169-0.016-4.481,3.087-4.5c2.978-0.018,4.21,1.781,4.22,4.524c0.028,7.074-0.011,14.149-0.023,21.224
		C292.508,220.879,290.118,220.871,287.729,220.863z"/>
	<path display="inline" fill="#E86449" d="M297.903,221.022c-0.046-4.284-0.053-8.569-0.151-12.851
		c-0.094-4.126,1.888-5.002,5.427-3.61c1.218,3.855,0.191,7.817,0.586,11.699C304.245,220.972,301.813,221.845,297.903,221.022z"/>
	<path display="inline" fill="#FBD156" d="M224.732,199.553c0.043,7.118,0.086,14.236,0.129,21.354
		c-0.444,0.032-0.887,0.064-1.331,0.097C224.067,213.861,221.934,206.569,224.732,199.553z"/>
	<path display="inline" fill="#E86449" d="M302.966,202.322c-3.66-2.467-3.628-4.935,0-7.403
		C302.966,197.385,302.966,199.853,302.966,202.322z"/>
	<path display="inline" fill="#CD5740" d="M222.204,221.785c0.42-0.164,0.84-0.328,1.259-0.49
		C223.042,221.461,222.623,221.623,222.204,221.785z"/>
	<path display="inline" fill="#E86449" d="M61.901,95.012c0.143-4.133,2.122-7.097,6.4-6.709c3.872,0.351,8.127,1.111,8.119,6.85
		c-0.007,5.743-4.246,6.627-8.12,6.715C64.463,101.954,61.668,99.54,61.901,95.012z"/>
</g>
</svg>
