<?xml version="1.0" encoding="utf-8"?>
<!-- Generator: Adobe Illustrator 17.0.0, SVG Export Plug-In . SVG Version: 6.00 Build 0)  -->
<!DOCTYPE svg PUBLIC "-//W3C//DTD SVG 1.1//EN" "http://www.w3.org/Graphics/SVG/1.1/DTD/svg11.dtd">
<svg version="1.1" id="Layer_1" xmlns="http://www.w3.org/2000/svg" xmlns:xlink="http://www.w3.org/1999/xlink" x="0px" y="0px"
	 width="200px" height="200px" viewBox="0 0 200 200" enable-background="new 0 0 200 200" xml:space="preserve">
<path fill="none" stroke="#FFFFFF" stroke-width="16" stroke-miterlimit="10" d="M184,175.927c0,5.563-4.51,10.073-10.073,10.073
	H26.073C20.51,186,16,181.49,16,175.927V28.073C16,22.51,20.51,18,26.073,18h147.853C179.49,18,184,22.51,184,28.073V175.927z"/>
<g enable-background="new    ">
	<path fill="#FFFFFF" d="M39.748,55.833c7.844-1.184,17.167-2.072,27.379-2.072c18.5,0,31.671,4.292,40.403,12.432
		c8.88,8.14,14.06,19.683,14.06,35.814c0,16.279-5.032,29.599-14.355,38.774c-9.324,9.324-24.715,14.355-44.103,14.355
		c-9.176,0-16.872-0.443-23.383-1.184V55.833z M52.623,144.038c3.256,0.592,7.992,0.74,13.024,0.74
		c27.527,0,42.474-15.392,42.474-42.326c0.148-23.531-13.171-38.479-40.402-38.479c-6.66,0-11.692,0.593-15.096,1.332V144.038z"/>
	<path fill="#FFFFFF" d="M127.869,104.968c0-8.436-0.147-15.688-0.592-22.348h11.396l0.444,14.06h0.592
		c3.256-9.619,11.1-15.688,19.831-15.688c1.48,0,2.517,0.148,3.7,0.444V93.72c-1.332-0.296-2.664-0.443-4.439-0.443
		c-9.176,0-15.688,6.955-17.464,16.723c-0.296,1.776-0.592,3.849-0.592,6.068v38.183h-12.876V104.968z"/>
</g>
</svg>
