<?xml version="1.0" encoding="utf-8"?>
<!-- Generator: Adobe Illustrator 17.0.0, SVG Export Plug-In . SVG Version: 6.00 Build 0)  -->
<!DOCTYPE svg PUBLIC "-//W3C//DTD SVG 1.1//EN" "http://www.w3.org/Graphics/SVG/1.1/DTD/svg11.dtd">
<svg version="1.1" id="Layer_1" xmlns="http://www.w3.org/2000/svg" xmlns:xlink="http://www.w3.org/1999/xlink" x="0px" y="0px"
	 width="243px" height="179px" viewBox="0 0 243 179" enable-background="new 0 0 243 179" xml:space="preserve">
<g id="Layer_2">
	<rect x="-43.5" y="795.5" fill="#16A085" stroke="#000000" stroke-miterlimit="10" width="1276" height="170"/>
</g>
<g>
	<path fill="#FFFFFF" d="M38.159,66.956c4.58,0,9.161-0.066,13.74,0.034c1.684,0.037,2.471-0.491,2.965-2.251
		c1.275-4.543,2.807-9.009,4.814-13.634c0.451,1.368,0.898,2.738,1.354,4.103c1.066,3.19,2.22,6.353,3.174,9.579
		c0.501,1.695,1.358,2.234,3.047,2.196c5.029-0.112,10.061-0.04,15.656-0.04c-0.807,0.797-1.219,1.295-1.713,1.679
		c-3.595,2.805-7.149,5.672-10.839,8.339c-1.489,1.077-1.816,2.037-1.208,3.827c1.668,4.904,3.128,9.884,4.657,14.838
		c0.177,0.575,0.269,1.178,0.519,2.3c-5.186-4.22-9.963-8.108-14.911-12.135c-4.513,3.503-9.003,6.987-13.492,10.471
		c-0.155-0.09-0.31-0.181-0.466-0.271c0.37-1.245,0.734-2.492,1.11-3.734c0.951-3.136,1.897-6.274,2.863-9.405
		c1.466-4.762,1.473-4.76-2.369-7.886c-3.037-2.47-6.072-4.941-9.108-7.413C38.021,67.355,38.09,67.156,38.159,66.956z"/>
	<path fill="#FFFFFF" d="M120.795,30.651c0.001,4.515,0.001,4.515,3.91,7.743c-4.768-1.278-5.778,1.343-6.35,4.747
		c-0.608-1.489-1.216-2.977-1.895-4.638c-1.4,0-2.859,0-5.247,0c3.118-1.994,5.197-3.844,3.12-7.237
		c1.032,0.603,2.065,1.206,3.138,1.831C118.566,32.291,119.618,31.517,120.795,30.651z"/>
	<path fill="#FFFFFF" d="M139.103,52.391c1.24,3.361,3.14,4.683,6.635,3.083c-2.577,2.606-3.546,5.136-1.026,8.09
		c-1.254-0.539-2.507-1.079-3.903-1.679c-0.999,1.169-1.974,2.312-3.458,4.05c0.385-3.694,0.874-7.077-3.943-7.653
		C137.221,57.951,139.251,56.433,139.103,52.391z"/>
	<path fill="#FFFFFF" d="M111.867,108.785c2.957,1.301,5.697,2.626,7.874-1.59c-1.563,4.209,0.928,5.25,3.763,6.409
		c-4.012,0.298-5.256,2.59-4.754,6.605c-1.564-4.147-4.28-4.076-7.648-2.738C114.673,114.808,114.265,111.99,111.867,108.785z"/>
	<path fill="#FFFFFF" d="M146.978,89.048c-3.76,1.572-3.618,4.224-2.58,7.569c-2.468-2.852-4.859-3.581-7.67-0.805
		c0.534-1.399,1.07-2.798,1.632-4.27c-1.21-1.196-2.397-2.369-4.049-4.001c3.223,0.244,6.451,1.561,7.272-3.324
		C141.842,87.929,143.498,89.397,146.978,89.048z"/>
	
		<line fill="none" stroke="#FFFFFF" stroke-width="5" stroke-linecap="round" stroke-linejoin="round" stroke-miterlimit="10" x1="28.127" y1="21.536" x2="217.311" y2="21.375"/>
	
		<line fill="none" stroke="#FFFFFF" stroke-width="5" stroke-linecap="round" stroke-linejoin="round" stroke-miterlimit="10" x1="217.938" y1="22.614" x2="217.311" y2="155.97"/>
	
		<line fill="none" stroke="#FFFFFF" stroke-width="5" stroke-linecap="round" stroke-linejoin="round" stroke-miterlimit="10" x1="217.555" y1="155.814" x2="28.021" y2="155.814"/>
	
		<line fill="none" stroke="#FFFFFF" stroke-width="5" stroke-linecap="round" stroke-linejoin="round" stroke-miterlimit="10" x1="27.5" y1="155.276" x2="27.5" y2="22.047"/>
</g>
</svg>
