<?xml version="1.0" encoding="utf-8"?>
<!-- Generator: Adobe Illustrator 17.0.0, SVG Export Plug-In . SVG Version: 6.00 Build 0)  -->
<!DOCTYPE svg PUBLIC "-//W3C//DTD SVG 1.1//EN" "http://www.w3.org/Graphics/SVG/1.1/DTD/svg11.dtd">
<svg version="1.1" id="Layer_1" xmlns="http://www.w3.org/2000/svg" xmlns:xlink="http://www.w3.org/1999/xlink" x="0px" y="0px"
	 width="243px" height="179px" viewBox="0 0 243 179" enable-background="new 0 0 243 179" xml:space="preserve">
<g id="Layer_2">
	<rect x="-43.5" y="795.5" fill="#16A085" stroke="#000000" stroke-miterlimit="10" width="1276" height="170"/>
</g>
<line fill="none" stroke="#FFFFFF" stroke-width="5" stroke-linecap="round" stroke-linejoin="round" stroke-miterlimit="10" x1="25.125" y1="21.536" x2="213.875" y2="21.375"/>
<line fill="none" stroke="#FFFFFF" stroke-width="5" stroke-linecap="round" stroke-linejoin="round" stroke-miterlimit="10" x1="214.5" y1="22.609" x2="213.875" y2="155.5"/>
<line fill="none" stroke="#FFFFFF" stroke-width="5" stroke-linecap="round" stroke-linejoin="round" stroke-miterlimit="10" x1="214" y1="155.5" x2="25" y2="155.5"/>
<line fill="none" stroke="#FFFFFF" stroke-width="5" stroke-linecap="round" stroke-linejoin="round" stroke-miterlimit="10" x1="24.5" y1="155" x2="24.5" y2="22"/>
<path fill="#FFFFFF" d="M212.066,34.123h-93.658v9.712h94.159C212.201,40.61,211.962,37.379,212.066,34.123z"/>
<path fill="#FFFFFF" d="M212.954,73.573h-94.568v9.78h94.21C212.576,80.078,212.611,76.839,212.954,73.573z"/>
<path fill="#FFFFFF" d="M212.208,103.195v-8.022c0-0.615,0.115-1.201,0.277-1.768c-34.211,0.001-68.421,0.001-102.632,0.006
	c-27.548,0.004-55.097,0.024-82.645,0.036v9.786c12.879-0.011,25.759-0.029,38.638-0.03
	C114.634,103.198,163.421,103.197,212.208,103.195z"/>
<path fill="#FFFFFF" d="M212.625,122.915v-8.849c0-0.293,0.048-0.574,0.086-0.858c-61.03-0.002-122.06-0.004-183.09,0
	c-0.804,0-1.609,0.105-2.413,0.161v9.436c0.646,0.037,1.292,0.106,1.938,0.106C90.306,122.915,151.466,122.915,212.625,122.915z"/>
<path fill="#FFFFFF" d="M213.034,142.655c-0.019-2.809-0.096-5.614-0.409-8.409c-0.05-0.444-0.035-0.878,0.033-1.299
	c-61.816-0.001-123.633-0.003-185.45-0.006v9.786c0.648-0.023,1.296-0.066,1.944-0.066
	C90.446,142.657,151.74,142.656,213.034,142.655z"/>
<path fill="#FFFFFF" d="M213.875,152.512H27.208c0.487,0.117,0.974,0.335,1.461,0.335c61.735,0.012,123.47,0.012,185.205,0.012
	L213.875,152.512L213.875,152.512z"/>
<path fill="#FFFFFF" d="M214.292,56.1c0.006-0.065,0.025-0.125,0.032-0.19c-0.211-0.621-0.367-1.276-0.449-1.957
	c-0.005-0.045-0.012-0.09-0.017-0.135h-95.565c0,3.047-0.034,5.889,0.046,8.728c0.009,0.333,0.604,0.811,1.001,0.926
	c0.555,0.161,1.181,0.046,1.776,0.046c30.932-0.006,61.863-0.011,92.795-0.017C213.951,61.032,214.046,58.564,214.292,56.1z"/>
<path fill="#FFFFFF" d="M92.95,85.645c0.979-0.662,1.88-1.271,2.769-1.873c0.209,1.038,1.089,1.762,3.01,1.25
	c-1.24,1.287-2.653,2.13-1.239,4.005c-1.365-1.119-2.482-1.365-3.738,0.041C94.681,87.296,93.893,86.205,92.95,85.645z"/>
<path fill="#FFFFFF" d="M82.197,89.022c-1.248-1.233-2.363-1.241-3.579,0.043c0.68-1.633,0.378-2.835-1.101-3.738
	c1.455,0.028,2.563-0.279,2.85-2.095c0.387,1.744,1.46,2.175,2.974,2.081C81.95,86.217,81.366,87.311,82.197,89.022z"/>
<path fill="#FFFFFF" d="M112.575,88.976c-1.332-1.21-2.429-1.255-3.636,0.103c0.627-1.634,0.468-2.866-1.176-3.69
	c1.505-0.02,2.667-0.395,2.952-2.253c0.28,1.86,1.36,2.263,3.158,1.985C112.624,86.309,111.311,87.111,112.575,88.976z"/>
<path fill="#FFFFFF" d="M63.921,88.638c-0.319-1.041-0.666-2.177-1.041-3.401c0.152-0.017,0.868,0.112,1.31-0.203
	c0.467-0.333,0.674-1.089,1.096-1.841c0.299,1.647,1.232,2.304,3.136,1.878c-1.232,1.226-2.61,2.011-1.28,3.841
	C65.799,87.94,64.648,87.621,63.921,88.638z"/>
<path fill="#FFFFFF" d="M47.087,85.337c1.64,0.083,2.718-0.34,3.025-2.173c0.247,1.892,1.304,2.256,3.239,1.867
	c-1.436,1.218-2.438,2.201-1.473,3.928c-1.173-0.889-2.242-1.443-3.424,0.004C48.888,87.359,48.71,86.102,47.087,85.337z"/>
<path fill="#FFFFFF" d="M36.721,88.962c-1.194-1.012-2.262-1.431-3.447,0.014c0.477-1.555,0.344-2.768-1.158-3.54
	c1.361-0.185,2.645-0.298,2.741-2.315c0.363,1.755,1.318,2.371,2.922,2.129C36.697,86.259,35.718,87.235,36.721,88.962z"/>
<path fill="#FFFFFF" d="M55.887,67.963c0.153-0.598,0.306-1.195,0.472-1.843c-0.523-0.478-1.04-0.951-1.822-1.667
	c1.661,0.139,2.848-0.126,3.098-2.026c0.461,1.576,1.221,2.51,2.957,2.052c-1.277,1.01-2.267,1.914-1.008,3.717
	C58.265,67.284,57.151,66.706,55.887,67.963z"/>
<path fill="#FFFFFF" d="M95.454,55.017c0.584,1.757,0.973,3.11,3.17,2.374c-1.334,1.265-2.288,2.198-1.208,3.811
	c-1.286-0.764-2.411-1.586-3.517,0.214c0.179-1.527,0.653-2.921-1.23-3.595C94.362,57.852,95.289,57.168,95.454,55.017z"/>
<path fill="#FFFFFF" d="M112.423,47.443c-1.22-1.408-2.274-1.101-3.451,0.041c0.556-1.606,0.484-2.878-1.206-3.626
	c1.359-0.169,2.732-0.128,2.849-2.195c0.477,1.638,1.379,2.332,2.996,2.049C112.343,44.671,111.667,45.74,112.423,47.443z"/>
<path fill="#FFFFFF" d="M104.79,67.656c-1.109,0-2.215,0-3.281,0c0.559-1.109,0.197-2.233-1.729-3.089
	c1.822-0.151,3.351-0.053,3.206-2.408c0.527,1.702,1.211,2.815,3.089,2.301C104.755,65.464,104.062,66.477,104.79,67.656z"/>
<path fill="#FFFFFF" d="M72.777,62.285c0.296,2.015,1.459,2.324,2.948,2.295c-1.336,0.883-1.913,1.949-1.143,3.601
	c-1.213-1.002-2.324-1.526-3.478,0.166c0.541-1.684,0.365-2.904-1.18-3.711C71.312,64.475,72.754,64.532,72.777,62.285z"/>
<path fill="#FFFFFF" d="M65.229,41.632c0.296,1.805,1.276,2.289,2.878,2.096c-1.211,0.966-1.955,2.011-1.077,3.685
	c-1.215-1.068-2.319-1.349-3.512,0.079c0.638-1.672,0.34-2.87-1.223-3.671C63.741,43.759,65.026,43.661,65.229,41.632z"/>
<path fill="#FFFFFF" d="M77.443,43.863c1.472-0.169,2.819-0.126,2.837-2.278c0.46,1.802,1.46,2.356,3.417,1.926
	c-1.413,1.229-2.775,2.045-1.388,3.951c-1.35-1.232-2.468-1.202-3.668-0.049C79.21,45.842,79.225,44.577,77.443,43.863z"/>
<path fill="#FFFFFF" d="M62.462,57.752c1.691,0.257,2.374-0.679,2.708-2.672c0.532,1.779,0.996,3.061,2.786,2.545
	c-1.152,0.979-1.717,2.052-0.91,3.601c-1.206-0.746-2.318-1.755-3.487,0.184C63.984,59.804,64.057,58.557,62.462,57.752z"/>
<path fill="#FFFFFF" d="M85.103,64.635c1.43-0.049,2.58-0.283,2.785-2.187c0.567,1.479,1.238,2.608,3.05,1.934
	c-1.249,1.045-2.097,2.048-1.167,3.799c-1.238-1.039-2.348-1.283-3.517,0.065C86.781,66.672,86.704,65.436,85.103,64.635z"/>
<path fill="#FFFFFF" d="M108.311,58.045c0.844-0.688,1.691-1.379,2.562-2.089c0.256,0.996,0.889,2.105,2.638,1.683
	c-1.282,0.951-1.728,2.064-1.021,3.634c-1.206-0.921-2.312-1.651-3.515,0.147C109.65,59.716,109.259,58.585,108.311,58.045z"/>
<path fill="#FFFFFF" d="M78.638,61.367c0.752-1.696,0.305-2.754-0.982-3.677c1.679,0.272,2.383-0.626,2.7-2.22
	c0.473,1.469,1.096,2.592,2.856,2.19c-1.199,0.919-1.864,1.903-1.051,3.499C80.931,60.352,79.799,59.701,78.638,61.367z"/>
<path fill="#FFFFFF" d="M95.416,42.16c0.787,0.601,1.662,1.27,2.602,1.988c-0.65,0.589-1.683,1.519-0.281,3.506
	c-1.577-0.944-2.724-2.015-3.854-0.068c0.398-1.698,0.433-3.041-1.387-3.737C94.111,43.817,95.365,43.582,95.416,42.16z"/>
<path fill="#FFFFFF" d="M95.395,28.256c0.773,0.655,1.612,1.366,2.545,2.157c-0.445,0.549-1.824,1.328-0.769,3.025
	c-0.537-0.286-1.073-0.791-1.613-0.795c-0.513-0.004-1.03,0.515-1.772,0.932c0.556-1.54,0.377-2.752-1.066-3.583
	C94.41,30.248,95.255,29.461,95.395,28.256z"/>
<path fill="#FFFFFF" d="M44.289,68.178c-1.227-0.995-2.336-1.464-3.545,0.093c0.675-1.724,0.548-2.929-1.207-3.62
	c1.471-0.13,2.716-0.222,2.867-2.183c0.481,1.673,1.446,2.296,3.031,2.03C44.183,65.419,43.369,66.431,44.289,68.178z"/>
<path fill="#FFFFFF" d="M89.762,54.301c-1.172-0.877-2.229-1.414-3.405,0.067c0.263-1.476,0.469-2.825-1.232-3.463
	c1.353-0.209,2.722-0.232,2.759-2.369c0.481,1.717,1.286,2.567,2.984,2.228C89.305,51.643,89.019,52.726,89.762,54.301z"/>
<path fill="#FFFFFF" d="M100.298,50.806c1.733,0.245,2.48-0.667,2.789-2.762c0.514,1.944,1.035,3.223,2.98,2.647
	c-1.509,0.953-1.857,2.083-1.161,3.682c-1.23-1.196-2.348-1.226-3.54,0.042C101.844,52.916,101.966,51.627,100.298,50.806z"/>
<path fill="#FFFFFF" d="M47.254,57.807c1.628-0.003,2.64-0.49,2.731-2.358c0.556,1.447,1.05,2.667,3.208,1.945
	c-1.353,1.258-2.406,2.132-1.243,3.776c-1.292-0.742-2.422-1.554-3.524,0.22C48.685,59.847,49.065,58.503,47.254,57.807z"/>
<path fill="#FFFFFF" d="M93.854,75.128c0.61-1.587,0.247-2.688-1.567-3.656c1.925,0.063,3.184-0.15,3.131-2.27
	c0.661,1.362,0.904,2.939,2.878,2.15c-0.939,1.178-2.102,2.09-0.856,3.787C96.139,74.194,95.059,73.722,93.854,75.128z"/>
<path fill="#FFFFFF" d="M113.514,71.59c-1.545,0.85-1.619,2.025-1.003,3.532c-1.225-1.034-2.343-1.269-3.536,0.079
	c0.502-1.513,0.519-2.768-1.04-3.603c1.51,0.047,2.48-0.478,2.713-2.23C111.107,70.915,111.866,71.827,113.514,71.59z"/>
<path fill="#FFFFFF" d="M79.082,33.339c-0.325-1.145-0.637-2.246-0.948-3.344c0.996,0.141,1.997-0.341,2.187-2.145
	c0.495,1.455,1.19,2.471,2.876,2.159c-1.508,0.865-1.636,2.08-1.05,3.614C80.976,32.488,79.907,32.228,79.082,33.339z"/>
<path fill="#FFFFFF" d="M52.63,44.166c-1.2,0.526-1.478,1.639-0.774,3.214c-1.2-0.98-2.314-1.286-3.469,0.065
	c0.422-1.536,0.538-2.867-1.264-3.589c1.556-0.035,2.742-0.285,2.83-1.606C50.785,42.845,51.682,43.487,52.63,44.166z"/>
<path fill="#FFFFFF" d="M107.964,30.015c1.636,0.253,2.359-0.554,2.68-2.166c0.471,1.484,1.196,2.453,2.853,2.135
	c-1.215,0.933-1.839,1.934-0.969,3.521c-1.22-0.852-2.348-1.372-3.505,0.153C109.442,32.148,109.538,30.86,107.964,30.015z"/>
<path fill="#FFFFFF" d="M48.371,75.078c0.767-1.657,0.125-2.653-1.09-3.544c1.545,0.159,2.512-0.374,2.738-2.158
	c0.484,1.457,1.153,2.488,2.833,2.174c-1.331,0.879-1.693,1.978-1.029,3.52C50.635,74.101,49.553,73.831,48.371,75.078z"/>
<path fill="#FFFFFF" d="M82.044,74.615c-1.097,0-2.171,0-3.276,0c0.292-0.898,0.444-2.206-1.155-3.006
	c1.514,0.058,2.496-0.464,2.733-2.205c0.521,1.362,1.076,2.537,2.806,2.057C82.026,72.465,81.299,73.487,82.044,74.615z"/>
<path fill="#FFFFFF" d="M54.962,36.929c1.747,0.341,2.284-0.727,2.626-2.367c0.601,1.433,0.901,2.974,2.835,2.226
	c-1.107,1.096-2.056,2.047-0.862,3.742c-1.349-1.191-2.458-1.328-3.637,0.036C56.47,39.062,56.473,37.824,54.962,36.929z"/>
<path fill="#FFFFFF" d="M66.97,33.559c-1.184-1.155-2.206-1.274-3.524,0.396c0.408-1.821,0.785-3.226-1.081-3.885
	c1.678,0.131,2.528-0.556,2.837-2.203c0.476,1.419,1.047,2.542,2.769,2.055C66.845,30.907,66.154,31.941,66.97,33.559z"/>
<path fill="#FFFFFF" d="M51.796,33.496c-1.173-1.024-2.249-1.161-3.39,0.033c0.44-1.436,0.425-2.61-1.034-3.422
	c1.573,0.064,2.443-0.682,2.553-1.802c0.794,0.653,1.648,1.355,2.494,2.051C51.531,30.88,51.082,31.942,51.796,33.496z"/>
<path fill="#FFFFFF" d="M37.699,29.95c-1.565,0.951-1.576,2.159-1.051,3.639c-1.146-1.226-2.22-1.257-3.406-0.053
	c0.488-1.464,0.45-2.661-1.029-3.478c1.505,0.046,2.517-0.428,2.601-2.262C35.45,29.109,35.755,30.65,37.699,29.95z"/>
<path fill="#FFFFFF" d="M37.775,43.752c-1.068,0.975-2.219,1.742-0.995,3.563c-1.327-1.048-2.434-1.086-3.589,0.077
	c0.652-1.592,0.459-2.787-0.709-3.238c0.882-0.673,1.749-1.335,2.598-1.983C35.303,43.199,36.099,44.077,37.775,43.752z"/>
<path fill="#FFFFFF" d="M65.285,69.406c0.248,1.795,1.195,2.273,2.724,2.105c-1.193,0.935-1.827,1.979-0.969,3.597
	c-1.239-1.092-2.355-1.233-3.537,0.051c0.524-1.496,0.573-2.722-1.049-3.498C63.951,71.649,64.931,71.06,65.285,69.406z"/>
<path fill="#FFFFFF" d="M32.211,57.729c1.666,0.232,2.364-0.682,2.677-2.708c0.489,1.89,1.019,3.077,2.782,2.614
	c-1,0.972-1.91,1.879-0.991,3.509c-1.229-1.053-2.328-1.049-3.477,0.113C33.773,59.758,33.643,58.592,32.211,57.729z"/>
<path fill="#FFFFFF" d="M104.89,40.422c-1.287-1.313-2.381-1.005-3.65,0.488c0.357-1.698,1.17-3.178-1.393-3.78
	c1.277-0.285,1.993-0.241,2.419-0.598c0.407-0.341,0.514-1.099,0.846-1.897c0.304,0.701,0.424,1.45,0.836,1.799
	c0.446,0.377,1.165,0.38,1.897,0.583C104.884,37.846,103.949,38.751,104.89,40.422z"/>
<path fill="#FFFFFF" d="M74.595,54.348c-1.153-1.016-2.216-1.37-3.6,0.413c0.454-1.864,0.666-3.173-0.973-3.862
	c1.472-0.087,2.581-0.518,2.634-2.824c0.683,1.8,1.051,3.297,3.016,2.571C74.344,51.669,73.832,52.755,74.595,54.348z"/>
<path fill="#FFFFFF" d="M32.232,71.546c1.714,0.307,2.304-0.678,2.611-2.521c0.554,1.648,1.007,2.959,2.807,2.44
	c-1.06,1.004-1.802,2.012-0.975,3.598c-1.178-1.001-2.247-1.271-3.393,0.079C33.614,73.682,33.713,72.395,32.232,71.546z"/>
<path fill="#FFFFFF" d="M90.737,78.441c-1.543,0.956-1.575,2.131-0.618,3.998c-1.518-1.203-2.643-2.056-3.916-0.294
	c0.774-1.721,0.321-2.772-1.001-3.624c1.569,0.182,2.396-0.543,2.656-2.525C88.521,77.564,88.847,79.075,90.737,78.441z"/>
<path fill="#FFFFFF" d="M86.703,40.142c-0.364-1.12-0.703-2.162-1.042-3.208c1.05,0.146,1.974-0.449,2.197-2.599
	c0.632,1.772,1.061,3.134,2.907,2.49c-1.507,0.996-1.608,2.212-0.97,3.734C88.628,39.556,87.533,39.04,86.703,40.142z"/>
<path fill="#FFFFFF" d="M60.433,50.795c-1.399,0.856-1.709,1.943-0.968,3.498c-1.248-1.009-2.398-1.251-3.588,0.098
	c0.648-1.568,0.524-2.751-1.055-3.52c1.411-0.145,2.773-0.216,2.698-2.405C58.112,49.94,58.655,51.167,60.433,50.795z"/>
<path fill="#FFFFFF" d="M100.752,78.9c0.881-0.769,1.716-1.499,2.566-2.242c0.298,0.866,0.704,2.304,2.568,1.766
	c-0.997,0.987-1.937,1.886-0.922,3.501c-1.263-0.726-2.434-1.431-3.583,0.284C101.84,80.647,102.035,79.396,100.752,78.9z"/>
<path fill="#FFFFFF" d="M40.781,82.097c0.82-1.726,0.224-2.682-1.341-3.643c1.77,0.08,2.888-0.244,2.954-2.198
	c0.505,1.612,1.219,2.528,2.853,2.237c-1.327,0.891-1.722,1.971-0.593,3.863C43.137,81.332,42.031,80.224,40.781,82.097z"/>
<path fill="#FFFFFF" d="M60.502,78.419c-1.531,0.931-1.708,2.08-1.086,3.607c-1.23-1.164-2.343-1.176-3.52,0.085
	c0.616-1.536,0.427-2.724-0.553-3.266c0.823-0.705,1.666-1.426,2.533-2.168C58.221,77.452,58.453,79.117,60.502,78.419z"/>
<path fill="#FFFFFF" d="M44.369,54.291c-1.314-0.968-2.394-1.306-3.53,0.076c0.435-1.522,0.456-2.78-1.132-3.512
	c1.36-0.142,2.674-0.163,2.654-2.303c0.558,1.585,1.248,2.56,2.903,2.164C44.277,51.709,43.142,52.559,44.369,54.291z"/>
<path fill="#FFFFFF" d="M70.098,78.543c1.639,0.179,2.368-0.713,2.708-2.759c0.383,2.048,1.112,2.952,2.752,2.724
	c-1.281,0.923-1.682,2.02-0.678,3.79c-0.934-0.615-1.467-0.966-2.05-1.35c-0.532,0.354-1.072,0.713-1.886,1.254
	C71.552,80.625,71.567,79.4,70.098,78.543z"/>
<path fill="#FFFFFF" d="M40.832,40.408c0.576-1.504,0.356-2.578-1.04-3.368c1.467,0.044,2.381-0.559,2.665-2.205
	c0.498,1.392,1.078,2.511,2.763,2.047c-1.042,0.998-2.04,1.929-0.831,3.638C43.119,39.483,42.067,39.02,40.832,40.408z"/>
<path fill="#FFFFFF" d="M74.778,40.729c-0.938-0.658-1.429-1.002-1.951-1.368c-0.557,0.383-1.09,0.749-1.914,1.317
	c0.675-1.613,0.661-2.821-0.786-3.689c1.617,0.171,2.381-0.648,2.614-2.526c0.573,1.581,0.917,3.007,2.827,2.359
	C74.247,37.864,73.917,39.02,74.778,40.729z"/>
</svg>
