<?xml version="1.0" encoding="utf-8"?>
<!-- Generator: Adobe Illustrator 17.0.0, SVG Export Plug-In . SVG Version: 6.00 Build 0)  -->
<!DOCTYPE svg PUBLIC "-//W3C//DTD SVG 1.1//EN" "http://www.w3.org/Graphics/SVG/1.1/DTD/svg11.dtd">
<svg version="1.1" id="Layer_2" xmlns="http://www.w3.org/2000/svg" xmlns:xlink="http://www.w3.org/1999/xlink" x="0px" y="0px"
	 width="250px" height="250px" viewBox="-12.5 -18.896 250 250" enable-background="new -12.5 -18.896 250 250"
	 xml:space="preserve">
<g>
	<g>
		<path fill="#F7F5E7" d="M65.843,98.381l0.172-0.508c-0.041,0.017-0.072,0.041-0.116,0.056c-0.067-0.047-0.123-0.106-0.168-0.175
			v-0.005c0.041-0.117,0.083-0.234,0.123-0.351c0.032-0.109,0.065-0.217,0.097-0.326c0.157-0.924,0.496-1.831,0.267-2.792
			c0.528-1.365,0.442-2.812,0.468-4.22c0.078-4.311,1.476-8.021,4.704-11.014c1.447-1.342,2.824-2.759,4.211-4.162
			c4.603-4.661,7.347-9.939,5.165-16.606c-1.658-5.065-5.274-8.713-9.43-11.898c0.449-0.77,0.875-1.556,1.352-2.31
			c7.326-11.59,14.659-23.175,21.991-34.762l0.115-0.052c0.152,0.013,0.306,0.025,0.458,0.038c2.496,0.619,3.111,0.293,4.006-2.08
			c0.228-0.603,0.517-1.181,0.78-1.772c0.579,0.32,1.056,0.652,1.237,1.396c0.287,1.179,1.196,1.615,2.35,1.277
			c0.996-0.292,1.434-1.102,1.262-2.08c-0.191-1.086-0.979-1.666-2.079-1.485c-0.862,0.142-1.522-0.061-2.141-0.591
			c0.377-1.421,1.277-2.603,1.857-3.931c0.909,0.347,1.702,0.717,1.982,1.835c0.267,1.067,1.179,1.505,2.264,1.206
			c0.994-0.275,1.491-1.042,1.315-2.046c-0.191-1.09-0.988-1.733-2.073-1.51c-1.142,0.235-1.828-0.287-2.537-0.951
			c0.909-1.102,1.816-2.205,2.723-3.307c0.803,0.26,1.256,0.762,1.509,1.602c0.324,1.073,1.218,1.477,2.294,1.147
			c0.982-0.301,1.485-1.07,1.287-2.078c-0.213-1.079-0.974-1.691-2.099-1.478c-0.735,0.139-1.292,0.019-1.824-0.439
			c0.6-0.663,1.199-1.327,1.8-1.988c0.937-1.029,0.991-2.069,0.177-3.225c-3.056-4.341-7.246-6.852-12.517-7.649
			c-1.323-0.2-2.213,0.364-2.704,1.559c-0.248,0.605-0.451,1.228-0.675,1.843c-1.275,1.112-1.258-0.132-1.543-0.825
			c-0.434-1.054-1.256-1.434-2.319-1.142c-1.012,0.278-1.445,1.08-1.294,2.063c0.17,1.106,0.959,1.7,2.057,1.503
			c0.883-0.159,1.516,0.073,2.124,0.611c-0.3,0.705-0.599,1.412-0.899,2.117c-0.108,0.223-0.214,0.447-0.321,0.669
			c-0.206,0.375-0.41,0.748-0.616,1.122c-1.005-0.351-1.72-0.881-2.044-2.014c-0.276-0.966-1.235-1.313-2.212-1.018
			c-0.975,0.294-1.474,1.07-1.3,2.073c0.175,0.999,0.92,1.682,1.914,1.492c1.185-0.227,1.968,0.214,2.74,0.926
			c-0.927,1.144-1.667,2.436-2.802,3.413c-0.815-0.362-1.205-1.003-1.518-1.828c-0.39-1.028-1.322-1.36-2.362-0.969
			c-0.862,0.324-1.34,1.035-1.172,1.964c0.191,1.055,0.874,1.75,2.004,1.568c0.78-0.125,1.399-0.026,1.994,0.432
			c-0.556,0.62-1.096,1.256-1.674,1.856c-0.999,1.037-1.33,2.188-0.332,3.339c0.823,0.95,0.652,1.663,0.025,2.648
			c-6.423,10.07-12.8,20.171-19.179,30.269c-0.763,1.209-1.47,2.451-2.201,3.679c-0.39,0.278-0.638,0.643-0.712,1.116
			c-0.215,0.189-0.43,0.378-0.645,0.567c-2.221-1.391-4.725-2.102-7.228-2.713c-5.176-1.262-10.174-1.008-14.576,2.389
			c-3.478,2.684-5.327,6.405-6.446,10.497c-1.727,6.317-4.966,11.206-11.258,14.194c-5.319,2.526-9.883,6.293-13.809,10.762
			c-7.002,7.971-8.373,18.537-3.278,27.71c3.484,6.275,8.805,10.763,15.002,14.314c2.089,1.405,4.248,2.67,6.586,3.649
			c4.525,1.895,9.155,3.31,14.128,3.287c4.674-0.021,9.051-1.038,12.852-3.888c1.296-0.451,2.104-1.583,3.235-2.266
			C56.623,118.274,65.303,99.969,65.843,98.381z"/>
		<path fill="#F06E22" d="M19.566,117.334c-6.197-3.553-11.517-8.041-15.002-14.314c-5.094-9.174-3.724-19.739,3.278-27.71
			c3.926-4.468,8.49-8.237,13.809-10.762c6.292-2.988,9.531-7.877,11.258-14.194c1.119-4.092,2.968-7.813,6.446-10.497
			c4.402-3.397,9.401-3.652,14.576-2.389c2.503,0.611,5.007,1.322,7.228,2.711l0.155,0.027c-0.408,0.582-0.836,1.151-1.22,1.749
			c-3.368,5.255-6.729,10.515-10.092,15.773c-9.527,0.121-15.076,8.295-12.29,16.372c0.326,0.946,0.754,1.858,1.134,2.786
			c-1.8-1.082,1.548-0.963,0.469,0.47c-2.428,3.812-9.182,14.491-11.681,18.439l-1.627,2.659c0.68-1.171,0.121,2.336-3.532-1.243
			c-0.504,1.378-1.817,2.347-2.013,3.881c0.169,0.665,0.795,0.849,1.285,1.16c1.363,0.862,2.741,1.702,4.117,2.545
			c0.714,0.437,1.101,1.015,0.493,1.746C23.61,109.846,21.451,113.505,19.566,117.334z"/>
		<path fill="#E35127" d="M19.566,117.334c1.886-3.829,4.044-7.488,6.791-10.791c0.608-0.731,0.221-1.309-0.493-1.746
			c-1.376-0.844-2.754-1.682-4.117-2.545c-0.49-0.311-1.115-0.495-1.285-1.16c2.255,1.405,4.511,2.811,6.765,4.215
			c1.678,1.585,3.622,2.748,5.778,3.581c0.232,0.122,0.463,0.245,0.693,0.366c1.135-0.45,2.164-3.424,2.814-4.252
			c0.452-0.575,1.315-1.092,2.11-0.364c1.732,1.588,3.75,2.156,5.828,3.196c2.079,1.041,2.961,4.042,5.413,3.544
			c5.494-1.114,8.453-4.702,9.742-9.769c0.955-3.75-0.171-7.21-2.969-9.786c-3.46-3.184-7.436-5.629-12.452-5.65
			c0.877-1.405,1.753-2.808,2.631-4.212c2.944,0.634,5.725,0.145,8.381-1.189c5.327-2.676,7.972-9.721,5.699-15.141
			c-0.318-0.758-0.659-1.328-1.53-0.564c0.143-0.325,0.247-0.673,0.435-0.971c3.443-5.465,6.889-10.928,10.358-16.377
			c0.315-0.495,0.782-0.897,1.179-1.342c4.156,3.186,7.773,6.833,9.43,11.898c2.182,6.667-0.562,11.945-5.165,16.606
			c-1.387,1.404-2.763,2.821-4.211,4.162c-3.229,2.994-4.626,6.703-4.704,11.014c-0.026,1.407,0.06,2.854-0.468,4.219
			c-0.705,1.082-1.164,2.199-0.487,3.47v0.005c-0.349,0.595-0.857,1.167-0.307,1.903l-0.002-0.026
			c-3.256,5.133-6.525,10.258-9.756,15.407c-0.484,0.771-1.529,1.525-0.359,2.605c0.304,0.28-0.034,0.709-0.395,0.821
			c-0.984,0.307-1.278,1.199-1.779,1.919c-3.801,2.85-8.178,3.867-12.852,3.888c-4.973,0.024-9.603-1.392-14.128-3.287
			C23.814,120.004,21.654,118.739,19.566,117.334z"/>
		<path fill="#223847" d="M102.527,0.026c-0.58,1.328-1.48,2.509-1.857,3.931c-0.21,0.494-0.419,0.989-0.63,1.483
			c-0.261,0.59-0.552,1.17-0.78,1.772c-0.896,2.373-1.51,2.7-4.006,2.08c-0.152-0.013-0.306-0.025-0.458-0.038l-0.115,0.052
			c-0.454-0.274-0.907-0.549-1.362-0.823c1.354-2.181,2.696-4.368,4.063-6.539c2.355-3.739,4.729-7.465,7.077-11.209
			c0.228-0.363,0.787-0.839,0.242-1.228c-0.696-0.497-0.867,0.315-1.165,0.689c-0.259,0.326-0.454,0.701-0.678,1.054
			C99.203-3.008,95.548,2.734,91.894,8.476c-0.33-0.19-0.659-0.382-0.99-0.572c0.708-1.556,1.564-3.026,2.616-4.382
			c2.26-2.727,3.888-5.861,5.789-8.818c1.189-1.848,2.597-3.58,3.375-5.668c0.334-0.658-0.04-0.985-0.591-1.229
			c-0.35-0.217-0.699-0.434-1.05-0.651c-1.179-0.924-1.417,0.241-1.809,0.849C95.4-6.042,91.594-0.075,87.78,5.89
			c-0.359-0.206-0.718-0.412-1.077-0.618c0.365-0.613,0.716-1.235,1.096-1.837c3.433-5.432,6.877-10.857,10.302-16.295
			c0.377-0.598,1.159-1.276-0.061-1.851c-0.403,0.045-0.616,0.325-0.823,0.626c-4.557,6.648-8.708,13.54-13.389,20.133
			c-7.525,10.6-14.063,21.882-21.04,32.861c-0.344,0.54-0.45,1.463-1.474,1.296c0,0-0.154-0.027-0.155-0.027
			c0.215-0.189,0.43-0.378,0.645-0.567c0.429-0.253,0.657-0.631,0.712-1.116c0.732-1.228,1.438-2.47,2.202-3.679
			c6.38-10.098,12.755-20.199,19.179-30.269c0.627-0.984,0.8-1.698-0.025-2.648c-0.997-1.151-0.668-2.301,0.332-3.339
			c0.578-0.6,1.116-1.236,1.674-1.856c0.351-0.389,0.702-0.777,1.054-1.166c1.135-0.977,1.875-2.271,2.802-3.413
			c0.3-0.487,0.601-0.973,0.901-1.46c0.206-0.375,0.41-0.748,0.616-1.122c0.364-0.103,0.417-0.351,0.321-0.669
			c0.3-0.705,0.599-1.412,0.899-2.117c0.236-0.775,1.057-1.298,0.973-2.209c0.223-0.614,0.425-1.238,0.675-1.843
			c0.491-1.197,1.381-1.76,2.704-1.561c5.272,0.795,9.461,3.307,12.517,7.649c0.814,1.155,0.76,2.196-0.177,3.225
			c-0.603,0.662-1.2,1.326-1.8,1.988c-0.626,0.198-0.764,0.842-1.165,1.246c-0.907,1.102-1.816,2.205-2.723,3.307
			C103.16-0.951,102.843-0.463,102.527,0.026z"/>
		<path fill="#35495D" d="M93.318,8.484c0.454,0.274,0.907,0.549,1.362,0.823C87.349,20.893,80.016,32.48,72.69,44.069
			c-0.476,0.754-0.903,1.538-1.352,2.31c-0.397,0.445-0.864,0.846-1.179,1.342c-3.467,5.45-6.914,10.913-10.358,16.377
			c-0.188,0.298-0.292,0.646-0.435,0.972c-0.254,0.434-0.508,0.866-0.761,1.298c-1.166,0.925-1.373,2.416-2.138,3.587
			c-0.709,1.086-1.347,1.18-2.298,0.476c0.313-0.574,0.594-1.168,0.944-1.721C67.502,49.12,79.897,29.534,92.295,9.95
			C92.612,9.448,92.976,8.971,93.318,8.484z"/>
		<path fill="#D6441A" d="M65.421,99.631c-0.877,7.183-3.994,13.298-9.054,18.486c-1.131,0.682-1.939,1.813-3.235,2.266
			c0.501-0.719,0.795-1.611,1.779-1.919c0.36-0.112,0.698-0.54,0.395-0.821c-1.17-1.081-0.125-1.834,0.359-2.605
			C58.896,109.889,62.165,104.764,65.421,99.631z"/>
		<path fill="#5F6D7C" d="M93.447-15.452c0.084,0.912-0.737,1.435-0.973,2.209c-0.61-0.538-1.243-0.77-2.124-0.611
			c-1.098,0.197-1.887-0.397-2.057-1.503c-0.151-0.984,0.281-1.785,1.294-2.063c1.063-0.292,1.886,0.089,2.319,1.142
			C92.188-15.584,92.171-14.34,93.447-15.452z"/>
		<path fill="#5F6D7C" d="M86.934-4.46c-0.351,0.389-0.702,0.777-1.054,1.166c-0.597-0.457-1.215-0.558-1.994-0.432
			c-1.128,0.182-1.812-0.513-2.004-1.568c-0.169-0.929,0.31-1.64,1.172-1.964c1.04-0.39,1.972-0.058,2.362,0.969
			C85.729-5.463,86.119-4.822,86.934-4.46z"/>
		<path fill="#5F6D7C" d="M100.04,5.44c0.21-0.494,0.419-0.989,0.63-1.483c0.62,0.529,1.278,0.732,2.141,0.591
			c1.1-0.181,1.888,0.398,2.079,1.485c0.172,0.978-0.266,1.789-1.262,2.08c-1.154,0.338-2.063-0.097-2.35-1.277
			C101.096,6.091,100.619,5.759,100.04,5.44z"/>
		<path fill="#5F6D7C" d="M102.527,0.026c0.317-0.489,0.633-0.977,0.95-1.466c0.709,0.664,1.394,1.186,2.537,0.951
			c1.086-0.223,1.882,0.419,2.073,1.51c0.176,1.004-0.321,1.771-1.315,2.046c-1.085,0.3-1.997-0.139-2.264-1.206
			C104.229,0.743,103.435,0.373,102.527,0.026z"/>
		<path fill="#5F6D7C" d="M90.638-9.334c-0.3,0.487-0.601,0.973-0.901,1.46c-0.771-0.712-1.555-1.153-2.74-0.926
			c-0.994,0.19-1.739-0.493-1.914-1.492c-0.175-1.003,0.325-1.78,1.3-2.073c0.977-0.294,1.935,0.052,2.212,1.018
			C88.918-10.214,89.632-9.684,90.638-9.334z"/>
		<path fill="#5F6D7C" d="M106.201-4.747c0.401-0.404,0.539-1.048,1.165-1.246c0.532,0.458,1.089,0.578,1.824,0.439
			c1.127-0.213,1.887,0.399,2.099,1.478c0.2,1.008-0.305,1.777-1.287,2.078c-1.076,0.33-1.972-0.074-2.294-1.147
			C107.457-3.984,107.003-4.487,106.201-4.747z"/>
		<path fill="#D6441A" d="M65.732,97.749c-0.676-1.271-0.219-2.388,0.487-3.47c0.229,0.961-0.11,1.868-0.267,2.792
			c-0.04,0.022-0.113,0.043-0.116,0.069c-0.007,0.085,0.011,0.172,0.019,0.259C65.815,97.515,65.773,97.632,65.732,97.749z"/>
		<path fill="#D6441A" d="M65.9,97.928c-0.158,0.577-0.317,1.153-0.475,1.728c-0.549-0.737-0.04-1.308,0.307-1.903
			C65.777,97.823,65.833,97.881,65.9,97.928z"/>
		<path fill="#35495D" d="M62.517,38.495c-0.056,0.486-0.284,0.862-0.712,1.116C61.88,39.138,62.128,38.773,62.517,38.495z"/>
		<path fill="#5F6D7C" d="M91.574-11.125c0.096,0.318,0.043,0.566-0.321,0.669C91.36-10.679,91.467-10.901,91.574-11.125z"/>
		<path fill="#E35127" d="M65.856,97.398c-0.008-0.086-0.027-0.174-0.019-0.259c0.002-0.026,0.076-0.046,0.116-0.069
			C65.92,97.18,65.888,97.289,65.856,97.398z"/>
		<path fill="#35495D" d="M94.795,9.255c0.152,0.013,0.306,0.025,0.458,0.038C95.101,9.28,94.948,9.267,94.795,9.255z"/>
		<path fill="#35495D" d="M61.315,40.206c1.024,0.167,1.131-0.755,1.474-1.296c6.978-10.979,13.516-22.262,21.04-32.861
			c4.681-6.594,8.832-13.486,13.389-20.133c0.207-0.302,0.421-0.581,0.823-0.626C94.011-8.355,89.973-2.005,85.949,4.354
			C71.037,27.925,56.132,51.499,41.225,75.071c-0.137,0.031-0.274,0.06-0.412,0.091c-0.054-0.152-0.11-0.305-0.164-0.457
			c0.197-0.125,0.465-0.204,0.58-0.382c1.616-2.512,3.216-5.035,4.806-7.563c0.154-0.243,0.392-0.669,0.298-0.794
			c-1.263-1.678,0.239-2.489,1.035-3.581c0.432-0.593,1.087-1.154,0.971-2.031c0.712-0.779,1.289-1.64,1.665-2.626
			c3.364-5.259,6.723-10.518,10.092-15.773C60.477,41.358,60.906,40.788,61.315,40.206z"/>
		<path fill="#273642" d="M22.475,97.211c0.54-0.695,1.015-0.269,1.528,0.06c0.652,0.418,1.335,0.792,2.004,1.184
			c0.428,0.243,0.857,0.488,1.285,0.731c0.399,0.236,0.799,0.473,1.199,0.709c0.22,0.164,0.441,0.327,0.66,0.491
			c0.206,0.097,0.41,0.195,0.616,0.292c0.161,0.133,0.323,0.268,0.483,0.402c0.432,0.268,0.866,0.536,1.298,0.806
			c0.354,0.223,0.709,0.447,1.064,0.671c0.278,0.187,0.555,0.372,0.833,0.559c0.503,0.312,0.977,0.691,1.516,0.923
			c1.317,0.568,1.457,1.321,0.604,2.429c-0.68,0.885-1.249,1.856-1.867,2.789c-0.232-0.122-0.463-0.245-0.693-0.366
			c-1.926-1.193-3.853-2.388-5.778-3.581c-2.255-1.405-4.511-2.811-6.765-4.215C20.658,99.559,21.971,98.589,22.475,97.211z"/>
		<path fill="#FBCD43" d="M50.001,57.728c-0.376,0.986-0.952,1.848-1.665,2.626c-7.196,0.728-11.122,8.054-7.69,14.351
			c0.054,0.152,0.11,0.305,0.164,0.457c-0.601,0.663-0.469,1.815-1.497,2.194c-0.156-0.157-0.313-0.313-0.469-0.47
			c-0.38-0.929-0.808-1.841-1.134-2.786C34.926,66.023,40.474,57.849,50.001,57.728z"/>
		<path fill="#FBCD43" d="M58.605,66.369c0.254-0.432,0.507-0.865,0.762-1.298c0.872-0.766,1.213-0.196,1.531,0.562
			c2.273,5.42-0.372,12.465-5.699,15.141c-2.656,1.334-5.438,1.823-8.381,1.189c0.35-0.636,0.701-1.271,1.05-1.907
			c0.082-0.095,0.162-0.19,0.242-0.285c0.248,0.007,0.496,0.013,0.745,0.02C54.558,80.458,61.477,74.475,58.605,66.369z"/>
		<path fill="#54A297" d="M47.867,80.056c-0.35,0.636-0.701,1.27-1.05,1.907c-0.877,1.405-1.754,2.808-2.631,4.213
			c-3.721,5.559-7.267,11.226-10.739,16.938c-0.278-0.185-0.555-0.372-0.833-0.558c4.108-6.454,8.217-12.907,12.314-19.368
			c0.252-0.396,0.399-0.857,0.595-1.287c0.8-0.564,1.129-1.424,1.471-2.275C47.284,79.768,47.576,79.911,47.867,80.056z"/>
		<path fill="#D6441A" d="M27.228,105.307c1.927,1.193,3.853,2.388,5.778,3.581C30.851,108.055,28.905,106.893,27.228,105.307z"/>
		<path fill="#54A297" d="M29.153,100.386c-0.22-0.164-0.441-0.327-0.662-0.491c0.403-0.657,0.802-1.316,1.211-1.971
			c3.3-5.285,6.602-10.569,9.903-15.852c0.754-0.834,1.323-1.78,1.775-2.8c0.568-0.611,1.073-1.251,1.022-2.149
			c0.165-0.072,0.332-0.144,0.497-0.216c0.113-0.196,0.227-0.392,0.34-0.588c1.988-2.977,3.996-5.944,5.687-9.101
			c0.425-0.573,0.891-1.122,1.272-1.724c12.186-19.24,24.366-38.484,36.539-57.73c0.382-0.603,0.696-1.246,1.042-1.871
			c3.815-5.964,7.621-11.931,11.455-17.883c0.392-0.608,0.63-1.773,1.809-0.849C96.915-6.264,92.787,0.313,88.658,6.89
			c-3.558,5.587-7.132,11.166-10.674,16.764c-9.317,14.729-18.62,29.466-27.929,44.2c-2.077,3.215-4.153,6.429-6.23,9.644
			c-0.295,0.072-0.474,0.256-0.539,0.549c-0.07,0.237-0.138,0.476-0.208,0.714c-0.457,0.138-0.601,0.565-0.818,0.905
			C37.887,86.569,33.521,93.478,29.153,100.386z"/>
		<path fill="#54A297" d="M93.52,3.524c-1.051,1.356-1.908,2.826-2.614,4.382c-0.569,0.38-0.891,0.958-1.242,1.513
			c-12.073,19.072-24.145,38.145-36.22,57.215c-2.557,4.038-5.125,8.069-7.689,12.104c-0.442-0.027-0.885,0.334-1.327-0.001v-0.004
			c0.071-0.061,0.132-0.132,0.182-0.211c2.128-3.368,4.255-6.738,6.383-10.106c10.148-16.015,20.302-32.03,30.444-48.049
			c2.72-4.294,5.41-8.608,8.113-12.912c4.181-6.549,8.362-13.098,12.543-19.647c0.551,0.245,0.925,0.571,0.591,1.229
			C99.467-6.235,96.403-1.411,93.52,3.524z"/>
		<path fill="#54A297" d="M41.223,75.072C56.131,51.499,71.037,27.925,85.948,4.354c4.023-6.36,8.061-12.71,12.093-19.065
			c1.222,0.575,0.438,1.253,0.061,1.851C94.677-7.421,91.233-1.996,87.8,3.436c-0.382,0.603-0.731,1.224-1.096,1.837
			C73.71,25.793,60.716,46.313,47.722,66.832c-2.006,3.117-4.012,6.233-6.019,9.35C41.216,75.949,41.415,75.429,41.223,75.072z"/>
		<path fill="#54A297" d="M47.867,80.056c-0.291-0.143-0.582-0.287-0.872-0.43c0.001,0,0.015-0.033,0.015-0.033
			c0.269-0.441,0.538-0.881,0.807-1.321c2.267-2.414,3.612-5.43,5.437-8.133c0.582-0.862,1.43-1.636,1.443-2.802
			c1.116-1.771,2.233-3.542,3.352-5.312C69.33,44.176,80.612,26.328,91.895,8.479c3.654-5.743,7.309-11.485,10.964-17.228
			c0.224-0.352,0.419-0.728,0.678-1.054c0.297-0.373,0.468-1.186,1.165-0.689c0.545,0.389-0.015,0.865-0.242,1.228
			c-2.347,3.743-4.723,7.469-7.077,11.209c-1.367,2.171-2.71,4.359-4.063,6.539c-0.343,0.488-0.705,0.963-1.024,1.466
			c-12.398,19.585-24.792,39.17-37.182,58.761c-0.35,0.552-0.631,1.146-0.944,1.72c-1.655,2.195-3.023,4.57-4.44,6.915
			c-0.064,0.102-0.129,0.203-0.193,0.304c-0.259,0.405-0.517,0.81-0.776,1.216c-0.217,0.301-0.434,0.603-0.651,0.904
			C48.028,79.865,47.948,79.96,47.867,80.056z"/>
		<path fill="#35495D" d="M91.895,8.478C80.612,26.327,69.33,44.174,58.048,62.023c-1.119,1.77-2.234,3.541-3.352,5.312
			c-0.541,0.8-1.082,1.601-1.623,2.402c-0.923-0.676-1.258,0.057-1.643,0.668c-1.848,2.926-3.695,5.852-5.542,8.778l-0.017,0.06
			c-0.039-0.168-0.077-0.336-0.116-0.503c2.564-4.035,5.131-8.066,7.689-12.104C65.519,47.565,77.591,28.493,89.664,9.42
			c0.351-0.555,0.672-1.133,1.242-1.513C91.234,8.097,91.564,8.287,91.895,8.478z"/>
		<path fill="#35495D" d="M47.722,66.832C60.716,46.313,73.71,25.793,86.704,5.274c0.359,0.207,0.718,0.412,1.077,0.618
			c-0.346,0.624-0.662,1.268-1.043,1.871C74.564,27.01,62.385,46.254,50.199,65.493c-0.38,0.601-0.846,1.151-1.271,1.724
			C48.527,67.088,48.125,66.961,47.722,66.832z"/>
		<path fill="#152A3B" d="M102.094-12.191C97.913-5.643,93.732,0.907,89.551,7.456c-0.184-0.362-0.481-0.552-0.892-0.566
			c4.129-6.577,8.257-13.154,12.386-19.731C101.394-12.625,101.743-12.409,102.094-12.191z"/>
		<path fill="#35495D" d="M93.52,3.524c2.883-4.935,5.947-9.759,9.164-14.488c-0.777,2.09-2.187,3.822-3.375,5.67
			C97.407-2.337,95.781,0.797,93.52,3.524z"/>
		<path fill="#273642" d="M49.729,77.345c1.415-2.345,2.785-4.72,4.44-6.915c0.952,0.704,1.59,0.61,2.299-0.476
			c0.766-1.171,0.972-2.662,2.138-3.587c2.872,8.107-4.046,14.09-9.75,13.422c-0.031-0.308-0.063-0.617-0.095-0.924
			c0.259-0.405,0.517-0.81,0.775-1.217c0.045-0.015,0.119-0.019,0.131-0.047C49.701,77.523,49.71,77.432,49.729,77.345z"/>
		<path fill="#F06E22" d="M27.635,95.796c-2.065-1.415-4.363-2.485-6.2-4.246c-1.851-1.774-2.325-4.453-0.991-6.62
			c0.968-1.572,2.046-3.084,2.943-4.694c2.355-4.224,5.616-4.428,9.561-2.255c1.469,0.809,2.869,1.743,4.299,2.619
			C34.043,85.666,30.839,90.731,27.635,95.796z"/>
		<path fill="#54A297" d="M27.635,95.796c3.204-5.065,6.408-10.13,9.611-15.194c0.69-1.082,1.38-2.163,2.069-3.244
			c1.028-0.379,0.896-1.53,1.497-2.194c0.137-0.031,0.274-0.06,0.412-0.091c0.19,0.357-0.008,0.878,0.48,1.109
			c-0.017,0.136-0.032,0.271-0.05,0.405c-0.532,0.577-1.021,1.178-1.224,1.954c-0.751,0.87-1.34,1.843-1.845,2.866
			c-3.764,5.926-7.528,11.852-11.291,17.778c-0.429-0.243-0.858-0.488-1.285-0.731C26.55,97.568,27.092,96.682,27.635,95.796z"/>
		<path fill="#273642" d="M40.648,74.706c-3.432-6.297,0.494-13.623,7.69-14.351c0.116,0.877-0.539,1.438-0.971,2.031
			c-0.795,1.092-2.298,1.902-1.035,3.581c0.095,0.125-0.144,0.551-0.298,0.794c-1.59,2.528-3.19,5.052-4.806,7.563
			C41.114,74.5,40.844,74.581,40.648,74.706z"/>
		<path fill="#54A297" d="M45.755,78.739c0.039,0.168,0.077,0.336,0.116,0.503c-0.874,0.463-1.122,1.298-1.32,2.163
			c-4.292,6.594-8.577,13.191-12.581,19.961c-0.139,0.172-0.28,0.345-0.419,0.519c-0.432-0.268-0.866-0.536-1.3-0.806
			c1.07-1.712,2.141-3.424,3.211-5.136c1.523-2.407,3.046-4.812,4.569-7.219c1.714-2.694,3.427-5.386,5.142-8.08
			c0.418-0.636,0.838-1.272,1.256-1.908C44.871,79.073,45.312,78.712,45.755,78.739z"/>
		<path fill="#F06E22" d="M27.293,99.186c3.764-5.926,7.528-11.852,11.291-17.778c0.34,0.221,0.68,0.443,1.021,0.664
			c-3.301,5.285-6.603,10.568-9.903,15.852c-0.409,0.655-0.808,1.314-1.211,1.971C28.092,99.658,27.693,99.423,27.293,99.186z"/>
		<path fill="#F06E22" d="M29.153,100.386c4.368-6.908,8.734-13.817,13.109-20.72c0.216-0.341,0.36-0.767,0.82-0.91
			c-0.31,0.486-0.758,0.933-0.504,1.598c-1.992,3.18-3.985,6.362-5.977,9.542c-0.899,1.425-1.798,2.85-2.697,4.274
			c-1.379,2.169-2.756,4.337-4.135,6.506C29.563,100.58,29.357,100.484,29.153,100.386z"/>
		<path fill="#E35127" d="M29.768,100.677c1.379-2.169,2.756-4.337,4.135-6.507c0.22,0.679-0.64,1.098-0.441,1.773
			c-1.07,1.712-2.141,3.424-3.211,5.136C30.09,100.946,29.929,100.812,29.768,100.677z"/>
		<path fill="#E35127" d="M65.501,100.76c-0.006-0.352-0.006-0.703,0.041-1.057c-0.402-4.218-6.935-9.467-10.673-11.773
			c-4.658-3.348-8.001-5.887-10.684-1.756l-10.738,16.939c3.59,2.149,5.832,3.594,9.988,6.155c2.97,1.83,4.841,11.102,7.869,11.279
			c5.811,0.34,13.521-17.612,13.735-18.533C65.291,101.619,65.423,101.195,65.501,100.76z"/>
		<path fill="#35495D" d="M48.761,78.866c0.032,0.308,0.064,0.617,0.095,0.924c-0.249-0.007-0.497-0.013-0.745-0.02
			C48.326,79.468,48.544,79.167,48.761,78.866z"/>
		<path fill="#FBCD43" d="M45.523,81.9c-0.131-0.054-0.262-0.108-0.393-0.162c-0.194-0.111-0.386-0.222-0.58-0.333
			c0.197-0.865,0.445-1.7,1.32-2.163l0.017-0.06c0.375,0.136,0.749,0.273,1.124,0.409c0,0-0.014,0.033-0.015,0.033
			C46.652,80.477,46.322,81.336,45.523,81.9z"/>
		<path fill="#35495D" d="M88.658,6.89c0.411,0.014,0.708,0.204,0.892,0.566c-2.703,4.305-5.393,8.617-8.113,12.912
			C71.294,36.386,61.141,52.401,50.993,68.416c-0.313-0.188-0.625-0.376-0.938-0.564c9.308-14.734,18.612-29.471,27.929-44.2
			C81.525,18.055,85.099,12.477,88.658,6.89z"/>
		<path fill="#223847" d="M41.656,76.587c0.017-0.136,0.032-0.271,0.048-0.406c2.006-3.117,4.012-6.233,6.018-9.35
			c0.403,0.129,0.805,0.256,1.206,0.385c-1.693,3.158-3.701,6.123-5.689,9.101c-0.302,0.09-0.445,0.269-0.34,0.588
			c-0.165,0.072-0.332,0.144-0.497,0.216C42.153,76.944,41.904,76.765,41.656,76.587z"/>
		<path fill="#223847" d="M50.055,67.853c0.313,0.188,0.625,0.376,0.938,0.564c-2.128,3.368-4.255,6.738-6.382,10.106
			c-0.332-0.289-0.796-0.48-0.784-1.025C45.902,74.282,47.979,71.067,50.055,67.853z"/>
		<path fill="#E35127" d="M39.605,82.071c-0.34-0.221-0.68-0.442-1.021-0.664c0.507-1.024,1.094-1.997,1.845-2.867
			c0.317,0.243,0.633,0.487,0.95,0.731C40.928,80.291,40.359,81.237,39.605,82.071z"/>
		<path fill="#FBCD43" d="M41.379,79.271c-0.317-0.243-0.633-0.488-0.95-0.731c0.204-0.775,0.693-1.378,1.224-1.953
			c0.249,0.18,0.499,0.358,0.748,0.536C42.453,78.02,41.948,78.66,41.379,79.271z"/>
		<path fill="#FBCD43" d="M42.577,80.354c-0.254-0.664,0.195-1.112,0.504-1.598c0.067-0.234,0.136-0.473,0.204-0.71
			c0.38,0.229,0.761,0.458,1.142,0.688v0.004c-0.418,0.636-0.838,1.272-1.256,1.908C42.974,80.548,42.776,80.451,42.577,80.354z"/>
		<path fill="#5F6D7C" d="M44.427,78.734c-0.38-0.229-0.762-0.458-1.142-0.688c0.066-0.293,0.245-0.477,0.54-0.549
			c-0.012,0.545,0.452,0.735,0.784,1.024C44.56,78.601,44.5,78.672,44.427,78.734z"/>
		<path fill="#35495D" d="M42.899,76.906c-0.105-0.32,0.039-0.499,0.34-0.588C43.126,76.514,43.012,76.71,42.899,76.906z"/>
		<path fill="#223847" d="M47.01,79.592c-0.375-0.136-0.749-0.273-1.124-0.409c1.848-2.926,3.696-5.852,5.543-8.778
			c0.385-0.611,0.721-1.343,1.645-0.668c-1.752,2.845-3.504,5.689-5.256,8.533C47.548,78.711,47.279,79.152,47.01,79.592z"/>
		<path fill="#5F6D7C" d="M47.817,78.27c1.752-2.845,3.504-5.689,5.256-8.533c0.541-0.801,1.081-1.601,1.623-2.402
			c-0.012,1.165-0.86,1.94-1.441,2.802C51.429,72.841,50.084,75.857,47.817,78.27z"/>
		<path fill="#35495D" d="M49.729,77.345c-0.019,0.086-0.027,0.176-0.061,0.256c-0.013,0.03-0.086,0.033-0.131,0.047
			C49.6,77.549,49.665,77.447,49.729,77.345z"/>
		<path fill="#E35127" d="M42.577,80.354c0.198,0.097,0.398,0.194,0.597,0.291c-1.714,2.694-3.429,5.387-5.142,8.08
			c-0.702,0.123-0.711,1.069-1.431,1.172C38.592,86.716,40.584,83.535,42.577,80.354z"/>
		<path fill="#D6441A" d="M36.601,89.897c0.719-0.103,0.729-1.049,1.431-1.172c-1.523,2.407-3.047,4.813-4.57,7.219
			c-0.2-0.675,0.66-1.094,0.441-1.773C34.802,92.746,35.701,91.322,36.601,89.897z"/>
		<polygon fill="#E35127" points="32.591,102.54 31.318,101.757 44.298,81.25 45.57,82.033 		"/>
	</g>
	<g>
		<path fill="#F7F5E7" d="M137.542,114.963c-0.493,6.272-1.819,12.354-4.29,18.172c-0.194-0.736-0.165-1.49-0.476-2.234
			c-1.633-3.925-4.534-6.418-8.584-7.689c0.634-1.943-0.642-2.278-2.13-2.639c-1.649-0.399-1.984,0.565-2.268,1.757
			c-0.331,1.385-0.702,2.761-1.04,4.144c-0.17,0.697-0.415,1.513,0.363,1.935c0.781,0.424,0.525,0.9,0.377,1.478
			c-0.762,2.991-1.499,5.99-2.257,8.982c-0.109,0.431-0.037,1.076-0.672,1.107c-1.311,0.065-1.469,1.017-1.698,1.949
			c-0.326,1.326-0.568,2.679-1.003,3.97c-0.502,1.491,0.018,2.145,1.48,2.584c1.766,0.529,2.616-0.116,2.987-1.739
			c0.646,0.115,1.288,0.304,1.938,0.334c6.538,0.311,10.92-2.948,13.029-9.656c3.117-7.167,5.353-14.552,5.712-22.403
			c0.514-0.707,0.652-1.497,0.658-2.358c0.045-6.667-1.938-12.697-6.173-17.867c-6.396-7.808-14.675-11.895-24.973-11.677
			C94.48,82.44,80.388,93.529,78.183,107.097c-0.441,2.714-1.082,5.509,0.171,8.223c0.445,7.645,2.689,14.846,5.566,21.888
			c0.455,1.66,1.217,3.199,2.157,4.622c2.765,4.183,8.47,6.647,13.039,5.034c0.766,1.929,1.211,2.079,3.249,1.509
			c1.754-0.491,1.4-1.623,1.076-2.818c-0.156-0.574-0.217-1.183-0.441-1.727c-0.601-1.463-0.06-3.636-2.507-4.005
			c-0.142-0.021-0.235-0.51-0.307-0.793c-0.773-3.054-1.536-6.11-2.304-9.166c-0.112-0.445-0.431-0.94,0.158-1.265
			c0.979-0.54,0.79-1.362,0.59-2.184c-0.353-1.444-0.73-2.882-1.094-4.322c-0.249-0.983-0.566-1.89-1.908-1.55
			c-1.223,0.31-2.857,0.174-2.531,2.213c-0.097,0.142-0.165,0.377-0.293,0.412c-3.124,0.871-5.07,3.12-7,5.509
			c-1.023,1.266-0.916,2.896-1.869,4.108c-2.238-5.741-3.657-11.663-4.065-17.809c0.399-0.743,0.585-1.532,0.693-2.372
			c1.269-9.84,6.38-17.062,15.269-21.682c4.886-2.539,10.152-3.13,15.57-2.909c13.258,1.572,22.72,10.185,25.257,22.978
			C136.928,112.323,136.692,113.76,137.542,114.963z"/>
		<path fill="#FBCD43" d="M99.122,146.866c-4.57,1.613-10.275-0.851-13.039-5.034c-0.94-1.422-1.702-2.962-2.157-4.621
			c0.006-1.473,0.011-2.949,0.017-4.423c0.955-1.212,0.846-2.843,1.869-4.108c1.93-2.389,3.876-4.638,7-5.509
			c0.126-0.035,0.196-0.271,0.292-0.416c0.715,2.744,1.459,5.485,2.142,8.242C96.554,136.282,97.832,141.576,99.122,146.866z"/>
		<path fill="#EF9E21" d="M133.303,137.417c-2.111,6.71-6.493,9.97-13.031,9.658c-0.65-0.031-1.292-0.219-1.938-0.334
			c0.59-2.485,1.153-4.976,1.775-7.454c1.346-5.364,2.722-10.719,4.085-16.078c4.05,1.271,6.952,3.764,8.584,7.689
			c0.31,0.744,0.282,1.499,0.475,2.234C133.268,134.562,133.285,135.99,133.303,137.417z"/>
		<path fill="#66C3B2" d="M111.408,88.016c-5.418-0.221-10.684,0.37-15.57,2.909c-8.889,4.619-14,11.841-15.269,21.682
			c-0.109,0.841-0.294,1.629-0.693,2.372c-0.528,0.014-1.112-0.204-1.517,0.343c-1.253-2.714-0.612-5.51-0.171-8.223
			c2.205-13.57,16.295-24.658,30.338-23.984c0.102,0.814,0.488,1.721,0.25,2.423c-0.692,2.044,0.262,2.39,1.978,2.244
			C110.963,87.763,111.19,87.933,111.408,88.016z"/>
		<path fill="#54A297" d="M111.408,88.016c-0.219-0.083-0.445-0.253-0.656-0.235c-1.715,0.145-2.67-0.2-1.978-2.244
			c0.237-0.702-0.149-1.609-0.25-2.423c10.297-0.217,18.577,3.869,24.973,11.677c4.235,5.171,6.219,11.2,6.173,17.867
			c-0.006,0.861-0.145,1.652-0.658,2.358c-0.49-0.018-0.981-0.035-1.471-0.053c-0.851-1.203-0.613-2.64-0.877-3.97
			C134.128,98.201,124.666,89.589,111.408,88.016z"/>
		<path fill="#273642" d="M124.193,123.212c-1.363,5.359-2.74,10.714-4.085,16.078c-0.621,2.477-1.185,4.968-1.774,7.454
			c-0.371,1.623-1.22,2.268-2.987,1.739c-1.463-0.438-1.982-1.093-1.48-2.584c0.435-1.29,0.677-2.644,1.003-3.97
			c0.229-0.933,0.388-1.886,1.698-1.949c0.636-0.031,0.562-0.676,0.672-1.107c0.757-2.993,1.493-5.991,2.257-8.982
			c0.148-0.578,0.404-1.054-0.377-1.478c-0.777-0.423-0.533-1.239-0.363-1.935c0.338-1.383,0.709-2.76,1.04-4.144
			c0.285-1.192,0.619-2.157,2.268-1.757C123.551,120.933,124.827,121.268,124.193,123.212z"/>
		<path fill="#35495D" d="M99.122,146.866c-1.29-5.29-2.567-10.584-3.877-15.87c-0.683-2.756-1.427-5.497-2.142-8.242
			c-0.326-2.036,1.309-1.9,2.532-2.209c1.342-0.339,1.659,0.567,1.908,1.55c0.365,1.44,0.742,2.878,1.094,4.322
			c0.201,0.822,0.39,1.645-0.59,2.184c-0.588,0.325-0.269,0.82-0.158,1.265c0.768,3.055,1.531,6.112,2.304,9.166
			c0.072,0.282,0.165,0.771,0.307,0.793c2.447,0.369,1.906,2.542,2.507,4.005c0.223,0.545,0.286,1.153,0.441,1.727
			c0.324,1.194,0.678,2.326-1.076,2.818C100.334,148.946,99.887,148.796,99.122,146.866z"/>
		<path fill="#35495D" d="M137.542,114.963c0.49,0.018,0.981,0.035,1.471,0.053c-0.359,7.852-2.596,15.237-5.711,22.402
			c-0.015-1.43-0.033-2.857-0.048-4.284C135.723,127.317,137.049,121.237,137.542,114.963z"/>
		<path fill="#35495D" d="M78.359,115.321c0.405-0.547,0.988-0.328,1.517-0.343c0.41,6.147,1.829,12.069,4.065,17.81
			c-0.006,1.474-0.011,2.95-0.017,4.423C81.048,130.167,78.805,122.966,78.359,115.321z"/>
	</g>
	<g>
		<path fill="#F7F5E7" d="M187.102,147.775c-0.15-0.575-0.269-1.16-0.457-1.723c-0.821-2.463-0.827-2.459-3.306-1.621
			c-19.279,6.52-38.558,13.039-57.838,19.559c-2.483,0.84-2.679,1.318-1.474,3.664c0.19,0.37,0.43,0.716,0.647,1.073
			c0.338,2.381,1.479,4.515,2.127,6.801c-1.933,0.677-3.837,1.452-5.807,1.998c-1.432,0.397-1.561,1.021-1.112,2.305
			c4.69,13.396,9.35,26.804,13.949,40.231c0.471,1.378,1.033,1.551,2.34,1.103c10.035-3.436,20.094-6.803,30.139-10.204
			c2.281-0.773,4.545-1.594,6.817-2.394c0.177-0.033,0.363-0.044,0.532-0.1c12.39-4.181,24.775-8.379,37.175-12.529
			c1.119-0.375,1.164-0.885,0.828-1.848c-4.751-13.627-9.484-27.259-14.179-40.905c-0.371-1.079-0.852-1.207-1.849-0.845
			c-2.037,0.741-4.111,1.378-6.171,2.058C188.677,152.19,187.889,149.982,187.102,147.775z"/>
		<path fill="#54A297" d="M189.464,154.397c2.059-0.679,4.135-1.316,6.172-2.058c0.997-0.363,1.478-0.235,1.849,0.845
			c4.695,13.645,9.429,27.278,14.179,40.905c0.336,0.963,0.289,1.473-0.828,1.848c-12.4,4.15-24.785,8.348-37.175,12.529
			c-0.169,0.057-0.354,0.069-0.532,0.1c0.184-0.812-0.203-1.515-0.454-2.238c-4.761-13.774-9.528-27.545-14.294-41.318
			c0.911-0.312,1.823-0.624,2.734-0.936c1.499-0.059,2.858-0.525,4.085-1.373c5.837-1.972,11.675-3.944,17.511-5.917
			c0.569,0.189,1.02,0.035,1.352-0.457c0.235-0.079,0.47-0.159,0.705-0.239c1.042,0.07,1.958-0.213,2.718-0.937
			c0.111-0.067,0.221-0.136,0.332-0.203C188.367,154.767,188.915,154.581,189.464,154.397z M193.249,156.096
			c-0.508-0.64-0.384-2.141-1.889-1.437c-1.202,0.562-0.181,1.443-0.232,2.174c-2.506,0.857-5.009,1.718-7.517,2.567
			c-6.67,2.258-13.341,4.514-20.016,6.755c-0.919,0.308-1.687,0.525-1.192,1.822c0.486,1.272,1.243,0.789,2.018,0.528
			c9.183-3.091,18.365-6.187,27.547-9.281c0.428,0.559,0.293,1.739,1.603,1.309c1.288-0.423,0.54-1.283,0.515-1.994
			c0.875-0.247,1.246-0.658,0.898-1.655C194.641,155.896,194.104,155.764,193.249,156.096z M193.064,198.613
			c1.831-0.547,3.323-1.646,4.73-2.868c5.272-4.58,7.995-12.567,4.245-20.844c-2.858-6.308-10.339-10.588-17.718-9.912
			c-1.443,0.132-2.705,0.991-4.182,0.933c-1.08,0.217-2.011,0.755-2.961,1.281c-7.015,3.886-10.628,12.346-8.699,19.431
			c2.527,9.278,10.975,14.302,18.943,13.477C189.355,199.91,191.397,199.885,193.064,198.613z"/>
		<path fill="#66C3B2" d="M158.382,165.011c4.766,13.772,9.533,27.544,14.294,41.318c0.249,0.723,0.637,1.426,0.454,2.238
			c-2.272,0.799-4.535,1.621-6.817,2.394c-10.047,3.401-20.106,6.768-30.139,10.204c-1.308,0.448-1.869,0.274-2.34-1.103
			c-4.599-13.427-9.258-26.835-13.949-40.231c-0.45-1.284-0.32-1.908,1.112-2.305c1.969-0.546,3.875-1.321,5.807-1.998
			c0.566-0.19,1.132-0.38,1.698-0.569c0.688-0.21,1.381-0.405,2.063-0.633C139.836,171.222,149.108,168.116,158.382,165.011z
			 M141.458,173.725c-1.025,0.345-2.051,0.69-3.076,1.035c-1.037,0.352-2.075,0.704-3.112,1.056
			c-1.027,0.346-2.052,0.692-3.079,1.038c-1.132,0.382-2.262,0.764-3.394,1.146c-1.023,0.351-2.045,0.701-3.068,1.051
			c-0.406,0.105-0.82,0.191-1.219,0.318c-0.976,0.308-2.023,0.458-1.478,2.004c0.521,1.478,1.294,1.762,2.737,1.269
			c9.229-3.151,18.481-6.243,27.71-9.394c0.481-0.164,1.448,0.008,1.259-1.04c-0.073-2.642-0.463-2.931-2.843-2.091
			c-0.386,0.136-0.758,0.312-1.138,0.47c-1.036,0.347-2.071,0.695-3.107,1.042c-1.028,0.349-2.057,0.698-3.085,1.047
			C143.529,173.026,142.494,173.375,141.458,173.725z M154.691,211.581c8.79-3.57,13.101-14.879,8.887-23.263
			c-1.899-3.778-4.695-6.471-8.601-8.409c-4.528-2.247-8.926-2.461-13.576-0.884c-0.736,0.265-1.525,0.434-2.199,0.807
			c-6.445,3.567-10.021,8.986-9.773,16.306c0.262,7.71,4.342,13.141,11.611,15.967C145.582,213.87,150.223,213.814,154.691,211.581z
			"/>
		<path fill="#FBCD43" d="M124.675,168.725c-0.217-0.357-0.456-0.702-0.647-1.073c-1.205-2.345-1.009-2.824,1.474-3.664
			c19.28-6.519,38.558-13.038,57.838-19.559c2.479-0.839,2.486-0.842,3.306,1.621c0.188,0.562,0.307,1.148,0.457,1.723
			c-0.117,0.038-0.224,0.021-0.325-0.047c-0.156-0.512-0.299-1.028-0.471-1.533c-0.734-2.163-0.737-2.163-2.996-1.4
			c-8.884,3.001-17.754,6.043-26.666,8.963c-1.552,0.509-2.261,0.992-1.331,2.587c0.326,0.559,0.478,1.22,0.33,1.896
			c-0.844,0.312-1.679,0.644-2.531,0.933c-8.981,3.052-17.965,6.097-26.947,9.144C125.667,168.453,125.171,168.589,124.675,168.725z
			"/>
		<path fill="#5D5D65" d="M124.675,168.725c0.496-0.136,0.994-0.272,1.49-0.408c0.777,2.213,1.556,4.426,2.334,6.64
			c-0.566,0.19-1.132,0.38-1.698,0.571C126.154,173.241,125.013,171.105,124.675,168.725z"/>
		<path fill="#35495D" d="M186.778,147.728c0.1,0.069,0.209,0.085,0.325,0.047c0.787,2.208,1.575,4.415,2.362,6.622
			c-0.548,0.184-1.098,0.369-1.646,0.554c-0.755-2.21-1.51-4.421-2.265-6.631C185.961,148.122,186.37,147.925,186.778,147.728z"/>
		<path fill="#F7F5E7" d="M185.554,148.32c0.755,2.21,1.51,4.421,2.265,6.631c-0.111,0.067-0.221,0.135-0.332,0.203
			c-0.906,0.312-1.812,0.624-2.718,0.937c-0.235,0.079-0.47,0.159-0.705,0.239c-0.45,0.152-0.901,0.305-1.352,0.457
			c-5.837,1.972-11.675,3.944-17.511,5.915c-1.362,0.457-2.723,0.916-4.085,1.373c-0.911,0.312-1.823,0.624-2.734,0.936
			c-9.273,3.105-18.546,6.212-27.82,9.313c-0.682,0.228-1.375,0.423-2.063,0.633c-0.779-2.214-1.556-4.427-2.334-6.64
			c8.984-3.047,17.967-6.091,26.948-9.144c0.851-0.289,1.687-0.621,2.531-0.933c0.861-0.256,1.732-0.489,2.584-0.774
			C167.336,154.422,176.445,151.369,185.554,148.32z"/>
		<path fill="#273642" d="M180.138,165.922c1.478,0.057,2.74-0.802,4.182-0.933c7.379-0.676,14.86,3.605,17.718,9.912
			c3.75,8.277,1.027,16.264-4.245,20.844c-1.407,1.223-2.899,2.322-4.73,2.868c-0.749,0.182-1.492,0.489-1.858-0.617
			c-0.261-0.787-0.925-0.749-1.628-0.547c-0.603,0.174-1.179,0.63-1.867,0.274c1.929-0.686,4.001-1.012,5.731-2.206
			c2.062-0.988,3.618-2.561,4.875-4.384c3.777-5.477,3.659-11.156,0.343-16.716c-3.074-5.153-9.497-7.634-15.939-6.508
			c-1.121-0.193-2.039,0.679-3.583,0.624C181.271,167.955,180.379,166.869,180.138,165.922z"/>
		<path fill="#35495D" d="M180.138,165.922c0.241,0.948,1.133,2.033-1.001,2.61c1.544,0.056,2.462-0.816,3.583-0.624
			c-0.554,0.237-1.108,0.474-1.663,0.711c-6.558,1.551-11.148,8.563-10.23,15.357c1.206,8.924,7.99,14.087,16.776,13.477
			c0.031,0.092,0.066,0.182,0.106,0.271c0.688,0.356,1.264-0.099,1.867-0.274c0.703-0.203,1.367-0.24,1.628,0.547
			c0.366,1.106,1.109,0.799,1.858,0.617c-1.667,1.272-3.707,1.298-5.64,1.498c-7.968,0.825-16.416-4.2-18.943-13.477
			c-1.93-7.085,1.682-15.544,8.699-19.431C178.127,166.677,179.058,166.139,180.138,165.922z"/>
		<path fill="#35495D" d="M191.969,159.223c-9.182,3.094-18.364,6.191-27.547,9.281c-0.775,0.261-1.532,0.744-2.018-0.528
			c-0.495-1.297,0.273-1.513,1.192-1.822c6.676-2.24,13.347-4.498,20.016-6.755c2.508-0.848,5.012-1.711,7.517-2.567
			C191.409,157.629,191.689,158.426,191.969,159.223z"/>
		<path fill="#EF9E21" d="M191.969,159.223c-0.28-0.796-0.56-1.593-0.84-2.389c0.051-0.731-0.97-1.611,0.232-2.174
			c1.505-0.704,1.381,0.796,1.889,1.437c0.131,0.864,0.413,1.675,0.838,2.44c0.025,0.711,0.773,1.572-0.515,1.994
			C192.262,160.961,192.396,159.782,191.969,159.223z"/>
		<path fill="#35495D" d="M194.087,158.537c-0.423-0.764-0.707-1.577-0.838-2.44c0.854-0.333,1.392-0.201,1.736,0.784
			C195.333,157.879,194.961,158.288,194.087,158.537z"/>
		<path fill="#66C3B2" d="M161.116,164.075c1.362-0.457,2.723-0.916,4.085-1.373C163.974,163.551,162.614,164.016,161.116,164.075z"
			/>
		<path fill="#66C3B2" d="M184.768,156.09c0.906-0.312,1.812-0.625,2.718-0.937C186.726,155.877,185.81,156.161,184.768,156.09z"/>
		<path fill="#66C3B2" d="M182.712,156.786c0.45-0.152,0.901-0.305,1.352-0.457C183.731,156.821,183.281,156.975,182.712,156.786z"
			/>
		<path fill="#35495D" d="M154.691,211.581c-4.469,2.232-9.11,2.288-13.65,0.523c-7.269-2.826-11.349-8.257-11.611-15.967
			c-0.248-7.321,3.328-12.739,9.773-16.306c0.673-0.373,1.464-0.542,2.199-0.807c0.145,0.431,0.291,0.862,0.436,1.294
			c0.33,0.927-0.847,0.784-1.035,1.373c1.108-0.07,2.012-0.866,3.138-0.697c-0.54,0.228-1.081,0.455-1.621,0.683
			c-2.397,0.464-4.261,1.817-5.918,3.495c-7.611,7.71-4.715,20.559,5.455,24.424c2.648,1.005,5.342,1.049,8.089,0.888
			c-0.278,0.164-0.71,0.061-0.864,0.488c1.142,0.287,2.145-1.419,3.323-0.207c0.445,0.731-0.126,1.121-0.862,1.711
			C152.817,212.114,153.754,211.848,154.691,211.581z"/>
		<path fill="#223847" d="M141.837,180.319c-0.145-0.431-0.291-0.862-0.436-1.294c4.65-1.577,9.047-1.363,13.576,0.884
			c3.906,1.938,6.701,4.63,8.601,8.409c4.214,8.385-0.097,19.693-8.887,23.265c-0.937,0.267-1.874,0.533-3.148,0.896
			c0.736-0.59,1.307-0.979,0.862-1.711c3.159-1.049,5.707-3.05,7.782-5.492c1.424-1.676,1.974-3.925,2.793-5.993
			c0.836-2.115,0.25-3.744-0.422-5.548l-0.001-0.022c0.758-2.423-0.795-4.419-1.386-6.552c-0.728-2.631-3.504-3.482-5.543-4.853
			c-1.218-0.819-2.567-2.102-4.398-1.356v0.002c-0.321-0.753-0.845-0.495-1.363-0.267c-0.079,0.06-0.158,0.06-0.236-0.001
			c-0.315-0.659,0.658-0.968,0.549-1.655c-1.556,0.526-3.002,1.014-4.449,1.503v0.002
			C144.465,179.879,143.151,180.115,141.837,180.319z M151.746,179.716c0.103,0.008,0.243,0.06,0.3,0.013
			c0.056-0.047,0.028-0.191,0.037-0.294c-0.103-0.008-0.243-0.06-0.299-0.014C151.727,179.469,151.754,179.613,151.746,179.716z"/>
		<path fill="#FBCD43" d="M147.65,171.629c1.036-0.347,2.071-0.695,3.107-1.042c0.997,3.074,0.749,2.676,3.467,1.773
			c0.169-0.057,0.343-0.102,0.513-0.152c0.19,1.048-0.777,0.875-1.259,1.04c-9.229,3.151-18.481,6.241-27.71,9.394
			c-1.443,0.493-2.216,0.209-2.737-1.269c-0.545-1.545,0.502-1.695,1.478-2.004c0.401-0.126,0.813-0.213,1.219-0.318
			c0.09,0.279,0.196,0.555,0.268,0.839c0.291,1.158,0.668,1.845,2.197,1.33c1.55-0.521,1.361-1.313,0.892-2.389
			c-0.117-0.268-0.194-0.554-0.289-0.832c1.132-0.382,2.262-0.764,3.394-1.146c0.116,0.333,0.268,0.658,0.343,1.001
			c0.262,1.215,0.799,1.619,2.138,1.166c1.336-0.452,1.52-1.093,0.969-2.213c-0.155-0.315-0.249-0.659-0.371-0.991
			c1.037-0.352,2.075-0.704,3.112-1.056c0.095,0.279,0.206,0.553,0.28,0.836c0.298,1.139,0.642,1.873,2.194,1.346
			c1.544-0.523,1.381-1.304,0.903-2.388c-0.118-0.268-0.201-0.553-0.3-0.831c1.036-0.35,2.071-0.699,3.107-1.048
			c0.092,0.279,0.202,0.554,0.275,0.839c0.294,1.151,0.66,1.86,2.2,1.341c1.546-0.522,1.374-1.31,0.9-2.392
			C147.822,172.194,147.746,171.908,147.65,171.629z"/>
		<path fill="#EF9E21" d="M154.737,172.209c-0.171,0.051-0.344,0.096-0.513,0.152c-2.717,0.901-2.47,1.301-3.467-1.773
			c0.379-0.157,0.751-0.333,1.138-0.47C154.274,169.278,154.664,169.568,154.737,172.209z"/>
		<path fill="#EF9E21" d="M128.797,178.001c0.096,0.278,0.172,0.564,0.289,0.832c0.469,1.076,0.658,1.868-0.892,2.389
			c-1.53,0.514-1.908-0.174-2.197-1.33c-0.071-0.284-0.177-0.56-0.268-0.839C126.752,178.701,127.774,178.351,128.797,178.001z"/>
		<path fill="#EF9E21" d="M147.65,171.629c0.096,0.279,0.172,0.565,0.291,0.834c0.475,1.083,0.646,1.871-0.9,2.392
			c-1.539,0.52-1.906-0.189-2.2-1.341c-0.072-0.285-0.182-0.559-0.275-0.839C145.593,172.327,146.621,171.979,147.65,171.629z"/>
		<path fill="#EF9E21" d="M135.27,175.816c0.122,0.331,0.216,0.676,0.371,0.991c0.552,1.121,0.367,1.762-0.969,2.213
			c-1.34,0.452-1.876,0.048-2.138-1.166c-0.074-0.341-0.226-0.668-0.343-1.001C133.216,176.508,134.243,176.162,135.27,175.816z"/>
		<path fill="#EF9E21" d="M141.458,173.725c0.099,0.278,0.181,0.561,0.3,0.831c0.478,1.085,0.642,1.864-0.903,2.388
			c-1.551,0.526-1.896-0.208-2.194-1.346c-0.074-0.284-0.185-0.558-0.28-0.836C139.407,174.415,140.433,174.07,141.458,173.725z"/>
		<path fill="#EF9E21" d="M185.554,148.32c-9.109,3.05-18.218,6.103-27.329,9.148c-0.852,0.285-1.721,0.517-2.584,0.774
			c0.149-0.676-0.004-1.337-0.33-1.896c-0.93-1.595-0.221-2.078,1.331-2.587c8.911-2.92,17.782-5.963,26.666-8.963
			c2.259-0.763,2.262-0.763,2.996,1.4c0.171,0.507,0.315,1.022,0.471,1.533C186.37,147.925,185.961,148.122,185.554,148.32z"/>
		<path fill="#E35127" d="M181.057,168.619c0.554-0.237,1.109-0.474,1.663-0.711c6.44-1.125,12.865,1.355,15.939,6.508
			c3.316,5.561,3.434,11.24-0.343,16.716c-1.257,1.823-2.813,3.397-4.875,4.384c-0.916,0.279-1.831,0.558-2.747,0.838
			c-0.968-2.184-1.395-4.583-2.696-6.636c5.383-1.634,7.17-8.341,3.478-12.123c-1.679-1.72-3.68-2.267-5.956-2.299
			c-0.727-0.701-1.425,0.039-2.137,0.04C182.608,173.098,181.832,170.859,181.057,168.619z"/>
		<path fill="#5D5D65" d="M190.695,196.355c0.916-0.279,1.831-0.559,2.747-0.838c-1.73,1.193-3.802,1.519-5.731,2.206
			c-0.04-0.089-0.076-0.178-0.106-0.271C188.635,197.087,189.665,196.72,190.695,196.355z"/>
		<path fill="#F06E22" d="M190.695,196.355c-1.03,0.366-2.062,0.732-3.092,1.099c-8.786,0.611-15.57-4.552-16.776-13.477
			c-0.918-6.794,3.671-13.806,10.23-15.357c0.775,2.239,1.551,4.479,2.326,6.718c-0.651,0.392-1.583,0.428-1.797,1.376
			c-0.116,0.065-0.232,0.131-0.347,0.196c-0.546,0.052-0.74,0.421-0.826,0.888c-1.909,1.865-2.644,5.338-1.453,7.714
			c1.057,2.11,3.77,4.812,7.21,4.297c0.623,0.239,1.218-0.043,1.825-0.09C189.3,191.771,189.728,194.17,190.695,196.355z"/>
		<path fill="#E35127" d="M149.63,180.682c0.079,0.061,0.157,0.061,0.237,0c0.421,0.26,0.846,0.487,1.362,0.267v-0.002
			c2.409,1.118,4.841,2.147,6.791,4.069c2.475,2.441,3.564,5.523,4.538,8.694l0.001,0.022c-0.273,0.565-0.168,1.152-0.145,1.747
			c0.24,6.324-4.523,12.809-10.392,14.179c-0.81-2.316-1.621-4.632-2.43-6.948c4.273-1.412,6.97-6.708,3.756-11.339
			c-1.483-2.136-4.613-3.989-8.976-2.649c-0.059-2.526-1.451-4.674-2.052-7.046c0.54-0.228,1.081-0.455,1.622-0.683
			c0.597-0.155,1.192-0.308,1.789-0.463v-0.002C147.017,180.921,148.332,180.569,149.63,180.682z"/>
		<path fill="#F06E22" d="M149.591,202.711c0.81,2.316,1.621,4.632,2.43,6.949c-0.692,0.275-1.383,0.551-2.076,0.825
			c-2.748,0.161-5.442,0.117-8.089-0.888c-10.17-3.863-13.065-16.714-5.455-24.424c1.656-1.678,3.519-3.032,5.918-3.495
			c0.601,2.372,1.993,4.52,2.052,7.046c-0.17,0.178-0.34,0.357-0.51,0.535c-3.691,1.762-4.909,5.482-3.312,9.58
			c1.114,2.86,5.632,5.137,9.031,3.737L149.591,202.711z"/>
		<path fill="#273642" d="M149.945,210.485c0.692-0.275,1.383-0.549,2.076-0.825c5.869-1.372,10.632-7.856,10.392-14.181
			c-0.022-0.595-0.128-1.183,0.145-1.747c0.672,1.804,1.258,3.432,0.422,5.548c-0.819,2.07-1.368,4.318-2.793,5.993
			c-2.075,2.442-4.623,4.442-7.782,5.492c-1.178-1.212-2.181,0.495-3.323,0.207C149.235,210.547,149.668,210.649,149.945,210.485z"
			/>
		<path fill="#273642" d="M145.73,180.532c-0.597,0.155-1.192,0.308-1.789,0.463c-1.126-0.169-2.03,0.627-3.138,0.696
			c0.189-0.588,1.366-0.445,1.035-1.373C143.151,180.115,144.465,179.879,145.73,180.532z"/>
		<path fill="#273642" d="M162.557,193.71c-0.974-3.171-2.063-6.253-4.538-8.694c-1.948-1.921-4.382-2.95-6.791-4.069
			c1.831-0.744,3.18,0.539,4.398,1.357c2.04,1.37,4.816,2.222,5.543,4.853C161.762,189.291,163.316,191.287,162.557,193.71z"/>
		<path fill="#273642" d="M149.63,180.682c-1.297-0.113-2.613,0.24-3.9-0.152c1.447-0.488,2.893-0.977,4.449-1.503
			C150.288,179.714,149.313,180.022,149.63,180.682z"/>
		<path fill="#273642" d="M151.23,180.949c-0.516,0.22-0.943-0.008-1.362-0.267C150.384,180.454,150.908,180.197,151.23,180.949z"/>
		<path fill="#273642" d="M151.746,179.716c0.009-0.103-0.018-0.246,0.038-0.294c0.056-0.046,0.196,0.005,0.299,0.014
			c-0.008,0.102,0.019,0.247-0.037,0.294C151.989,179.776,151.849,179.724,151.746,179.716z"/>
		<path fill="#273642" d="M187.999,189.718c-0.607,0.046-1.204,0.328-1.826,0.09c1.614-0.721,1.538-1.988,1.067-3.341
			c-1.21-3.471-2.447-6.933-3.673-10.398c0.651-0.258,1.303-0.516,1.954-0.774c2.275,0.032,4.277,0.579,5.956,2.299
			C195.168,181.377,193.381,188.085,187.999,189.718z"/>
		<path fill="#5D5D65" d="M185.522,175.296c-0.651,0.258-1.303,0.516-1.953,0.774c-0.74-0.024-1.079,1.153-1.98,0.643
			c0.214-0.949,1.146-0.984,1.797-1.376C184.097,175.335,184.795,174.596,185.522,175.296z"/>
		<path fill="#35495D" d="M181.588,176.713c0.903,0.509,1.242-0.668,1.98-0.643c1.225,3.465,2.462,6.927,3.672,10.398
			c0.471,1.353,0.547,2.619-1.067,3.341c-3.44,0.514-6.153-2.188-7.21-4.298c-1.191-2.376-0.456-5.848,1.452-7.712
			c0.513-0.08,0.952-0.229,0.826-0.89C181.356,176.844,181.472,176.779,181.588,176.713z"/>
		<path fill="#5D5D65" d="M181.24,176.909c0.125,0.659-0.313,0.809-0.826,0.89C180.501,177.33,180.696,176.961,181.24,176.909z"/>
		<path fill="#273642" d="M143.861,189.258c0.17-0.178,0.34-0.357,0.51-0.535c4.363-1.34,7.493,0.512,8.976,2.649
			c3.215,4.631,0.516,9.928-3.756,11.339l-0.011-0.135c-1.392-3.992-2.795-7.981-4.165-11.98
			C145.148,189.817,144.902,189.117,143.861,189.258z"/>
		<path fill="#35495D" d="M143.861,189.258c1.041-0.142,1.287,0.559,1.555,1.339c1.37,3.999,2.773,7.988,4.165,11.98
			c-3.399,1.4-7.917-0.878-9.031-3.737C138.952,194.74,140.17,191.02,143.861,189.258z"/>
	</g>
	<g>
		<path fill="#F7F5E7" d="M43.222,144.789c-8.005,0.99-16.011,1.978-24.015,2.972c-4.289,0.533-4.287,0.539-3.347,4.821
			c0.026,0.519-0.106,1.005,0.025,1.565c0.968,4.144,1.796,8.302,3.36,12.31c1.57,4.024,3.346,7.927,5.667,11.56
			c3.623,5.668,8.018,10.703,13.276,14.976c-0.024,0.354-0.037,0.71-0.071,1.063c-0.643,6.667-1.288,13.335-1.933,20.002
			c-0.085,0.285-0.22,0.564-0.249,0.854c-0.521,5.083-0.973,10.172-1.575,15.245c-0.187,1.575,0.286,1.782,1.741,1.593
			c11.841-1.529,23.694-2.982,35.541-4.474c0.633-0.08,1.35,0.048,1.857-0.513c-1.738-5.646-3.901-11.137-6.166-16.592
			c-0.122-0.455-0.207-0.923-0.371-1.361c-2.306-6.192-4.624-12.379-6.939-18.568c4.25-5.69,7.325-11.957,9.333-18.727
			c2.521-8.496,3.382-17.131,2.03-25.929c-0.104-1.005-0.246-2.01-0.301-3.017c-0.054-0.981-0.434-1.313-1.479-1.176
			C60.816,142.553,52.018,143.665,43.222,144.789z"/>
		<path fill="#EF9E21" d="M71.388,145.588c1.353,8.797,0.491,17.432-2.03,25.928c-2.008,6.771-5.084,13.037-9.333,18.727
			c-3.586,0.46-7.171,0.919-10.757,1.379c-0.122-0.033-0.243-0.065-0.366-0.098c0.291-0.5,0.214-1.028,0.144-1.564
			c-1.674-12.924-3.362-25.845-4.988-38.774c-0.191-1.518-0.834-1.83-2.266-1.636c-6.271,0.846-12.554,1.615-18.835,2.389
			c-2.03,0.25-4.068,0.429-6.101,0.64c0.89-0.149,1.776-0.326,2.669-0.442c8.072-1.056,16.144-2.102,24.216-3.15
			C52.957,147.853,62.173,146.72,71.388,145.588z"/>
		<path fill="#FBCD43" d="M16.857,152.577c2.034-0.211,4.072-0.39,6.101-0.64c6.282-0.774,12.563-1.543,18.835-2.389
			c1.432-0.194,2.076,0.119,2.266,1.636c1.626,12.93,3.315,25.851,4.988,38.774c0.07,0.536,0.146,1.064-0.144,1.564
			c-3.571,0.49-7.143,0.981-10.714,1.471c-5.257-4.273-9.652-9.307-13.276-14.976c-2.321-3.632-4.097-7.536-5.667-11.56
			c-1.564-4.009-2.391-8.166-3.36-12.31c-0.131-0.561,0.002-1.047-0.025-1.565C16.191,152.581,16.523,152.579,16.857,152.577z"/>
		<path fill="#66C3B2" d="M73.5,226.765c-0.507,0.561-1.224,0.432-1.857,0.513c-11.847,1.492-23.699,2.945-35.541,4.474
			c-1.456,0.188-1.928-0.018-1.741-1.593c0.6-5.073,1.054-10.163,1.575-15.245c0.03-0.289,0.164-0.569,0.249-0.854
			c5.248-0.638,10.497-1.276,15.745-1.914c0.655,5.08,1.353,10.154,1.933,15.243c0.157,1.381,0.598,1.79,2.043,1.591
			C61.76,228.176,67.633,227.493,73.5,226.765z"/>
		<path fill="#54A297" d="M73.5,226.765c-5.867,0.728-11.74,1.411-17.596,2.215c-1.445,0.198-1.884-0.21-2.043-1.591
			c-0.58-5.088-1.278-10.163-1.933-15.243c-0.019-0.067-0.031-0.135-0.035-0.204c4.591-0.308,9.134-1.007,13.682-1.658l0.178,0.022
			l0.167-0.065c0.471-0.022,0.942-0.045,1.413-0.067C69.599,215.628,71.762,221.12,73.5,226.765z"/>
		<path fill="#35495D" d="M51.93,212.146c-5.248,0.638-10.497,1.276-15.745,1.914c0.645-6.667,1.29-13.335,1.933-20.002
			c0.034-0.353,0.047-0.709,0.071-1.063c3.571-0.49,7.143-0.981,10.714-1.471c0.122,0.033,0.245,0.065,0.366,0.098
			c0.875,6.773,1.75,13.546,2.625,20.319C51.899,212.01,51.911,212.079,51.93,212.146z"/>
		<path fill="#223847" d="M51.894,211.942c-0.875-6.773-1.75-13.546-2.625-20.319c3.586-0.46,7.171-0.919,10.757-1.378
			c2.314,6.188,4.631,12.377,6.939,18.568c0.164,0.439,0.249,0.907,0.371,1.361c-0.471,0.022-0.942,0.045-1.413,0.069
			c-0.115,0.014-0.23,0.028-0.345,0.043C61.028,210.935,56.485,211.632,51.894,211.942z"/>
		<path fill="#66C3B2" d="M16.857,152.577c-0.332,0.002-0.664,0.004-0.996,0.006c-0.94-4.281-0.94-4.287,3.347-4.82
			c8.004-0.995,16.01-1.982,24.015-2.972c0.174,1.399,0.346,2.796,0.519,4.195c-8.073,1.049-16.145,2.093-24.216,3.15
			C18.631,152.251,17.745,152.429,16.857,152.577z"/>
		<path fill="#54A297" d="M43.741,148.985c-0.172-1.399-0.346-2.796-0.519-4.195c8.796-1.125,17.594-2.236,26.386-3.395
			c1.044-0.138,1.425,0.195,1.479,1.176c0.056,1.009,0.197,2.012,0.301,3.019C62.173,146.72,52.957,147.853,43.741,148.985z"/>
		<path fill="#35495D" d="M65.576,210.284c0.115-0.014,0.23-0.028,0.345-0.043l-0.168,0.065L65.576,210.284z"/>
	</g>
	<g>
		<path fill="#F7F5E7" d="M187.916,94.109c0.013,1.994,1.103,2.689,2.996,2.424c0.172-0.024,0.349-0.014,0.523-0.02
			c0.143,0.249,0.326,0.486,0.422,0.751c2.025,5.644,7.535,9.656,13.586,9.642c6.918-0.017,11.693-3.314,14.334-9.622
			c3.706-2.069,3.94-6.006,0.515-8.649c-0.204-0.43-0.449-0.847-0.606-1.292c-1.96-5.541-6.689-9-12.373-9.629
			c-5.816-0.643-12.612,2.795-15.219,9.106c-1.948-0.41-3.56-0.161-4.163,2.066c-2.879-0.128-5.756-0.301-8.636-0.358
			c-0.961-0.019-1.209-0.288-1.145-1.22c0.195-2.837,0.294-5.68,0.431-8.52c2.138-0.398,2.658-1.857,2.521-3.747
			c-0.004-0.054,0.031-0.112,0.046-0.168c0.77-0.334,1.552-0.644,2.307-1.009c5.218-2.516,8.615-8.199,8.046-14.034
			c-0.585-5.985-3.672-10.311-9.501-12.515c-2.463-3.975-6.052-4.136-9.357-0.417c-10.571,2.985-14.256,15.857-6.876,23.868
			c1.578,1.713,3.642,2.666,5.513,3.929c-0.435,2.791-0.435,2.791,2.004,3.612c-0.281,3.303-0.066,6.638-0.649,9.923
			c-3.885-0.162-7.77-0.324-11.655-0.486c-0.727-0.515-1.401-1.133-2.192-1.523c-1.809-0.891-3.706-0.493-5.098,0.939
			c-1.361,1.401-1.542,3.278-0.663,5.09c1.066,2.196,4.957,3.453,7.434,0.527c3.654,0.202,7.307,0.436,10.964,0.581
			c0.937,0.038,1.187,0.278,1.134,1.225c-0.204,3.607-0.305,7.22-0.444,10.83c-0.261,0.248-0.538,0.481-0.78,0.745
			c-1.724,1.88-1.64,4.573,0.188,6.241c1.83,1.669,4.557,1.495,6.305-0.404c1.617-1.756,1.44-4.004-0.507-6.432
			c0.168-3.502,0.327-7.005,0.513-10.506c0.028-0.538-0.235-1.255,0.658-1.422C181.635,93.793,184.776,93.952,187.916,94.109z"/>
		<path fill="#EF9E21" d="M219.778,97.285c-2.642,6.306-7.416,9.605-14.334,9.622c-6.051,0.014-11.56-3.998-13.586-9.642
			c-0.096-0.266-0.279-0.502-0.422-0.751c-0.11-1.648-0.486-3.287-0.152-4.948c5.544,0.269,11.09,0.513,16.632,0.819
			c3.61,0.2,7.237,0.133,10.83,0.623C219.413,94.357,218.407,96.101,219.778,97.285z"/>
		<path fill="#E35127" d="M171.281,74.695c-1.87-1.263-3.934-2.216-5.513-3.929c-7.382-8.011-3.697-20.883,6.872-23.867
			c1.789,0.706,3.726,0.775,5.572,1.243c-0.663,0.497-0.961,1.127-0.996,1.977c-0.295,7.048-0.678,14.093-0.907,21.143
			c-0.041,1.25-0.551,2.589,0.214,3.815c-0.606,0.38-1.256,0.056-1.875,0.118C173.469,75.316,172.458,74.477,171.281,74.695z"/>
		<path fill="#FBCD43" d="M218.747,93.006c-3.594-0.489-7.22-0.423-10.83-0.623c-5.542-0.307-11.088-0.549-16.632-0.82
			c-0.237-1.666,0.235-3.212,0.807-4.742c2.61-6.312,9.405-9.749,15.221-9.106c5.684,0.629,10.413,4.088,12.373,9.629
			c0.158,0.447,0.403,0.862,0.607,1.292c-0.38-0.079-0.392,0.169-0.528,0.444C219.15,90.327,219.209,91.73,218.747,93.006z"/>
		<path fill="#F06E22" d="M176.523,75.078c-0.764-1.228-0.254-2.566-0.214-3.816c0.23-7.05,0.612-14.094,0.907-21.143
			c0.035-0.849,0.333-1.48,0.997-1.977c1.231-0.418,2.602-0.209,3.788-0.827c5.829,2.205,8.916,6.53,9.501,12.515
			c0.569,5.834-2.827,11.517-8.046,14.034c-0.755,0.364-1.538,0.673-2.307,1.009C179.608,74.949,178.099,75.746,176.523,75.078z"/>
		<path fill="#223847" d="M172.117,105.414c0.139-3.61,0.24-7.223,0.444-10.829c0.054-0.948-0.197-1.187-1.134-1.225
			c-3.657-0.145-7.309-0.38-10.964-0.581c0.305-0.781,0.608-1.563,0.913-2.344c3.115,0.097,6.231,0.19,9.346,0.292
			c2.175,0.071,2.408-0.229,1.914-2.494c0.582-3.284,0.367-6.62,0.649-9.923c0.923,0.117,1.844,0.235,2.767,0.352
			c-0.087,1.002-0.207,2.004-0.259,3.008c-0.403,7.682-0.792,15.364-1.185,23.046C173.745,104.837,172.886,104.968,172.117,105.414z
			"/>
		<path fill="#35495D" d="M174.608,104.714c0.393-7.682,0.783-15.364,1.185-23.046c0.053-1.004,0.171-2.005,0.259-3.007
			c0.844,0.017,1.719-0.555,2.528,0.128c-0.137,2.841-0.236,5.684-0.431,8.52c-0.064,0.933,0.184,1.202,1.145,1.22
			c2.88,0.058,5.757,0.23,8.636,0.358c0.418,0.842-0.026,1.649-0.109,2.47c-2.626-0.074-5.253-0.17-7.88-0.208
			c-0.617-0.008-1.471-0.444-1.817,0.203c-0.384,0.716-0.34,1.614,0.371,2.281c-0.893,0.168-0.63,0.886-0.658,1.422
			c-0.185,3.502-0.345,7.004-0.513,10.506C176.419,105.281,175.513,104.998,174.608,104.714z"/>
		<path fill="#54A297" d="M161.377,90.433c-0.305,0.781-0.608,1.563-0.913,2.344c-2.476,2.926-6.368,1.669-7.434-0.527
			c-0.879-1.811-0.698-3.688,0.663-5.09c1.392-1.432,3.289-1.83,5.098-0.939c0.79,0.389,1.465,1.008,2.192,1.523
			C161.113,88.641,161.245,89.538,161.377,90.433z"/>
		<path fill="#54A297" d="M174.608,104.714c0.906,0.284,1.811,0.567,2.717,0.851c1.947,2.428,2.123,4.675,0.507,6.432
			c-1.749,1.9-4.475,2.075-6.305,0.404c-1.828-1.668-1.913-4.362-0.188-6.241c0.242-0.265,0.519-0.497,0.78-0.745
			C172.886,104.968,173.745,104.837,174.608,104.714z"/>
		<path fill="#54A297" d="M178.581,78.788c-0.809-0.683-1.685-0.111-2.528-0.128c-0.923-0.118-1.844-0.235-2.767-0.352
			c-2.44-0.822-2.44-0.822-2.004-3.613c1.177-0.219,2.188,0.619,3.366,0.5c0.619-0.063,1.269,0.262,1.875-0.118
			c1.576,0.669,3.086-0.128,4.626-0.204c-0.018,0.057-0.051,0.113-0.047,0.168C181.239,76.931,180.719,78.389,178.581,78.788z"/>
		<path fill="#54A297" d="M187.822,91.358c0.084-0.821,0.528-1.627,0.109-2.47c0.604-2.227,2.215-2.476,4.162-2.066
			c-0.573,1.531-1.046,3.078-0.808,4.742c-0.333,1.661,0.043,3.301,0.151,4.948c-0.175,0.006-0.351-0.004-0.523,0.02
			c-1.893,0.265-2.983-0.43-2.996-2.424C187.885,93.192,187.853,92.275,187.822,91.358z"/>
		<path fill="#35495D" d="M161.377,90.433c-0.131-0.896-0.263-1.792-0.395-2.688c3.885,0.162,7.77,0.324,11.655,0.486
			c0.494,2.265,0.26,2.565-1.914,2.494C167.607,90.625,164.491,90.53,161.377,90.433z"/>
		<path fill="#223847" d="M187.822,91.358c0.032,0.917,0.063,1.834,0.095,2.752c-3.14-0.158-6.28-0.315-9.421-0.474
			c-0.711-0.668-0.755-1.565-0.371-2.281c0.347-0.647,1.2-0.211,1.817-0.203C182.568,91.188,185.194,91.284,187.822,91.358z"/>
		<path fill="#54A297" d="M218.747,93.006c0.462-1.276,0.403-2.679,1.018-3.926c0.136-0.275,0.148-0.523,0.528-0.444
			c3.425,2.644,3.19,6.581-0.515,8.65C218.407,96.101,219.413,94.357,218.747,93.006z"/>
		<path fill="#54A297" d="M182.001,47.315c-1.186,0.618-2.557,0.409-3.788,0.827c-1.847-0.469-3.784-0.536-5.573-1.243
			C175.949,43.18,179.538,43.339,182.001,47.315z"/>
	</g>
</g>
</svg>
