<?xml version="1.0" encoding="utf-8"?>
<!-- Generator: Adobe Illustrator 17.0.0, SVG Export Plug-In . SVG Version: 6.00 Build 0)  -->
<!DOCTYPE svg PUBLIC "-//W3C//DTD SVG 1.1//EN" "http://www.w3.org/Graphics/SVG/1.1/DTD/svg11.dtd">
<svg version="1.1" id="Layer_1" xmlns="http://www.w3.org/2000/svg" xmlns:xlink="http://www.w3.org/1999/xlink" x="0px" y="0px"
	 width="200px" height="200px" viewBox="0 0 200 200" enable-background="new 0 0 200 200" xml:space="preserve">
<path fill="#FFFFFF" d="M164.894,56.143c0,4.477-4.702,8.065-10.503,8.065H45.609c-5.801,0-10.503-3.588-10.503-8.065l0,0
	c0-4.477,4.702-8.065,10.503-8.065h108.782C160.192,48.078,164.894,51.666,164.894,56.143L164.894,56.143z"/>
<path fill="#FFFFFF" d="M164.894,100.593c0,4.477-4.702,8.065-10.503,8.065H45.609c-5.801,0-10.503-3.588-10.503-8.065l0,0
	c0-4.477,4.702-8.065,10.503-8.065h108.782C160.192,92.528,164.894,96.117,164.894,100.593L164.894,100.593z"/>
<path fill="#FFFFFF" d="M164.894,148.607c0,4.477-4.702,8.065-10.503,8.065H45.609c-5.801,0-10.503-3.588-10.503-8.065l0,0
	c0-4.477,4.702-8.065,10.503-8.065h108.782C160.192,140.542,164.894,144.131,164.894,148.607L164.894,148.607z"/>
</svg>
