<?xml version="1.0" encoding="utf-8"?>
<!-- Generator: Adobe Illustrator 17.0.0, SVG Export Plug-In . SVG Version: 6.00 Build 0)  -->
<!DOCTYPE svg PUBLIC "-//W3C//DTD SVG 1.1//EN" "http://www.w3.org/Graphics/SVG/1.1/DTD/svg11.dtd">
<svg version="1.1" id="Layer_1" xmlns="http://www.w3.org/2000/svg" xmlns:xlink="http://www.w3.org/1999/xlink" x="0px" y="0px"
	 width="200px" height="200px" viewBox="0 0 200 200" enable-background="new 0 0 200 200" xml:space="preserve">
<path fill="#FFFFFF" d="M186.5,47.5c0,9.713-6.268,17.5-14,17.5h-145c-7.732,0-14-7.787-14-17.5l0,0c0-9.713,6.268-17.5,14-17.5h145
	C180.232,30,186.5,37.787,186.5,47.5L186.5,47.5z"/>
<path fill="#FFFFFF" d="M186.5,102.5c0,9.713-6.268,17.5-14,17.5h-145c-7.732,0-14-7.787-14-17.5l0,0c0-9.713,6.268-17.5,14-17.5
	h145C180.232,85,186.5,92.787,186.5,102.5L186.5,102.5z"/>
<path fill="#FFFFFF" d="M186.5,155.5c0,9.713-6.268,17.5-14,17.5h-145c-7.732,0-14-7.787-14-17.5l0,0c0-9.713,6.268-17.5,14-17.5
	h145C180.232,138,186.5,145.787,186.5,155.5L186.5,155.5z"/>
</svg>
