<?xml version="1.0" encoding="utf-8"?>
<!-- Generator: Adobe Illustrator 17.0.0, SVG Export Plug-In . SVG Version: 6.00 Build 0)  -->
<!DOCTYPE svg PUBLIC "-//W3C//DTD SVG 1.1//EN" "http://www.w3.org/Graphics/SVG/1.1/DTD/svg11.dtd">
<svg version="1.1" id="Layer_1" xmlns="http://www.w3.org/2000/svg" xmlns:xlink="http://www.w3.org/1999/xlink" x="0px" y="0px"
	 width="200px" height="200px" viewBox="0 0 200 200" enable-background="new 0 0 200 200" xml:space="preserve">
<path fill="none" stroke="#FFFFFF" stroke-width="16" stroke-miterlimit="10" d="M184,175.927c0,5.563-4.51,10.073-10.073,10.073
	H26.073C20.51,186,16,181.49,16,175.927V28.073C16,22.51,20.51,18,26.073,18h147.853C179.49,18,184,22.51,184,28.073V175.927z"/>
<g enable-background="new    ">
	<path fill="#FFFFFF" d="M45.748,56.686c6.216-1.036,14.355-1.924,24.715-1.924c12.728,0,22.051,2.96,27.971,8.288
		c5.477,4.736,8.732,11.988,8.732,20.867c0,9.028-2.664,16.132-7.696,21.312c-6.808,7.252-17.907,10.952-30.487,10.952
		c-3.848,0-7.4-0.148-10.36-0.889v39.959H45.748V56.686z M58.623,104.784c2.812,0.739,6.364,1.035,10.656,1.035
		c15.54,0,25.011-7.548,25.011-21.311c0-13.172-9.324-19.536-23.531-19.536c-5.624,0-9.916,0.444-12.136,1.036V104.784z"/>
	<path fill="#FFFFFF" d="M113.01,141.931c3.848,2.516,10.654,5.18,17.167,5.18c9.472,0,13.911-4.736,13.911-10.655
		c0-6.216-3.699-9.62-13.319-13.172c-12.876-4.588-18.943-11.691-18.943-20.275c0-11.544,9.323-21.016,24.715-21.016
		c7.252,0,13.616,2.072,17.611,4.44l-3.256,9.472c-2.812-1.776-7.991-4.145-14.651-4.145c-7.695,0-11.987,4.44-11.987,9.768
		c0,5.92,4.292,8.584,13.615,12.136c12.432,4.736,18.796,10.952,18.796,21.607c0,12.58-9.768,21.459-26.787,21.459
		c-7.844,0-15.096-1.924-20.127-4.884L113.01,141.931z"/>
</g>
</svg>
