<?xml version="1.0" encoding="utf-8"?>
<!-- Generator: Adobe Illustrator 17.0.0, SVG Export Plug-In . SVG Version: 6.00 Build 0)  -->
<!DOCTYPE svg PUBLIC "-//W3C//DTD SVG 1.1//EN" "http://www.w3.org/Graphics/SVG/1.1/DTD/svg11.dtd">
<svg version="1.1" id="Layer_1" xmlns="http://www.w3.org/2000/svg" xmlns:xlink="http://www.w3.org/1999/xlink" x="0px" y="0px"
	 width="250px" height="250px" viewBox="12.917 17.751 250 250" enable-background="new 12.917 17.751 250 250"
	 xml:space="preserve">
<path fill="#706060" d="M89.747,268.753c-17.233,0-34.466,0-51.699,0c0.336-1.243,1.23-2.171,1.877-3.229
	c1.999-3.27,4.095-6.481,6.154-9.714c2.791-4.379,5.586-8.756,8.373-13.137c1.629-2.56,3.263-5.116,4.859-7.695
	c0.645-1.042,1.5-1.616,2.74-1.596c0.383,0.006,0.765-0.039,1.148-0.061c2.361,0.296,4.673,0.856,6.915,1.608
	c6.539,2.192,12.77,5.063,18.616,8.742c2.546,1.602,4.996,3.318,6.838,5.757"/>
<path fill="#706060" d="M226.428,256.523c-1.862-3.398-3.764-6.772-5.634-10.166c-2.745-4.984-5.532-9.947-8.183-14.981
	c-0.796-1.511-1.894-2.235-3.497-2.394c-3.562-0.007-6.923,0.823-10.322,1.913c-4.957,1.59-9.57,3.814-14.06,6.367
	c-0.842,0.479-1.689,0.982-2.402,1.661c-1.178,0.065-6.746,5.82-5.775,5.449l1.608,15.048c-0.057-0.051-0.004,0.247,0.014,0.474
	c0.056,0.25,0.093,0.504,0.11,0.76c0.142,0.48,0.285,0.854,0.43,1.456c0.567,2.352,0.96,4.257,1.398,6.641h52.96
	C230.861,264.676,228.659,260.592,226.428,256.523z"/>
<path fill="#F1EDEB" d="M201.593,18.753c0.367-0.024,0.532,0.14,0.564,0.454c0.035,0.347,0.023,0.699,0.023,1.049
	c0.003,24.542,0.004,49.083,0.006,73.625c-0.415,0.013-0.83,0.035-1.246,0.039c-2.667,0.023-5.335,0.042-8.002,0.062
	c-0.487-0.017-0.974-0.032-1.461-0.049c-1.412,0.002-2.823,0.004-4.235,0.007c-0.061-0.021-0.12-0.016-0.177,0.016
	c-0.201-0.031-0.403-0.062-0.604-0.093c-0.253-0.573-0.667-0.88-1.316-0.799c-2.585,0.002-5.169,0.003-7.754,0.004
	c-0.614-0.037-0.818,0.426-1.045,0.86c-1.782-0.002-3.564,0.003-5.345-0.005c-3.95-0.017-7.901-0.038-11.851-0.058
	c-0.215-0.614-0.651-0.82-1.292-0.814c-2.444,0.023-4.889,0.029-7.333-0.005c-0.722-0.011-1.21,0.227-1.497,0.882
	c-5.693,0.012-11.386,0.025-17.079,0.038c-0.251-0.662-0.7-0.929-1.435-0.918c-2.463,0.038-4.928,0.024-7.391,0.006
	c-0.633-0.004-1.089,0.165-1.238,0.836c-2.413,0.012-4.827,0.019-7.24,0.038c-2.061,0.016-4.123,0.045-6.184,0.067
	c-0.347-0.024-0.694-0.046-1.041-0.069c-0.92,0.323-1.84,0.059-2.759-0.005c-0.322-0.679-0.854-0.899-1.602-0.886
	c-2.405,0.041-4.812,0.032-7.217,0.025c-0.632-0.002-1.088,0.195-1.264,0.844c-5.044-0.007-10.088-0.015-15.132-0.022
	c-0.397-0.271-0.42-0.666-0.42-1.105c0.007-24.253,0.01-48.507-0.008-72.76c-0.001-0.865,0.272-1.163,1.147-1.157 M128.833,39.266
	c0.247,0.072,0.258,0.309,0.335,0.493c1.019,2.408,2.093,4.796,3.023,7.237c0.428,1.123,0.962,1.685,2.242,1.546
	c0.71-0.077,0.94-0.221,0.929-0.957c-0.042-2.764-0.023-5.527-0.006-8.291c0.002-0.329-0.226-0.836,0.412-0.884
	c0.416-0.032,0.657-0.168,0.576-0.649c-0.073-0.437-0.238-0.683-0.739-0.658c-0.628,0.031-1.258-0.018-1.888-0.012
	c-0.323,0.004-0.759-0.142-0.788,0.414c-0.02,0.386-0.056,0.805,0.511,0.847c0.333,0.025,0.489,0.19,0.488,0.539
	c-0.007,2.457-0.004,4.914-0.004,7.371c-1.174-2.189-2.174-4.402-3.072-6.654c-1.013-2.54-0.973-2.556-3.671-2.52
	c-0.07,0.001-0.14-0.004-0.21,0.001c-0.292,0.024-0.685-0.104-0.672,0.406c0.009,0.356-0.161,0.829,0.448,0.87
	c0.49,0.032,0.516,0.348,0.514,0.73c-0.007,2.446-0.002,4.891-0.002,7.336c0,0.396,0.001,0.8-0.552,0.831
	c-0.488,0.027-0.418,0.37-0.386,0.685c0.036,0.353,0.179,0.575,0.594,0.562c0.699-0.022,1.399-0.003,2.099-0.008
	c0.306-0.003,0.679,0.068,0.656-0.429c-0.015-0.324,0.136-0.756-0.412-0.795c-0.559-0.04-0.546-0.44-0.549-0.834
	c-0.006-0.63-0.018-1.259-0.006-1.889c0.032-1.77-0.154-3.546,0.146-5.307L128.833,39.266z M147.67,46.594
	c-0.429-1.947-0.848-3.569-1.12-5.215c-0.118-0.717-0.329-0.992-1.045-0.847c-0.271,0.055-0.558,0.028-0.837,0.043
	c-0.25,0.014-0.518,0.023-0.494,0.38c0.018,0.262-0.092,0.644,0.292,0.687c0.673,0.075,0.69,0.564,0.79,1.046
	c0.344,1.673,0.691,3.347,1.071,5.012c0.088,0.384,0.009,0.993,0.755,0.852c0.61-0.116,1.41,0.32,1.638-0.757
	c0.333-1.566,0.768-3.109,1.205-4.844c0.153,0.4,0.257,0.617,0.32,0.846c0.377,1.377,0.764,2.751,1.104,4.137
	c0.143,0.581,0.507,0.757,0.996,0.62c0.434-0.121,1.093,0.363,1.289-0.469c0.487-2.071,1.018-4.131,1.487-6.206
	c0.294-1.3,0.119-1.46-1.231-1.321c-0.26,0.027-0.633-0.066-0.686,0.308c-0.039,0.275-0.154,0.687,0.281,0.789
	c0.414,0.097,0.359,0.342,0.292,0.628c-0.333,1.418-0.665,2.835-1.037,4.421c-0.559-1.912-1.137-3.625-1.54-5.378
	c-0.209-0.909-0.8-0.555-1.279-0.628c-0.514-0.078-0.792,0.072-0.923,0.679C148.641,43.033,148.17,44.667,147.67,46.594z
	 M142.307,72.997c0,0.004,0,0.009,0,0.013c0.489,0,0.979,0.008,1.468-0.003c0.338-0.008,0.739,0.066,0.778-0.46
	c0.034-0.459-0.306-0.511-0.62-0.522c-1.275-0.044-1.629-0.742-1.433-1.9c0.063-0.374,0.03-0.769,0.009-1.151
	c-0.025-0.468,0.14-0.593,0.615-0.515c0.954,0.157,1.871,0.048,2.702-0.525c1.373-0.947,2.005-3.261,1.375-5.123
	c-0.69-2.038-2.198-2.827-4.249-2.215c-0.197,0.059-0.398,0.225-0.589,0.068c-0.63-0.518-1.266-0.075-1.898-0.038
	c-0.297,0.018-0.557,0.093-0.492,0.496c0.046,0.289,0.082,0.598,0.465,0.563c0.599-0.055,0.576,0.322,0.575,0.729
	c-0.004,2.902-0.005,5.803,0.004,8.705c0.002,0.41-0.01,0.778-0.505,0.885c-0.312,0.067-0.498,0.166-0.382,0.566
	c0.101,0.345,0.292,0.433,0.604,0.429C141.258,72.992,141.783,72.997,142.307,72.997z M130.738,64.512c-0.002,0-0.004,0-0.006,0
	c0-0.665,0.015-1.329-0.003-1.994c-0.03-1.106-0.617-1.789-1.694-2.093c-0.642-0.181-1.275-0.144-1.844,0.124
	c-0.827,0.388-0.925,0.04-0.891-0.676c0.041-0.872,0.006-1.749,0.014-2.623c0.006-0.674-0.335-0.955-0.983-0.889
	c-0.347,0.036-0.69,0.109-1.037,0.144c-0.31,0.032-0.553,0.098-0.51,0.491c0.031,0.289,0.05,0.592,0.449,0.559
	c0.471-0.039,0.591,0.181,0.589,0.617c-0.013,2.868-0.009,5.736-0.008,8.604c0,0.335-0.031,0.623-0.468,0.671
	c-0.269,0.03-0.58,0.065-0.443,0.509c0.103,0.334,0.222,0.55,0.633,0.533c0.733-0.03,1.468-0.006,2.203-0.016
	c0.233-0.004,0.532,0.049,0.562-0.304c0.023-0.269,0.081-0.641-0.297-0.681c-0.78-0.083-0.695-0.621-0.693-1.148
	c0.005-1.119-0.014-2.238,0.003-3.357c0.011-0.792,0.68-1.308,1.657-1.313c0.861-0.004,1.287,0.424,1.283,1.291
	c-0.006,1.259-0.008,2.518,0.003,3.778c0.003,0.381-0.018,0.694-0.515,0.722c-0.296,0.018-0.549,0.112-0.447,0.525
	c0.09,0.36,0.264,0.515,0.652,0.5c0.766-0.028,1.535-0.005,2.302-0.015c0.19-0.003,0.445,0.066,0.49-0.237
	c0.041-0.282,0.068-0.627-0.286-0.685c-0.874-0.144-0.722-0.778-0.717-1.358C130.741,65.632,130.738,65.072,130.738,64.512z
	 M119.996,68.534c0.814,0.019,1.599-0.107,2.361-0.408c0.533-0.211,0.627-0.472,0.418-1.038c-0.22-0.595-0.461-0.508-0.927-0.339
	c-1.842,0.666-3.554,0.245-4.666-1.094c-1.201-1.446-1.443-3.639-0.547-5.205c0.708-1.238,1.788-1.874,3.216-2.056
	c1.293-0.165,1.311,0.851,1.656,1.586c0.158,0.337,0.444,0.28,0.719,0.278c0.208-0.002,0.482,0.011,0.46-0.28
	c-0.062-0.835-0.039-1.709-0.296-2.486c-0.195-0.591-0.984-0.412-1.511-0.482c-3.503-0.471-6.232,1.743-6.488,5.224
	C114.13,65.793,116.503,68.461,119.996,68.534z M138.463,64.674c0-0.56,0.006-1.118-0.001-1.678
	c-0.019-1.544-0.605-2.284-2.043-2.59c-1.453-0.31-2.928,0.323-3.49,1.496c-0.101,0.211-0.292,0.395,0.051,0.603
	c0.644,0.391,1.405,0.244,1.75-0.417c0.372-0.71,0.97-0.577,1.546-0.431c0.734,0.187,0.623,0.795,0.637,1.361
	c0.018,0.745-0.5,0.6-0.933,0.629c-0.526,0.035-1.025,0.175-1.523,0.355c-1.31,0.473-1.962,1.534-1.7,2.832
	c0.213,1.053,1.435,1.891,2.669,1.678c0.914-0.158,1.78-0.7,2.703,0.001c0.14,0.106,0.483,0.004,0.709-0.073
	c0.542-0.185,0.694-0.987,0.21-1.097c-0.768-0.176-0.568-0.651-0.582-1.095C138.453,65.723,138.465,65.198,138.463,64.674z
	 M157.765,68.543c0.538,0.043,1.123-0.198,1.716-0.405c0.548-0.192,0.502-0.581,0.357-1.022c-0.203-0.618-0.539-0.202-0.812-0.102
	c-1.377,0.507-2.512,0.202-3.136-0.841c-0.306-0.511-0.327-0.829,0.408-0.869c0.59-0.032,1.187-0.102,1.763-0.23
	c1.348-0.303,2.287-1.664,2.022-2.863c-0.278-1.259-1.598-2.073-2.99-1.844c-1.957,0.321-3.357,2.224-3.222,4.377
	C154.015,67.046,155.484,68.52,157.765,68.543z M137.28,44.505c-0.034,3.112,2.575,4.952,5.38,3.777
	c0.388-0.163,0.858-0.292,0.609-0.974c-0.257-0.707-0.623-0.317-0.965-0.199c-1.292,0.447-2.533,0.151-2.978-0.728
	c-0.293-0.579-0.314-1.014,0.528-0.991c0.895,0.024,1.731-0.185,2.499-0.651c0.913-0.553,1.273-1.391,1.1-2.407
	c-0.178-1.045-0.86-1.621-1.918-1.777C139.098,40.196,137.31,41.848,137.28,44.505z M149.612,64.527c0.002,0,0.004,0,0.004,0
	c0,0.701-0.013,1.401,0.003,2.101c0.035,1.585,1.299,2.372,2.755,1.699c0.342-0.158,0.872-0.257,0.629-0.878
	c-0.193-0.491-0.532-0.453-0.94-0.316c-0.765,0.256-1.011-0.109-0.998-0.834c0.02-1.188,0.046-2.379-0.013-3.566
	c-0.042-0.827,0.148-1.281,1.08-1.12c0.483,0.084,0.681-0.124,0.677-0.64c-0.004-0.494-0.159-0.757-0.66-0.661
	c-1.042,0.198-1.172-0.376-1.083-1.196c0.037-0.346,0.018-0.701,0.002-1.05c-0.016-0.33,0.073-0.799-0.501-0.672
	c-0.39,0.087-0.986-0.04-0.952,0.685c0.02,0.419-0.034,0.844,0.011,1.26c0.074,0.683-0.088,1.081-0.884,0.983
	c-0.34-0.042-0.769-0.07-0.663,0.504c0.065,0.351-0.002,0.867,0.595,0.78c0.977-0.142,0.983,0.448,0.947,1.139
	C149.588,63.339,149.612,63.935,149.612,64.527z M163.546,68.48c0.594,0,1.188,0.001,1.782-0.001
	c0.249-0.001,0.503,0.006,0.52-0.349c0.015-0.293,0.013-0.561-0.36-0.644c-0.34-0.075-0.673-0.178-1.011-0.262
	c-0.326-0.081-0.736-0.045-0.73-0.56c0.013-1.222-0.06-2.453,0.06-3.664c0.104-1.055,0.877-1.284,1.825-0.762
	c0.633,0.348,1.131-0.224,1.525-0.567c0.36-0.313-0.146-0.611-0.386-0.803c-0.832-0.664-1.723-0.633-2.639-0.146
	c-0.199,0.106-0.402,0.537-0.659,0.158c-0.602-0.884-1.32-0.191-1.981-0.186c-0.279,0.003-0.285,0.254-0.269,0.471
	c0.016,0.211,0.039,0.498,0.282,0.493c1-0.024,0.734,0.693,0.74,1.228c0.014,1.257-0.005,2.516,0.008,3.773
	c0.004,0.416-0.002,0.771-0.553,0.802c-0.336,0.018-0.496,0.187-0.399,0.561c0.081,0.315,0.219,0.477,0.57,0.463
	C162.427,68.466,162.987,68.483,163.546,68.48z"/>
<path fill="#EEB990" d="M95.57,249.426c-1.842-2.439-4.292-4.155-6.838-5.757c-5.847-3.679-12.078-6.55-18.616-8.742
	c-2.243-0.752-4.554-1.313-6.915-1.608c0.767-1.909,1.466-3.849,2.321-5.718c0.899-1.963,1.385-3.991,1.551-6.135
	c0.257-3.317,0.049-6.642,0.231-9.954c0.162-2.953,0.512-5.896,0.778-8.843c0.513-2.621,0.649-5.293,1.084-7.923
	c0.36-2.179,0.025-4.378,0.326-6.552c0.01-0.106,0.019-0.213,0.029-0.32c0.004-0.23,0.009-0.46,0.013-0.69
	c0.025-1.294,0.155-2.575,0.354-3.858c0.648-4.194,2.277-8.056,3.973-11.893c1.408-3.183,4.79-4.849,7.908-3.954
	c1.406,0.404,2.102,0.102,2.943-1.279c0.299-0.014,0.51-0.201,0.723-0.377c1.554-1.291,3.388-1.806,5.36-1.941
	c1.266,0.241,2.543,0.42,3.679,1.121c0.877,0.541,1.13,0.409,1.573-0.674c0.49-0.011,0.684-0.44,0.988-0.708
	c0.651-0.572,1.066-1.35,1.78-1.89c1.56-1.18,3.278-2.061,5.034-2.884c1.149-0.039,2.251-0.357,3.373-0.557
	c1.357-0.241,2.635-0.927,4.07-0.729c2.105,0.243,3.863,1.074,5.025,2.935c0.362,0.58,0.391,1.148,0.109,1.782
	c-0.797,1.803-2.436,2.356-4.128,2.826c-0.487,0.135-1.03,0.11-1.327,0.63c-1.769,0.266-3.004,1.308-3.979,2.73
	c-0.329,0.281-0.557,0.644-0.609,1.061c-0.158,1.241-0.735,2.292-1.332,3.364c-0.635,1.141-1.547,2.105-2.052,3.32
	c-0.804,1.201-1.504,2.435-1.389,4.276c1.006-1.229,1.868-2.177,2.884-2.965c3.21-1.401,4.571-4.432,6.295-7.142
	c1.032-0.931,2.109-1.813,2.996-2.894c0.552-0.241,1.179-0.406,1.176-1.194c0.91-0.665,1.82-1.332,2.73-1.997
	c1.475-0.727,3.045-1.194,4.613-1.666c1.271-0.109,2.523-0.304,3.816-0.035c2.028,0.422,2.686,1.164,2.12,3.041
	c-0.06,0.198-0.08,0.408-0.118,0.612c-0.665,1.402-1.559,2.636-2.678,3.714c-0.318,0.306-0.753,0.538-0.821,1.046
	c-0.144,0.086-0.309,0.148-0.426,0.262c-1.298,1.261-2.33,2.734-3.246,4.277c-0.482,0.812-1.333,1.443-1.339,2.511
	c-1.142,0.98-1.843,2.321-2.82,3.437c-0.488,0.557-0.847,1.186-0.973,1.928c-0.147,0.28-0.187,0.583-0.246,0.892
	c-0.268,1.426-0.158,2.888-0.558,4.314c-0.314,1.119-0.897,2.183-0.875,3.391c-0.595,1.349-0.669,2.774-0.633,4.217
	c-0.587,2.729,0.266,5.493-0.211,8.228c-0.123,0.705,0.222,1.059,0.905,0.659c1.998-1.169,3.659-2.613,4.153-5.055
	c0.24-1.185,0.126-2.369,0.21-3.55c0.344-1.356,0.689-2.71,1.033-4.066c0.936-1.165,1.514-2.566,2.479-3.719
	c1.356-1.62,2.836-3.085,4.767-4c1.912-0.905,2.867-0.308,2.847,1.756c-0.021,2.162,0.077,4.327-0.186,6.482
	c-0.018,1.3-0.116,2.605,0.184,3.891c0.117,0.609,0.27,1.215,0.345,1.828c0.152,1.245,0.837,2.336,0.935,3.61
	c0.129,1.67-0.431,3.138-1.067,4.609c-1.531,1.757-3.205,3.383-4.35,5.468c-1.341,2.44-2.87,4.777-4.256,7.194
	c-2.292,3.998-5.281,7.253-9.197,9.79c-5.809,3.764-10.578,8.646-14.095,14.645C97.009,245.707,96.169,247.524,95.57,249.426z"/>
<path fill="#B3A583" d="M69.492,188.194c-0.3,2.173,0.035,4.374-0.325,6.552c-0.434,2.63-0.571,5.302-1.084,7.923
	c-5.75-1.035-9.553-4.45-11.504-9.831c-1.539-4.247-2.069-8.751-2.736-13.203c-0.85-5.672-1.233-11.383-1.546-17.107
	c-0.609-11.123-0.31-22.253-0.397-33.379c-0.036-4.635,1.618-5.07,5.208-5.139c5.775-0.11,11.553-0.038,17.329-0.035
	c7.491,0.003,14.982,0.011,22.474,0.017c-0.043,0.275-0.072,0.553-0.132,0.824c-0.537,2.426,0.12,4.023,2.149,5.404
	c1.616,1.1,3.473,1.456,5.329,1.704c4.624,0.616,9.255,1.213,13.898,1.657c4.753,0.454,9.52,0.888,14.29,1.026
	c6.85,0.2,13.709,0.152,20.56-0.176c1.88-0.09,3.763-0.202,5.631-0.42c4.428-0.517,8.894-0.716,13.291-1.461
	c2.535-0.43,5.13-0.468,7.602-1.342c3.513-1.241,4.981-3.578,4.363-7.236c13.198,0.002,26.395,0.004,39.593,0.007
	c0.699,0,1.392,0.032,2.091,0.126c2.435,0.327,3.236,1.152,3.282,3.606c0.104,5.457,0.11,10.918,0.29,16.373
	c0.129,3.92,0.166,7.839,0.076,11.756c-0.113,4.892-0.211,9.795-0.608,14.67c-0.581,7.135-1.445,14.256-3.358,21.175
	c-1.621,5.861-6.032,10.18-12.33,11.088c-1.83,0.264-3.652,0.582-5.477,0.877c0.331-1.412,0.222-2.85,0.173-4.271
	c-0.022-0.634,0.335-1.161,0.219-1.812c-0.317-1.769-0.542-3.553-0.804-5.332c3.27-0.791,5.05-3.117,6.009-6.111
	c1.257-3.92,2.177-7.918,2.657-12.034c0.412-3.543,0.621-7.089,0.731-10.641c0.123-3.983-0.159-7.967-0.415-11.94
	c-0.151-2.347-1.047-4.482-2.595-6.289c-2.305-2.692-5.237-3.854-8.789-3.847c-23.813,0.051-47.626,0.052-71.439,0.053
	c-19.017,0.001-38.032-0.021-57.049-0.037c-1.384-0.001-2.755,0.263-3.988,0.779c-3.667,1.536-5.684,4.488-6.574,8.274
	c-0.645,2.745-0.481,5.564-0.576,8.344c-0.195,5.693,0.027,11.38,0.996,17.018c0.662,3.853,1.435,7.675,2.747,11.368
	C68.894,187.558,68.918,188.089,69.492,188.194z M66.842,141.345c-0.013-1.011-0.982-2.038-1.88-1.992
	c-0.986,0.05-1.932,1.086-1.912,2.094c0.021,1.072,0.857,1.859,1.957,1.842C66.136,143.273,66.857,142.508,66.842,141.345z
	 M216.328,143.292c1.283,0.057,2.009-0.581,2.047-1.801c0.038-1.182-0.581-1.948-1.62-2.004c-1.192-0.064-2.116,0.729-2.171,1.863
	C214.537,142.333,215.358,143.249,216.328,143.292z"/>
<path fill="#EEB990" d="M176.555,244.373c-0.733-1.419-5.243-8.528-6.334-9.652c-3.483-3.59-7.599-6.427-11.462-9.567
	c-2.109-1.714-4.227-3.447-5.592-5.873c-1.175-2.088-1.792-4.391-2.427-6.676c-0.546-1.962-1.331-3.821-2.154-5.673
	c-0.497-1.059-1.04-2.098-1.477-3.18c-0.608-1.507-1.245-3.01-1.062-4.716c0.078-0.731,0.607-1.348,0.461-2.116
	c0.654-1.192,1.03-2.457,1.025-3.825c0.316-0.317,0.2-0.726,0.202-1.093c0.014-1.778,0.007-3.555-0.002-5.333
	c-0.003-0.527,0.043-1.04,0.243-1.535c0.367-0.907,1.047-1.223,1.886-0.76c2.092,1.156,3.472,3.043,4.897,4.88
	c0.813,1.048,1.246,2.297,1.849,3.455c-0.047,1.318,0.045,2.63,0.195,3.938c-0.305,1.243-0.341,2.434,0.309,3.629
	c0.993,1.825,2.11,3.55,3.551,5.116c-0.069-2.956-0.729-5.834-0.76-8.763c0.092-1.461-0.482-2.751-1.037-4.046
	c-0.334-1.658-0.951-3.24-1.281-4.906c-0.279-1.409,0.062-2.849-0.373-4.229c0.116-2.397-0.644-4.666-1.004-6.994
	c-0.361-2.324-1.007-4.515-2.265-6.543c-0.719-1.158-1.582-2.316-1.581-3.799c0.224-1.884,1.398-2.737,3.234-2.304
	c0.837,0.198,1.654,0.482,2.48,0.728c2.036,0.985,3.753,2.325,4.845,4.358c0.074,0.18,0.236,0.213,0.4,0.242l-0.013-0.018
	c0.814,1.666,1.628,3.334,2.442,5c0.929,2.813,2.084,5.527,3.537,8.121c0.14-0.938,0.025-1.82-0.094-2.717
	c-0.518-3.915-1.024-7.816-3.316-11.215c-0.293-0.435-0.567-0.626-1.034-0.72c-1.642-0.329-2.774-1.413-3.359-2.856
	c-0.532-1.314,0.403-2.381,1.236-3.35c0.067-0.079,0.12-0.172,0.18-0.257c1.256-1.149,2.671-1.778,4.437-1.685
	c1.683,0.088,3.271,0.617,4.919,0.839c1.399,1.078,2.667,2.278,3.702,3.728c0.377,0.527,0.905,0.95,1.389,1.393
	c0.238,0.218,0.5,0.547,0.878,0.182c0.392-0.137,0.787-0.264,1.176-0.41c1.872-0.702,3.767-1.201,5.78-0.649
	c0.129,0.001,0.257,0.002,0.385,0.003c0.557,0.201,1.114,0.402,1.671,0.603c0.867,0.565,1.553,1.321,2.22,2.097
	c0.48,0.746,0.845,1.766,2.003,0.743c0.151-0.134,0.464-0.095,0.703-0.12c1.277-0.133,2.449,0.271,3.653,0.622
	c0.962,0.281,1.705,1.073,2.755,1.092c0.024,0.303,0.247,0.484,0.417,0.702c1.793,2.309,3.285,4.788,4.263,7.557
	c0.175,0.815,0.309,1.642,0.532,2.444c1.108,3.983,2.402,7.916,3.257,11.968c0.262,1.778,0.487,3.563,0.804,5.332
	c0.116,0.651-0.242,1.178-0.219,1.812c0.049,1.421,0.158,2.86-0.173,4.271c-0.136,4.751-0.384,9.503-0.356,14.254
	c0.012,2.15-0.06,4.329,0.325,6.479c0.295,1.644,1.23,3.034,1.695,4.605c-3.562-0.007-6.923,0.823-10.322,1.913
	c-4.957,1.59-9.57,3.814-14.06,6.367c-0.842,0.479-1.689,0.982-2.401,1.661c-0.205,0.13-0.486,0.173-0.551,0.468
	c-0.51,0.137-0.912,0.432-1.341,0.745"/>
<path fill="#716161" d="M183.893,123.968c0.619,3.658-0.849,5.996-4.363,7.236c-2.472,0.873-5.067,0.912-7.602,1.342
	c-4.398,0.745-8.863,0.946-13.291,1.461c-1.868,0.218-3.751,0.33-5.631,0.42c-6.85,0.328-13.71,0.376-20.56,0.176
	c-4.77-0.138-9.537-0.572-14.29-1.026c-4.644-0.444-9.274-1.04-13.898-1.657c-1.857-0.248-3.714-0.604-5.329-1.704
	c-2.028-1.381-2.685-2.979-2.149-5.404c0.06-0.271,0.088-0.549,0.132-0.824c0.379-0.667,0.722-1.348,0.813-2.126
	c2.475-5.164,5.409-10.066,8.512-14.87c1.038-1.607,2.225-3.117,3.088-4.836c0.173-0.021,0.347-0.06,0.521-0.06
	c7.072-0.004,14.144,0.006,21.216-0.018c0.691-0.003,0.793,0.27,0.804,0.866c0.05,2.739,0.802,3.472,3.537,3.481
	c3.431,0.011,6.863,0.004,10.293,0.004c2.555,0,3.36-0.764,3.342-3.278c-0.005-0.764,0.111-1.084,1.013-1.078
	c6.827,0.044,13.654,0.02,20.482,0.023c0.312,0,0.623,0.052,0.936,0.08c0.12,0.249,0.211,0.516,0.364,0.743
	c2.316,3.428,4.688,6.819,6.788,10.39c1.643,2.792,3.272,5.588,4.491,8.6C183.371,122.594,183.632,123.281,183.893,123.968z
	 M139.597,118.672c-0.357,1.912,0.484,4.26-0.523,6.583c-0.433,0.999-0.047,2.341-0.093,3.525c-0.038,0.968,0.386,1.278,1.321,1.267
	c0.927-0.011,1.074-0.483,1.111-1.257c0.09-1.911-0.317-3.779-0.412-5.663c-0.172-3.381-0.041-6.778-0.053-10.167
	c-0.002-0.502,0.102-1.193-0.657-1.196c-0.728-0.004-0.695,0.643-0.695,1.175C139.596,114.719,139.597,116.502,139.597,118.672z
	 M137.394,112.548c0.039-0.428,0.069-0.926-0.507-0.959c-0.56-0.032-0.618,0.456-0.662,0.886c-0.358,3.543-0.713,7.086-1.075,10.628
	c-0.032,0.307-0.008,0.773-0.187,0.887c-0.736,0.468-0.63,1.17-0.689,1.854c-0.081,0.939-0.15,1.884-0.312,2.81
	c-0.135,0.774,0.238,1.022,0.889,1.08c0.659,0.059,1.388,0.229,1.496-0.785c0.124-1.18,0.258-2.358,0.385-3.538
	c0.033-0.311,0.135-0.676-0.14-0.892c-0.414-0.327-0.315-0.706-0.272-1.129C136.688,119.778,137.039,116.163,137.394,112.548z
	 M143.917,125.62c0.117,1.239,0.206,2.283,0.319,3.323c0.095,0.876,0.692,0.891,1.385,0.813c0.68-0.076,1.132-0.259,1.025-1.085
	c-0.126-0.968-0.324-1.954-0.242-2.912c0.088-1.032-0.853-1.55-0.94-2.45c-0.345-3.542-0.706-7.081-1.055-10.623
	c-0.049-0.495-0.067-1.134-0.69-1.092c-0.729,0.05-0.581,0.704-0.52,1.233c0.204,1.767,0.461,3.531,0.571,5.304
	C143.926,120.689,144.672,123.236,143.917,125.62z M114.844,126.868c0.341-0.052,0.595-0.24,0.775-0.582
	c0.42-0.803,0.874-1.588,1.302-2.386c0.368-0.686,0.975-1.299,0.606-2.208c-0.055-0.135,0.13-0.383,0.229-0.564
	c1.381-2.508,2.768-5.013,4.15-7.52c0.472-0.856,0.938-1.715,1.399-2.576c0.152-0.285,0.299-0.617-0.051-0.839
	c-0.33-0.209-0.683-0.13-0.938,0.18c-0.108,0.131-0.159,0.307-0.242,0.46c-1.592,2.947-3.219,5.877-4.757,8.851
	c-0.478,0.926-1.342,1.453-1.907,2.243c-0.667,0.931-1.144,1.997-1.713,3.001C113.071,126.034,113.534,126.845,114.844,126.868z
	 M167.721,120.676c-0.028,0.701,2.268,4.354,2.875,4.57c0.647,0.231,1.168-0.15,1.6-0.518c0.426-0.363,0.046-0.768-0.179-1.11
	c-0.594-0.906-1.308-1.752-1.769-2.72c-0.426-0.896-1.436-0.938-1.949-1.743c-2.024-3.174-4.171-6.268-6.273-9.391
	c-0.247-0.367-0.567-0.733-1.025-0.453c-0.528,0.323-0.171,0.715,0.063,1.062c1.929,2.865,3.864,5.725,5.778,8.6
	C167.194,119.503,167.67,119.988,167.721,120.676z M154.178,110.547c-0.369,0.054-0.579,0.279-0.522,0.642
	c0.047,0.305,0.195,0.594,0.301,0.888c1.391,3.878,3.75,7.374,4.394,11.56c0.195,1.274,0.946,2.466,1.46,3.687
	c0.414,0.982,1.127,0.531,1.772,0.334c0.518-0.158,0.764-0.452,0.513-1.022c-0.534-1.214-1.055-2.433-1.567-3.657
	c-0.271-0.648-1.032-0.784-1.32-1.515c-1.329-3.374-2.78-6.701-4.188-10.043C154.853,111.024,154.638,110.671,154.178,110.547z
	 M150.676,111.221c-0.368,0.06-0.643,0.233-0.548,0.688c0.057,0.272,0.173,0.532,0.24,0.802c0.967,3.95,2.966,7.608,3.171,11.789
	c0.063,1.281,0.705,2.543,1.135,3.795c0.374,1.09,1.186,0.534,1.839,0.385c0.707-0.161,0.593-0.695,0.366-1.158
	c-0.729-1.487-0.722-3.21-1.911-4.609c-0.792-0.933-0.912-2.443-1.314-3.701c-0.774-2.425-1.539-4.852-2.295-7.282
	C151.248,111.571,151.131,111.265,150.676,111.221z M123.557,128.11c-0.041,0.191,0.129,0.447,0.577,0.606
	c1.299,0.462,1.577,0.375,1.96-0.966c0.439-1.539,1.017-2.989,1.017-4.706c0-1.637,0.868-3.276,1.375-4.908
	c0.621-1.996,1.257-3.989,1.903-5.977c0.118-0.363,0.227-0.703-0.23-0.869c-0.448-0.162-0.735,0.073-0.893,0.484
	c-0.063,0.163-0.097,0.336-0.151,0.503c-0.632,1.991-1.214,4-1.913,5.967c-0.679,1.91-0.901,3.947-2.288,5.665
	C124.101,124.914,124.035,126.52,123.557,128.11z M130.228,129.589c0.723,0.05,0.835-0.475,0.958-1.004
	c0.421-1.804,0.572-3.616,0.634-5.481c0.066-1.959,0.733-3.896,1.126-5.845c0.324-1.606,0.639-3.215,0.942-4.825
	c0.064-0.342,0.11-0.763-0.332-0.876c-0.475-0.122-0.685,0.224-0.787,0.637c-0.034,0.136-0.076,0.27-0.104,0.406
	c-0.682,3.346-1.444,6.68-1.993,10.047c-0.163,1-1.102,1.44-1.179,2.435c-0.074,0.963-0.39,1.91-0.613,2.86
	C128.585,129.204,128.908,129.605,130.228,129.589z M150.545,129.578c0.383-0.257,1.529,0.093,1.23-0.957
	c-0.467-1.643-0.067-3.572-1.527-4.91c-0.109-0.1-0.112-0.325-0.145-0.496c-0.174-0.889-0.33-1.782-0.515-2.669
	c-0.568-2.731-1.137-5.461-1.73-8.187c-0.083-0.384-0.165-0.927-0.754-0.81c-0.657,0.13-0.451,0.68-0.397,1.107
	c0.53,4.123,2.317,8.024,2.032,12.31c-0.084,1.271,0.487,2.584,0.736,3.882C149.581,129.392,149.877,129.633,150.545,129.578z
	 M118.595,126.463c-0.204,0.828,0.046,1.102,0.525,1.224c0.547,0.139,1.19,0.595,1.553-0.201c0.607-1.331,1.343-2.66,1.607-4.069
	c0.161-0.864,0.233-1.711,0.598-2.546c1.327-3.032,2.588-6.092,3.884-9.137c0.169-0.397,0.432-0.833-0.097-1.084
	c-0.558-0.264-0.793,0.175-0.984,0.628c-1.244,2.96-2.494,5.917-3.75,8.871c-0.3,0.707-0.444,1.675-0.986,2.046
	C119.278,123.334,119.521,125.365,118.595,126.463z M157.752,110.103c-0.184-0.019-0.371-0.004-0.467,0.165
	c-0.222,0.398-0.009,0.732,0.18,1.073c1.031,1.858,2.148,3.675,3.056,5.592c0.891,1.88,2.286,3.484,2.602,5.71
	c0.184,1.297,1.201,2.488,1.891,3.698c0.558,0.977,1.299,0.345,1.906,0.074c0.629-0.28,0.367-0.809,0.12-1.251
	c-0.542-0.971-1.222-1.89-1.605-2.919c-0.33-0.887-1.282-0.969-1.689-1.764c-1.665-3.251-3.442-6.447-5.171-9.666
	C158.388,110.463,158.191,110.149,157.752,110.103z M119.807,109.958c0.001-0.379,0.008-0.608-0.246-0.684
	c-0.444-0.132-0.723,0.106-0.954,0.453c-0.944,1.42-1.82,2.894-2.858,4.243c-1.642,2.135-2.653,4.72-4.919,6.433
	c-0.919,0.695-1.398,1.976-2.073,2.993c-0.766,1.152-0.631,1.477,0.68,1.883c0.638,0.197,0.898-0.21,1.173-0.609
	c1.069-1.546,1.897-3.215,2.755-4.89c1.325-2.587,3.187-4.898,4.815-7.329C118.759,111.589,119.317,110.712,119.807,109.958z"/>
<path fill="#B3A583" d="M109.325,102.158c-0.863,1.718-2.05,3.229-3.088,4.836c-3.104,4.804-6.037,9.706-8.512,14.87
	c-14.104,0-28.208,0-42.313-0.001c-0.42,0-0.841,0.013-1.26-0.009c-1.46-0.075-2.249-0.856-2.256-2.313
	c-0.015-3.08,0.007-6.159,0.014-9.239c0-5.465,0-10.93,0.001-16.395c-0.006-0.943-0.032-1.887-0.012-2.829
	c0.026-1.232,0.716-2.025,1.916-2.037c3.703-0.039,7.408-0.039,11.111-0.009c1.029,0.009,1.819,0.862,1.909,1.883
	c0.016,0.173,0.006,0.349,0.008,0.524c0.016,2.467,0.016,2.47,2.434,2.466c3.389-0.005,6.778-0.017,10.167-0.025
	c5.044,0.007,10.088,0.015,15.132,0.022c-0.012,0.854-0.025,1.708-0.037,2.561c-5.154-0.011-10.309-0.021-15.463-0.031
	c-3.778,0.005-7.555,0.023-11.332,0.003c-0.662-0.004-0.932,0.161-0.92,0.874c0.038,2.273-0.008,4.547,0.021,6.82
	c0.018,1.339,0.788,2.058,2.124,2.205c2.86,0.313,5.728,0.071,8.59,0.15c0.511,0.014,1.026-0.287,1.534,0.021
	c2.381-0.012,4.761-0.017,7.142-0.041c1.59-0.017,2.431-0.653,2.749-2.039c0.458-1.995,0.941-2.356,3.018-2.341
	c2.204,0.016,4.408-0.004,6.612,0.005C102.185,102.105,105.755,102.134,109.325,102.158z M59.281,97.074
	c1.098,0.008,2.053-0.802,2.087-1.771c0.038-1.079-0.85-2.015-1.937-2.039c-1.034-0.024-1.981,0.843-2.022,1.852
	C57.366,96.129,58.263,97.066,59.281,97.074z"/>
<path fill="#B3A583" d="M183.11,121.907c-1.218-3.012-2.849-5.806-4.491-8.6c-2.101-3.571-4.473-6.961-6.788-10.39
	c-0.152-0.226-0.244-0.494-0.364-0.743c0.172-0.028,0.343-0.079,0.516-0.079c5.941-0.003,11.883-0.008,17.825,0.005
	c1.268,0.003,1.948,0.656,2.234,2.042c0.37,1.8,1.008,2.314,2.866,2.321c2.412,0.009,4.824,0.023,7.236,0.034
	c1.887-0.005,3.775,0.013,5.661-0.022c1.497-0.028,3.001,0.15,4.491-0.153c1.076-0.218,1.849-1.082,1.856-2.172
	c0.01-2.201-0.032-4.405,0.024-6.604c0.023-0.898-0.317-1.128-1.159-1.121c-3.599,0.032-7.199,0.009-10.799,0.006
	c-0.083,0.007-0.165,0.015-0.249,0.022c-3.723,0.015-7.447,0.029-11.17,0.044c0.522-1.003,1.658-1.482,2.14-2.518
	c2.667-0.02,5.335-0.039,8.002-0.062c0.415-0.003,0.83-0.025,1.246-0.039c3.702,0.009,7.405,0.001,11.106,0.04
	c0.705,0.007,0.92-0.235,0.867-0.904c-0.047-0.59-0.022-1.187-0.001-1.78c0.052-1.426,0.82-2.206,2.227-2.21
	c3.493-0.012,6.985-0.01,10.478,0.005c1.554,0.007,2.208,0.674,2.236,2.244c0.016,0.873-0.003,1.746-0.006,2.619
	c-0.001,5.053-0.002,10.106-0.002,15.159c0,0.415-0.057,0.841,0.196,1.215c-0.261,0.377-0.181,0.81-0.182,1.223
	c-0.006,2.591,0,5.183-0.005,7.774c-0.004,1.889-0.708,2.593-2.601,2.593c-13.938,0.003-27.876,0.003-41.814,0.005
	C184.16,121.865,183.635,121.893,183.11,121.907z M221.654,97.072c1.085,0.017,1.979-0.828,1.963-1.854
	c-0.017-1.056-0.885-1.936-1.928-1.954c-0.995-0.017-2.046,1.032-2.018,2.011C219.696,96.172,220.673,97.057,221.654,97.072z"/>
<path fill="#716161" d="M229.286,110.269c-0.254-0.375-0.196-0.8-0.196-1.215c0-5.053,0.001-10.106,0.002-15.159
	c0.63,0.01,1.26,0.019,1.891,0.027c1.623,0.02,2.464,0.843,2.489,2.437c0.003,0.175,0.003,0.35,0.004,0.525
	c0.005,1.022,0.938,1.57,1.858,1.107c0.347-0.174,0.226-0.473,0.243-0.731c0.043-0.693-0.086-1.392,0.216-2.068
	c0.367-0.821,0.963-1.311,1.863-1.244c0.885,0.066,1.482,0.61,1.716,1.461c0.118,0.43,0.123,0.9,0.124,1.353
	c0.009,4.133,0.012,8.265-0.002,12.398c-0.002,0.634-0.016,1.138,0.851,1.201c0.691,0.051,1.17,0.637,1.295,1.237
	c0.226,1.081,1,0.705,1.626,0.794c0.632,0.091,0.69-0.277,0.8-0.777c0.114-0.519,0.588-0.736,1.137-0.735
	c5.498,0.003,10.997-0.008,16.496,0.008c0.783,0.003,1.211,0.446,1.204,1.271c-0.011,1.366-0.04,2.733,0.01,4.097
	c0.039,1.048-0.426,1.457-1.432,1.456c-3.607-0.003-7.214,0.019-10.821,0.028c-1.751,0.004-3.503,0.01-5.253-0.006
	c-0.702-0.006-1.357-0.127-1.412-1.041c-0.03-0.507-0.437-0.404-0.708-0.36c-0.527,0.086-1.257-0.392-1.534,0.454
	c-0.302,0.923-0.897,1.481-1.857,1.616c-0.317,0.045-0.48,0.201-0.615,0.475c-0.472,0.964-1.205,1.426-2.301,1.121
	c-0.857-0.239-1.396-1.15-1.396-2.326c0.002-3.466,0.004-6.932-0.014-10.398c-0.002-0.35,0.223-0.896-0.239-1.015
	c-0.521-0.134-1.109-0.062-1.66-0.004c-0.231,0.025-0.188,0.335-0.193,0.537c-0.008,0.385,0.004,0.771-0.004,1.156
	c-0.033,1.39-0.921,2.29-2.297,2.318C230.547,110.284,229.917,110.27,229.286,110.269z"/>
<path fill="#716161" d="M51.911,93.908c0,5.465,0,10.93-0.001,16.395c-2.417-0.095-2.417-0.095-2.447,2.3
	c-0.024,1.905-0.588,2.464-2.522,2.49c-1.117,0.015-2.236,0.046-3.353,0.032c-1.41-0.018-2.283-0.799-2.287-2.181
	c-0.022-7.269-0.015-14.537,0.01-21.806c0.004-1.192,0.84-2.075,2.021-2.134c1.395-0.07,2.797-0.062,4.193-0.001
	c1.139,0.05,1.829,0.818,1.921,1.964c0.017,0.208,0.016,0.419,0.018,0.629C49.486,93.964,49.486,93.964,51.911,93.908z"/>
<path fill="#B3A583" d="M146.508,196.922c0.145,0.767-0.384,1.384-0.461,2.115c-0.182,1.706,0.454,3.209,1.062,4.716
	c0.437,1.082,0.981,2.122,1.477,3.18c-6.228-0.007-12.456-0.014-18.684-0.022c0.635-1.471,1.195-2.94,1.067-4.609
	c-0.098-1.274-0.784-2.365-0.935-3.61c-0.075-0.615-0.228-1.219-0.345-1.828c3.658,0.068,7.318,0.209,10.975,0.176
	C142.609,197.021,144.557,196.849,146.508,196.922z"/>
<path fill="#F1EDEB" d="M175.321,245.489"/>
<path fill="#716161" d="M128.848,39.245c-0.299,1.762-0.114,3.538-0.146,5.307c-0.011,0.63,0,1.259,0.006,1.889
	c0.004,0.392-0.01,0.793,0.549,0.834c0.549,0.039,0.398,0.471,0.412,0.795c0.023,0.498-0.35,0.427-0.656,0.429
	c-0.7,0.005-1.4-0.014-2.099,0.008c-0.415,0.013-0.559-0.209-0.594-0.562c-0.032-0.314-0.102-0.658,0.386-0.685
	c0.553-0.031,0.552-0.435,0.552-0.831c0.001-2.446-0.005-4.891,0.002-7.336c0.001-0.383-0.025-0.698-0.514-0.73
	c-0.609-0.041-0.44-0.513-0.448-0.87c-0.013-0.511,0.38-0.383,0.672-0.406c0.069-0.005,0.14,0,0.21-0.001
	c2.698-0.035,2.658-0.019,3.671,2.52c0.898,2.252,1.898,4.465,3.072,6.654c0-2.457-0.004-4.914,0.003-7.371
	c0.001-0.349-0.155-0.514-0.488-0.539c-0.567-0.042-0.532-0.461-0.511-0.847c0.029-0.556,0.465-0.411,0.788-0.414
	c0.63-0.006,1.26,0.043,1.888,0.012c0.502-0.025,0.666,0.222,0.739,0.658c0.081,0.481-0.16,0.617-0.576,0.649
	c-0.637,0.048-0.41,0.555-0.412,0.884c-0.017,2.764-0.037,5.528,0.006,8.291c0.011,0.736-0.219,0.88-0.929,0.957
	c-1.279,0.139-1.814-0.424-2.242-1.546c-0.931-2.442-2.004-4.829-3.023-7.237c-0.078-0.184-0.089-0.421-0.335-0.493
	c-0.029-0.047-0.058-0.095-0.087-0.142c-0.01,0.039-0.021,0.077-0.031,0.116C128.759,39.241,128.804,39.244,128.848,39.245z"/>
<path fill="#716161" d="M147.67,46.594c0.5-1.926,0.97-3.56,1.33-5.219c0.131-0.607,0.409-0.757,0.923-0.679
	c0.48,0.073,1.07-0.281,1.279,0.628c0.404,1.753,0.982,3.466,1.54,5.378c0.372-1.586,0.704-3.004,1.037-4.421
	c0.067-0.285,0.123-0.531-0.292-0.628c-0.435-0.102-0.32-0.514-0.281-0.789c0.053-0.374,0.426-0.281,0.686-0.308
	c1.351-0.139,1.525,0.021,1.231,1.321c-0.469,2.074-1.001,4.135-1.487,6.206c-0.196,0.833-0.855,0.349-1.289,0.469
	c-0.49,0.137-0.855-0.039-0.996-0.62c-0.341-1.386-0.728-2.761-1.104-4.137c-0.062-0.229-0.167-0.446-0.32-0.846
	c-0.437,1.735-0.872,3.278-1.205,4.844c-0.229,1.076-1.028,0.641-1.638,0.757c-0.745,0.142-0.667-0.468-0.755-0.852
	c-0.38-1.666-0.726-3.339-1.071-5.012c-0.099-0.483-0.116-0.971-0.79-1.046c-0.384-0.043-0.274-0.426-0.292-0.687
	c-0.024-0.357,0.243-0.367,0.494-0.38c0.279-0.015,0.567,0.011,0.837-0.043c0.715-0.145,0.926,0.13,1.045,0.847
	C146.822,43.024,147.242,44.646,147.67,46.594z"/>
<path fill="#B3A583" d="M159.151,93.865c3.95,0.019,7.901,0.041,11.851,0.058c1.782,0.007,3.564,0.004,5.345,0.005
	c-0.009,0.836-0.017,1.673-0.025,2.51c-0.871,0.035-1.743,0.125-2.613,0.095c-4.85-0.165-9.701-0.038-14.55-0.057
	C159.157,95.605,159.154,94.735,159.151,93.865z"/>
<path fill="#B3A583" d="M131.95,93.964c5.693-0.012,11.386-0.025,17.079-0.038c-0.008,0.836-0.017,1.673-0.025,2.51
	c-5.722,0.012-11.445,0.025-17.167,0.037C131.75,95.631,131.813,94.796,131.95,93.964z"/>
<path fill="#716161" d="M142.307,72.997c-0.525,0-1.049-0.004-1.573,0.002c-0.312,0.004-0.503-0.084-0.604-0.429
	c-0.116-0.399,0.07-0.499,0.382-0.566c0.496-0.107,0.507-0.475,0.505-0.885c-0.01-2.902-0.008-5.803-0.004-8.705
	c0.001-0.406,0.024-0.784-0.575-0.729c-0.383,0.035-0.419-0.274-0.465-0.563c-0.064-0.404,0.195-0.479,0.492-0.496
	c0.632-0.038,1.269-0.48,1.898,0.038c0.191,0.157,0.392-0.01,0.589-0.068c2.05-0.612,3.559,0.177,4.249,2.215
	c0.63,1.861-0.002,4.175-1.375,5.123c-0.831,0.574-1.75,0.681-2.702,0.525c-0.475-0.078-0.64,0.047-0.615,0.515
	c0.021,0.384,0.054,0.778-0.009,1.151c-0.194,1.159,0.158,1.857,1.433,1.9c0.313,0.011,0.654,0.063,0.62,0.522
	c-0.039,0.525-0.44,0.452-0.778,0.46c-0.49,0.011-0.979,0.003-1.468,0.003C142.307,73.005,142.307,73.001,142.307,72.997z
	 M145.847,64.088c-0.074-0.285-0.168-0.839-0.365-1.353c-0.313-0.813-1.207-1.236-2.042-1.071c-0.916,0.182-0.968,0.824-0.939,1.577
	c0.038,0.975,0.045,1.954-0.002,2.929c-0.035,0.735,0.314,0.987,0.975,1.049C144.967,67.359,145.877,66.273,145.847,64.088z"/>
<path fill="#706060" d="M149.004,96.436c0.008-0.836,0.016-1.673,0.025-2.51c0.287-0.654,0.775-0.891,1.497-0.882
	c2.444,0.034,4.889,0.028,7.333,0.005c0.641-0.006,1.076,0.201,1.292,0.814c0.003,0.87,0.006,1.741,0.009,2.611
	c-0.392,0.523-0.914,0.656-1.557,0.647c-2.273-0.031-4.546-0.036-6.82,0.005C150.062,97.14,149.486,96.954,149.004,96.436z"/>
<path fill="#706060" d="M131.95,93.964c-0.137,0.832-0.201,1.667-0.113,2.509c-0.235,0.37-0.539,0.633-1.007,0.631
	c-2.742-0.01-5.482-0.023-8.224-0.03c-0.428-0.001-0.743-0.115-0.736-0.622c0.004-0.856,0.01-1.71,0.014-2.566
	c0.149-0.671,0.605-0.841,1.238-0.836c2.464,0.018,4.928,0.032,7.391-0.006C131.25,93.035,131.699,93.302,131.95,93.964z"/>
<path fill="#716161" d="M130.738,64.512c0,0.56,0.003,1.119-0.001,1.679c-0.003,0.581-0.157,1.215,0.717,1.358
	c0.355,0.058,0.327,0.403,0.286,0.685c-0.045,0.303-0.299,0.235-0.49,0.237c-0.767,0.011-1.536-0.013-2.302,0.015
	c-0.389,0.014-0.562-0.14-0.652-0.5c-0.103-0.412,0.15-0.507,0.447-0.525c0.497-0.03,0.518-0.342,0.515-0.722
	c-0.01-1.259-0.009-2.518-0.003-3.778c0.004-0.867-0.422-1.294-1.283-1.291c-0.976,0.004-1.645,0.521-1.657,1.313
	c-0.017,1.119,0.003,2.238-0.003,3.357c-0.003,0.528-0.088,1.065,0.693,1.148c0.377,0.04,0.32,0.412,0.297,0.681
	c-0.031,0.353-0.329,0.3-0.562,0.304c-0.735,0.01-1.469-0.014-2.203,0.016c-0.41,0.017-0.53-0.199-0.633-0.533
	c-0.137-0.445,0.174-0.479,0.443-0.509c0.437-0.049,0.468-0.335,0.468-0.671c-0.001-2.868-0.005-5.736,0.008-8.604
	c0.002-0.435-0.118-0.657-0.589-0.617c-0.399,0.033-0.418-0.271-0.449-0.559c-0.042-0.393,0.201-0.461,0.51-0.491
	c0.347-0.035,0.69-0.108,1.037-0.144c0.649-0.067,0.989,0.215,0.983,0.889c-0.008,0.874,0.027,1.75-0.014,2.623
	c-0.034,0.715,0.064,1.064,0.891,0.676c0.569-0.267,1.202-0.306,1.844-0.124c1.077,0.305,1.665,0.987,1.694,2.093
	c0.018,0.664,0.003,1.329,0.003,1.994C130.734,64.512,130.736,64.512,130.738,64.512z"/>
<path fill="#716161" d="M119.996,68.534c-3.493-0.074-5.866-2.741-5.605-6.299c0.256-3.48,2.985-5.695,6.488-5.224
	c0.526,0.071,1.315-0.109,1.511,0.482c0.257,0.778,0.234,1.651,0.296,2.486c0.022,0.29-0.251,0.278-0.46,0.28
	c-0.274,0.003-0.56,0.06-0.719-0.278c-0.345-0.735-0.362-1.75-1.656-1.586c-1.428,0.182-2.508,0.818-3.216,2.056
	c-0.896,1.566-0.652,3.759,0.547,5.205c1.111,1.338,2.823,1.76,4.666,1.094c0.466-0.169,0.708-0.255,0.927,0.339
	c0.209,0.565,0.116,0.826-0.418,1.038C121.595,68.428,120.81,68.554,119.996,68.534z"/>
<path fill="#B3A583" d="M121.884,93.888c-0.004,0.856-0.01,1.71-0.014,2.565c-5.118-0.004-10.237-0.009-15.356-0.014
	c0.25-0.281,0.517-0.549,0.749-0.845c0.411-0.525,1.153-0.804,1.197-1.602c2.061-0.023,4.123-0.052,6.184-0.067
	C117.058,93.907,119.471,93.9,121.884,93.888z"/>
<path fill="#716161" d="M138.464,64.674c0.001,0.525-0.011,1.049,0.004,1.573c0.014,0.445-0.186,0.919,0.582,1.095
	c0.482,0.11,0.332,0.912-0.21,1.097c-0.225,0.077-0.569,0.18-0.709,0.073c-0.923-0.701-1.789-0.158-2.703-0.001
	c-1.234,0.213-2.456-0.624-2.669-1.678c-0.263-1.299,0.391-2.36,1.7-2.832c0.498-0.18,0.996-0.32,1.523-0.355
	c0.433-0.029,0.951,0.116,0.933-0.629c-0.014-0.566,0.096-1.174-0.637-1.361c-0.576-0.146-1.175-0.279-1.546,0.431
	c-0.346,0.661-1.107,0.808-1.75,0.417c-0.343-0.208-0.151-0.391-0.051-0.603c0.561-1.173,2.037-1.806,3.489-1.496
	c1.439,0.306,2.025,1.046,2.043,2.59C138.468,63.555,138.463,64.114,138.464,64.674z M136.964,65.587
	c0.081-0.574-0.229-0.718-0.803-0.681c-1.258,0.08-1.888,0.519-1.862,1.36c0.025,0.788,0.544,0.993,1.194,1.003
	C136.431,67.282,136.982,66.653,136.964,65.587z"/>
<path fill="#706060" d="M101.328,97.068c-1.742,0.015-3.484,0.007-5.225,0.055c-0.648,0.018-1.156-0.167-1.562-0.659
	c0.012-0.854,0.025-1.708,0.037-2.561c0.177-0.649,0.632-0.846,1.264-0.844c2.405,0.008,4.812,0.017,7.217-0.025
	c0.747-0.013,1.279,0.208,1.602,0.886c-0.001,0.898-0.001,1.798-0.002,2.696c-0.649,0.503-1.388,0.613-2.178,0.497"/>
<path fill="#716161" d="M157.765,68.543c-2.282-0.023-3.751-1.497-3.895-3.799c-0.135-2.154,1.265-4.056,3.222-4.377
	c1.392-0.229,2.712,0.585,2.99,1.844c0.265,1.2-0.674,2.561-2.022,2.863c-0.576,0.13-1.172,0.2-1.763,0.23
	c-0.736,0.039-0.714,0.358-0.408,0.869c0.623,1.044,1.759,1.348,3.136,0.841c0.273-0.101,0.609-0.517,0.812,0.102
	c0.144,0.44,0.191,0.831-0.357,1.022C158.889,68.345,158.303,68.587,157.765,68.543z M156.349,64.084
	c1.399-0.035,2.23-0.614,2.182-1.478c-0.039-0.692-0.443-0.994-1.092-0.989c-0.847,0.006-1.886,1.16-1.87,2.058
	C155.582,64.345,156.1,64.005,156.349,64.084z"/>
<path fill="#716161" d="M137.28,44.505c0.03-2.657,1.818-4.309,4.257-3.949c1.058,0.156,1.741,0.732,1.918,1.777
	c0.173,1.016-0.187,1.854-1.1,2.407c-0.769,0.466-1.604,0.674-2.499,0.651c-0.842-0.023-0.821,0.412-0.528,0.991
	c0.445,0.879,1.686,1.174,2.978,0.728c0.342-0.118,0.708-0.508,0.965,0.199c0.248,0.682-0.222,0.811-0.609,0.974
	C139.856,49.456,137.246,47.617,137.28,44.505z M139.705,44.259c0.682-0.094,1.364-0.201,1.872-0.764
	c0.313-0.347,0.394-0.729,0.228-1.155c-0.176-0.448-0.531-0.57-0.998-0.581c-1.13-0.026-1.424,0.787-1.75,1.619
	C138.795,44.046,138.884,44.397,139.705,44.259z"/>
<path fill="#716161" d="M149.612,64.527c0-0.594-0.025-1.188,0.006-1.781c0.036-0.691,0.03-1.281-0.947-1.139
	c-0.596,0.087-0.53-0.429-0.595-0.78c-0.105-0.574,0.323-0.546,0.663-0.504c0.796,0.097,0.957-0.3,0.884-0.983
	c-0.045-0.415,0.009-0.841-0.011-1.26c-0.034-0.725,0.562-0.598,0.952-0.685c0.574-0.127,0.485,0.342,0.501,0.672
	c0.017,0.349,0.036,0.704-0.002,1.05c-0.088,0.82,0.042,1.395,1.083,1.196c0.501-0.095,0.656,0.167,0.66,0.661
	c0.004,0.516-0.194,0.724-0.677,0.64c-0.931-0.161-1.122,0.292-1.08,1.12c0.06,1.186,0.033,2.377,0.013,3.566
	c-0.012,0.724,0.233,1.088,0.998,0.834c0.407-0.136,0.748-0.175,0.94,0.316c0.243,0.622-0.286,0.721-0.629,0.878
	c-1.456,0.673-2.72-0.114-2.755-1.699c-0.016-0.7-0.003-1.401-0.003-2.101C149.616,64.528,149.614,64.527,149.612,64.527z"/>
<path fill="#716161" d="M163.546,68.482c-0.559,0.001-1.119-0.016-1.677,0.007c-0.351,0.014-0.489-0.147-0.57-0.463
	c-0.096-0.374,0.063-0.542,0.399-0.561c0.551-0.031,0.558-0.386,0.553-0.802c-0.013-1.257,0.006-2.516-0.008-3.773
	c-0.006-0.536,0.261-1.251-0.74-1.228c-0.243,0.006-0.265-0.282-0.282-0.493c-0.017-0.218-0.01-0.469,0.269-0.471
	c0.661-0.005,1.378-0.699,1.981,0.186c0.257,0.378,0.461-0.053,0.659-0.158c0.916-0.488,1.807-0.518,2.639,0.146
	c0.24,0.192,0.746,0.489,0.386,0.803c-0.394,0.343-0.892,0.915-1.525,0.567c-0.949-0.521-1.721-0.292-1.825,0.762
	c-0.12,1.211-0.047,2.441-0.06,3.664c-0.005,0.515,0.405,0.478,0.73,0.56c0.338,0.084,0.672,0.187,1.011,0.262
	c0.374,0.082,0.375,0.35,0.36,0.644c-0.018,0.355-0.271,0.349-0.52,0.349C164.734,68.482,164.14,68.48,163.546,68.482z"/>
<path fill="#706060" d="M186.543,95.84c-0.041,0.182-0.081,0.364-0.123,0.546c-0.554,0.629-1.243,0.87-2.067,0.721
	c-0.095,0.004-0.192,0.01-0.287,0.014c-0.151-0.004-0.302-0.01-0.454-0.014c1.05-1.144,1.718-2.433,1.534-4.045
	c0.649-0.08,1.063,0.227,1.316,0.799C186.454,94.523,186.36,95.188,186.543,95.84z"/>
<path fill="#716161" d="M177.391,93.067c1.717-0.001,8.354-0.294,8.405,0.07c0.079,0.546-0.715,3.248-0.446,3.722
	s-4.515,0.249-6.439,0.24c-0.508,0.003-1.016,0.011-1.523,0.008c-0.49-0.003-0.967-0.04-1.068-0.669
	c0.009-0.836,0.017-1.673,0.025-2.51C176.574,93.492,176.778,93.031,177.391,93.067z"/>
<path fill="#B3A583" d="M186.42,96.386c-0.183-0.652,0.033-1.863,0.042-2.524c0.201,0.031,0.403,0.062,0.603,0.093
	c0.059-0.005,0.118-0.011,0.178-0.016c1.412-0.003,2.823-0.004,4.235-0.007c0.244,0.008,2.682,0.055,2.116,0.044
	c-0.347-0.007-0.061,2.609-0.401,2.561C191.964,96.362,188.052,96.428,186.42,96.386z"/>
<path fill="#B3A583" d="M104.659,96.615c0.001-0.898,0.001-1.798,0.002-2.696c0.919,0.065,1.839,0.328,2.758,0.005
	c-0.111,0.648-0.677,0.948-1.085,1.349c-0.465,0.458-0.459,0.8,0.058,1.165C105.814,96.497,105.237,96.556,104.659,96.615z"/>
<path fill="#B3A583" d="M106.392,96.438c-0.518-0.364-0.524-0.707-0.058-1.165c0.407-0.401,0.974-0.701,1.085-1.349
	c0.348,0.023,0.694,0.046,1.041,0.069c-0.045,0.799-0.787,1.077-1.197,1.602c-0.231,0.296-0.497,0.564-0.748,0.845
	C106.475,96.446,106.433,96.446,106.392,96.438z"/>
<path fill="#EEB990" d="M187.243,93.94c-0.06,0.005-0.118,0.011-0.178,0.016C187.123,93.925,187.181,93.919,187.243,93.94z"/>
<path fill="#716161" d="M189.68,167.586c-0.29-0.181-0.095-0.519-0.911-1.136c-2.861-2.162-3.657-1.688-3.588-1.933
	c0.081-0.292,0.249-0.407,0.675-1.712c0.587-2.528-0.82-5.007-3.268-5.762c-2.368-0.729-4.851,0.456-5.818,2.784
	c-0.945,2.276-0.204,4.129,1.454,5.749c-0.379,0.365-0.64,0.036-0.878-0.182c-0.484-0.443-1.012-0.866-1.389-1.393
	c-1.035-1.448-2.303-2.649-3.702-3.728c-0.734-2.605-3.293-3.574-4.927-3.426c-2.419,0.22-4.249,2.025-4.428,4.271
	c-0.06,0.086-0.112,0.179-0.18,0.257c-0.833,0.969-1.768,2.036-1.236,3.35c0.585,1.443,1.717,2.528,3.359,2.856
	c0.468,0.094,0.74,0.285,1.034,0.72c2.292,3.399,2.799,7.3,3.316,11.215c0.118,0.897,0.233,1.779,0.094,2.717
	c-1.453-2.594-2.608-5.306-3.537-8.121c0.272-2.392-0.53-4.035-2.442-5l0.013,0.018c-0.133-0.081-0.267-0.161-0.4-0.242
	c-1.093-2.034-2.81-3.373-4.845-4.358c1.088-1.833,1.266-3.717,0.055-5.529c-1.205-1.803-2.967-2.468-5.102-2.031
	c-2.079,0.426-3.696,2.371-3.752,4.613c-0.04,1.619,0.98,3.905,3.085,4.524c-0.002,1.483,0.862,2.641,1.581,3.799
	c1.258,2.028,1.905,4.218,2.265,6.543c0.362,2.327,1.12,4.597,1.004,6.994c-9.316,0.001-18.631,0.005-27.947,0.002
	c-4.482-0.002-8.965-0.018-13.447-0.027c0.126-0.743,0.486-1.371,0.973-1.928c0.976-1.116,1.679-2.457,2.82-3.437
	c2.01,0.291,3.653-0.368,4.78-2.046c1.065-1.586,1.239-3.286,0.23-5.004c0.067-0.509,0.503-0.74,0.821-1.046
	c1.119-1.078,2.012-2.312,2.678-3.714c2.428-0.204,3.975-2.503,3.674-5.458c-0.23-2.266-2.787-4.183-5.116-3.942
	c-2.673,0.276-4.902,2.774-4.377,5.782c-1.567,0.472-3.137,0.94-4.613,1.666c0.974-1.836,0.99-3.624-0.182-5.405
	c-1.32-2.007-4.442-2.695-6.216-1.329c-1.435-0.198-2.713,0.489-4.07,0.729c-1.123,0.2-2.225,0.517-3.373,0.556
	c-0.083-0.151-0.141-0.321-0.252-0.447c-1.598-1.812-4.63-2.065-6.557-0.554c-1.941,1.522-2.375,4.347-0.994,6.483
	c-0.443,1.083-0.695,1.216-1.573,0.674c-1.135-0.701-2.412-0.88-3.679-1.121c1.333-2.547,0.091-5.2-1.66-6.266
	c-2.395-1.459-5.186-0.807-6.716,1.475c-1.614,2.407-0.578,5.621,2.292,7.109c-0.841,1.381-1.537,1.683-2.943,1.279
	c-3.118-0.895-6.501,0.77-7.908,3.954c-1.697,3.837-3.326,7.699-3.973,11.893c-0.198,1.283-0.327,2.563-0.354,3.858
	c-0.202,0.226-0.194,0.456-0.013,0.69c-0.01,0.107-0.018,0.214-0.029,0.32c-0.574-0.105-0.598-0.636-0.738-1.029
	c-1.312-3.693-2.084-7.515-2.747-11.368c-0.969-5.637-1.192-11.326-0.996-17.018c0.095-2.779-0.069-5.598,0.576-8.344
	c0.891-3.786,2.907-6.738,6.574-8.274c1.233-0.517,2.604-0.78,3.988-0.779c19.017,0.017,38.032,0.038,57.049,0.037
	c23.813-0.001,47.626-0.003,71.439-0.053c3.552-0.008,6.484,1.155,8.789,3.847c1.547,1.806,2.444,3.941,2.595,6.289
	c0.256,3.974,0.539,7.957,0.415,11.94c-0.11,3.552-0.319,7.098-0.731,10.641c-0.48,4.116-1.4,8.113-2.657,12.034
	c-0.96,2.994-2.74,5.32-6.009,6.111c-0.855-4.053-2.149-7.984-3.257-11.968c-0.223-0.802-0.357-1.629-0.532-2.444
	c0.218-0.109,0.44-0.212,0.655-0.327c1.752-0.94,2.537-2.482,2.475-4.389c-0.061-1.923-0.978-3.461-2.799-4.201
	c-1.738-0.705-3.485-0.665-5.01,0.658c-1.05-0.019-1.792-0.811-2.755-1.092c-1.204-0.351-2.377-0.755-3.653-0.622
	c-0.239,0.025-0.552-0.014-0.703,0.12c-1.158,1.024-1.524,0.003-2.003-0.742 M191.67,165.526c1.058,0.674,2.201,1.008,3.466,0.917
	c2.704-0.194,4.662-2.531,4.363-5.225c-0.315-2.837-2.752-4.73-5.487-4.313c-1.433,0.219-2.082,0.708-3.37,2.073
	c-0.139,0.098-0.697,1.372-0.697,1.905c0,0.941-0.218,1.437,0.434,2.914c0.074,0.144,0.292,0.515,0.616,0.97
	c0.826,1.161-0.482-0.394,0.53,0.61C191.697,165.548,191.67,165.526,191.67,165.526z M79.866,154.907
	c2.658-0.002,4.777-2.118,4.802-4.796c0.025-2.702-2.152-4.891-4.84-4.863c-2.68,0.027-4.838,2.217-4.823,4.896
	C75.019,152.765,77.207,154.908,79.866,154.907z M165.826,150.038c-0.003-2.638-2.119-4.75-4.796-4.786
	c-2.654-0.037-4.862,2.148-4.868,4.816c-0.005,2.677,2.178,4.851,4.861,4.842C163.727,154.9,165.83,152.766,165.826,150.038z
	 M102.106,150.1c-0.004,2.672,2.105,4.796,4.771,4.805c2.687,0.009,4.914-2.205,4.877-4.847c-0.038-2.656-2.167-4.782-4.814-4.807
	C104.212,145.225,102.111,147.333,102.106,150.1z M145.445,161.723c-0.003-2.673-2.195-4.898-4.835-4.909
	c-2.636-0.01-4.855,2.25-4.833,4.921c0.022,2.683,2.113,4.722,4.838,4.719C143.327,166.45,145.447,164.372,145.445,161.723z
	 M120.388,154.904c2.777-0.018,4.86-2.139,4.856-4.945c-0.003-2.616-2.222-4.758-4.877-4.706c-2.671,0.053-4.769,2.175-4.781,4.837
	C115.574,152.692,117.798,154.921,120.388,154.904z M147.464,154.904c2.592,0.018,4.858-2.176,4.901-4.746
	c0.044-2.593-2.201-4.857-4.86-4.902c-2.655-0.045-4.784,2.061-4.801,4.751C142.686,152.812,144.701,154.886,147.464,154.904z
	 M93.406,154.911c2.704-0.023,4.806-2.181,4.778-4.908c-0.026-2.664-2.145-4.75-4.83-4.755c-2.62-0.005-4.867,2.279-4.833,4.914
	C88.556,152.763,90.787,154.933,93.406,154.911z M201.596,154.91c2.692-0.018,4.824-2.192,4.808-4.9
	c-0.016-2.646-2.177-4.771-4.841-4.761c-2.704,0.011-4.851,2.196-4.815,4.902C196.783,152.788,198.964,154.928,201.596,154.91z
	 M187.962,154.912c2.676,0.053,4.87-2.084,4.918-4.792c0.046-2.617-2.059-4.786-4.729-4.874c-2.599-0.085-4.876,2.077-4.929,4.683
	C183.166,152.64,185.276,154.858,187.962,154.912z M147.487,168.499c-2.74-0.012-4.771,1.997-4.782,4.734
	c-0.011,2.744,2.095,4.914,4.785,4.926c2.497,0.011,4.816-2.286,4.871-4.826C152.418,170.705,150.206,168.511,147.487,168.499z
	 M138.776,150.086c0.006-2.696-2.137-4.827-4.863-4.833c-2.603-0.006-4.783,2.183-4.796,4.819c-0.014,2.653,2.188,4.837,4.877,4.836
	C136.616,154.908,138.771,152.736,138.776,150.086z M138.778,173.25c-0.021-2.75-2.118-4.779-4.907-4.75
	c-2.701,0.029-4.771,2.13-4.744,4.82c0.025,2.598,2.238,4.824,4.812,4.841C136.551,178.176,138.799,175.895,138.778,173.25z
	 M203.426,161.633c-0.008,2.77,2.047,4.822,4.822,4.817c2.695-0.005,4.836-2.102,4.838-4.737c0.002-2.659-2.208-4.889-4.86-4.901
	C205.65,156.8,203.433,159.027,203.426,161.633z M77.804,161.597c-0.031-2.601-2.274-4.815-4.848-4.787
	c-2.634,0.029-4.853,2.31-4.81,4.947c0.043,2.678,2.163,4.728,4.864,4.703C75.793,166.433,77.837,164.36,77.804,161.597z
	 M174.504,154.905c2.714,0.011,4.763-2.023,4.789-4.756c0.027-2.776-2.048-4.916-4.754-4.902c-2.636,0.014-4.914,2.278-4.902,4.873
	C169.649,152.671,171.91,154.894,174.504,154.905z"/>
<path fill="#F1EDEB" d="M115.818,183.422c4.482,0.01,8.965,0.025,13.447,0.027c9.315,0.003,18.631-0.001,27.947-0.002
	c0.435,1.379,0.095,2.82,0.373,4.229c0.33,1.666,0.947,3.248,1.281,4.907c-0.753,0.042-1.506,0.085-2.258,0.127
	c-0.602-1.159-1.036-2.407-1.849-3.455c-1.424-1.837-2.805-3.724-4.897-4.88c-0.84-0.463-1.519-0.147-1.886,0.76
	c-0.201,0.495-0.245,1.008-0.243,1.535c0.01,1.778,0.017,3.555,0.002,5.333c-0.003,0.368,0.114,0.776-0.202,1.093
	c-6.01,0.009-12.02,0.09-18.029-0.123c0.263-2.155,0.165-4.321,0.186-6.482c0.02-2.064-0.935-2.661-2.847-1.756
	c-1.931,0.915-3.412,2.38-4.767,4c-0.965,1.153-1.544,2.553-2.48,3.719c-1.819-0.144-3.638-0.289-5.457-0.433
	c-0.022-1.208,0.56-2.271,0.875-3.391c0.401-1.426,0.29-2.888,0.558-4.314C115.63,184.006,115.671,183.703,115.818,183.422z"/>
<path fill="#716161" d="M129.504,192.973c6.009,0.214,12.019,0.132,18.029,0.123c0.004,1.368-0.371,2.634-1.025,3.825
	c-1.951-0.073-3.898,0.101-5.844,0.118c-3.658,0.034-7.317-0.108-10.975-0.176C129.387,195.578,129.486,194.274,129.504,192.973z"/>
<path fill="#F1EDEB" d="M84.712,166.201c-2.87-1.488-3.907-4.701-2.292-7.109c1.53-2.282,4.321-2.933,6.716-1.475
	c1.751,1.067,2.993,3.718,1.66,6.266c-1.972,0.135-3.806,0.651-5.36,1.941C85.222,166,85.01,166.187,84.712,166.201z"/>
<path fill="#F1EDEB" d="M122.303,162.628c-0.525-3.007,1.704-5.505,4.377-5.782c2.327-0.241,4.884,1.677,5.116,3.942
	c0.301,2.955-1.246,5.254-3.674,5.458c0.038-0.204,0.058-0.414,0.117-0.612c0.567-1.877-0.092-2.619-2.12-3.041
	C124.826,162.324,123.574,162.519,122.303,162.628z"/>
<path fill="#B3A583" d="M118.563,196.519c-0.084,1.181,0.03,2.365-0.21,3.55c-0.494,2.442-2.155,3.886-4.153,5.055
	c-0.682,0.399-1.027,0.046-0.905-0.659c0.477-2.735-0.375-5.5,0.211-8.228C115.192,196.33,116.877,196.425,118.563,196.519z"/>
<path fill="#F1EDEB" d="M96.046,164.329c-1.381-2.137-0.948-4.962,0.994-6.483c1.927-1.511,4.959-1.257,6.557,0.554
	c0.11,0.125,0.169,0.297,0.252,0.447c-1.757,0.824-3.474,1.705-5.034,2.885c-0.715,0.54-1.129,1.319-1.78,1.89
	C96.729,163.888,96.536,164.318,96.046,164.329z"/>
<path fill="#F1EDEB" d="M110.789,170.379c-1.725,2.71-3.086,5.741-6.295,7.142c-0.498-0.437-0.996-0.874-1.495-1.312
	c0.504-1.215,1.417-2.18,2.052-3.32c0.597-1.073,1.173-2.123,1.332-3.364c0.053-0.418,0.28-0.779,0.609-1.061
	C108.55,168.523,109.824,169.144,110.789,170.379z"/>
<path fill="#F1EDEB" d="M111.292,157.561c1.774-1.366,4.896-0.677,6.216,1.329c1.172,1.78,1.156,3.568,0.182,5.405
	c-0.91,0.665-1.82,1.332-2.73,1.997c-0.639,0.066-1.278,0.131-1.917,0.197c-0.696-0.236-1.484-0.222-2.072-0.756
	c0.297-0.519,0.84-0.494,1.327-0.63c1.692-0.469,3.331-1.023,4.128-2.826c0.28-0.634,0.251-1.203-0.109-1.782
	C115.155,158.635,113.397,157.803,111.292,157.561z"/>
<path fill="#716161" d="M118.563,196.519c-1.686-0.094-3.371-0.188-5.057-0.282c-0.036-1.443,0.038-2.87,0.633-4.217
	c1.819,0.144,3.638,0.289,5.457,0.433C119.251,193.809,118.907,195.164,118.563,196.519z"/>
<path fill="#F1EDEB" d="M124.622,171.007c1.009,1.718,0.835,3.419-0.23,5.004c-1.127,1.678-2.771,2.336-4.78,2.046
	c0.005-1.068,0.856-1.701,1.339-2.511c0.916-1.543,1.948-3.017,3.246-4.277C124.313,171.155,124.479,171.093,124.622,171.007z"/>
<path fill="#716161" d="M110.971,165.733c0.588,0.534,1.376,0.519,2.072,0.756c0.247,0.332,0.494,0.665,0.741,0.997
	c-0.887,1.08-1.964,1.963-2.996,2.894c-0.964-1.236-2.239-1.856-3.797-1.916C107.967,167.041,109.202,165.999,110.971,165.733z"/>
<path fill="#716161" d="M102.999,176.21c0.498,0.437,0.996,0.875,1.495,1.312c-1.016,0.787-1.877,1.736-2.884,2.964
	C101.495,178.645,102.194,177.41,102.999,176.21z"/>
<path fill="#B3A583" d="M113.784,167.485c-0.247-0.332-0.494-0.665-0.741-0.997c0.639-0.066,1.278-0.131,1.917-0.197
	C114.963,167.079,114.335,167.245,113.784,167.485z"/>
<path fill="#B3A583" d="M69.521,187.874c-0.18-0.234-0.189-0.463,0.013-0.69C69.53,187.415,69.525,187.645,69.521,187.874z"/>
<path fill="#716161" d="M66.842,141.345c0.015,1.163-0.707,1.928-1.835,1.945c-1.1,0.017-1.935-0.771-1.957-1.842
	c-0.02-1.008,0.926-2.045,1.912-2.094C65.861,139.308,66.829,140.334,66.842,141.345z"/>
<path fill="#716161" d="M216.328,143.292c-0.969-0.043-1.791-0.959-1.743-1.943c0.055-1.133,0.98-1.926,2.171-1.863
	c1.038,0.056,1.658,0.822,1.62,2.004C218.336,142.71,217.61,143.35,216.328,143.292z"/>
<path fill="#F1EDEB" d="M178.226,165.577c-1.658-1.619-2.398-3.473-1.454-5.749c0.967-2.327,3.45-3.513,5.818-2.784
	c2.448,0.754,3.855,3.233,3.267,5.761c-0.041,0.643-0.575,1.092-0.675,1.712c-2.013-0.552-3.907-0.053-5.78,0.649
	C179.013,165.313,178.617,165.442,178.226,165.577z"/>
<path fill="#F1EDEB" d="M152.361,166.112c-2.104-0.619-3.125-2.904-3.085-4.524c0.056-2.243,1.673-4.187,3.752-4.613
	c2.135-0.438,3.897,0.229,5.102,2.031c1.211,1.812,1.032,3.696-0.055,5.529c-0.826-0.245-1.643-0.53-2.48-0.728
	C153.758,163.374,152.586,164.227,152.361,166.112z"/>
<path fill="#F1EDEB" d="M198.572,169.558c1.525-1.321,3.272-1.362,5.01-0.658c1.822,0.739,2.739,2.278,2.799,4.201
	c0.06,1.906-0.724,3.449-2.475,4.389c-0.215,0.116-0.436,0.219-0.655,0.327c-0.977-2.77-2.469-5.249-4.262-7.557
	C198.819,170.042,198.595,169.861,198.572,169.558z"/>
<path fill="#B3A583" d="M159.903,196.629c0.032,2.929,0.69,5.806,0.76,8.763c-1.441-1.566-2.559-3.291-3.551-5.116
	c-0.65-1.194-0.613-2.384-0.309-3.628C157.836,196.641,158.87,196.635,159.903,196.629z"/>
<path fill="#F1EDEB" d="M162.9,161.121c0.18-2.246,2.009-4.052,4.428-4.271c1.634-0.149,4.194,0.82,4.927,3.426
	c-1.649-0.222-3.236-0.75-4.919-0.839C165.571,159.344,164.156,159.972,162.9,161.121z"/>
<path fill="#716161" d="M159.903,196.629c-1.033,0.006-2.067,0.012-3.1,0.019c-0.151-1.308-0.243-2.62-0.195-3.938
	c0.753-0.042,1.506-0.084,2.258-0.127C159.422,193.878,159.995,195.168,159.903,196.629z"/>
<path fill="#F1EDEB" d="M163.308,169.117c1.912,0.965,2.715,2.608,2.442,5C164.936,172.45,164.123,170.783,163.308,169.117z"/>
<path fill="#F1EDEB" d="M162.92,168.893c0.133,0.081,0.267,0.161,0.4,0.242C163.157,169.105,162.994,169.073,162.92,168.893z"/>
<path fill="#F1EDEB" d="M106.392,96.438c0.041,0.008,0.082,0.008,0.123,0.002c5.118,0.004,10.236,0.009,15.355,0.014
	c-0.008,0.507,0.307,0.621,0.736,0.622c2.742,0.007,5.482,0.019,8.224,0.03c0.468,0.002,0.771-0.261,1.007-0.631
	c5.722-0.012,11.445-0.025,17.167-0.037c0.482,0.518,1.057,0.705,1.779,0.692c2.272-0.041,4.546-0.036,6.82-0.005
	c0.643,0.009,1.165-0.124,1.557-0.647c4.85,0.019,9.701-0.107,14.55,0.057c0.869,0.03,1.742-0.06,2.613-0.095
	c0.102,0.629,0.577,0.666,1.068,0.669c0.508,0.004,1.015-0.004,1.523-0.008c1.567,0.003,3.133,0.006,4.699,0.009
	c0.151,0.005,0.302,0.01,0.453,0.014c0.051,0.077,0.102,0.155,0.154,0.232c0.045-0.082,0.089-0.164,0.134-0.246
	c0.825,0.15,1.513-0.092,2.067-0.721c1.46,0.038,2.92,0.075,4.379,0.113c3.722-0.014,7.446-0.029,11.169-0.044
	c0.064,0.053,0.128,0.105,0.193,0.158c-0.005,3.295-0.011,6.59-0.017,9.885c-2.412-0.011-4.824-0.025-7.236-0.034
	c-1.858-0.007-2.496-0.521-2.866-2.321c-0.285-1.386-0.965-2.039-2.234-2.042c-5.941-0.013-11.883-0.008-17.825-0.005
	c-0.172,0-0.343,0.052-0.516,0.079c-0.312-0.028-0.624-0.08-0.936-0.08c-6.827-0.003-13.654,0.021-20.482-0.023
	c-0.902-0.006-1.018,0.314-1.013,1.078c0.018,2.516-0.786,3.278-3.342,3.278c-3.431,0.001-6.863,0.007-10.293-0.004
	c-2.735-0.009-3.487-0.742-3.537-3.481c-0.01-0.596-0.113-0.869-0.804-0.866c-7.072,0.025-14.145,0.015-21.216,0.018
	c-0.173,0-0.347,0.039-0.521,0.06c-3.57-0.024-7.14-0.053-10.71-0.069c-2.204-0.011-4.408,0.01-6.612-0.005
	c-2.076-0.015-2.56,0.347-3.018,2.341c-0.318,1.385-1.158,2.023-2.749,2.039c-2.38,0.025-4.761,0.028-7.142,0.041
	c-0.006-3.357-0.011-6.715-0.017-10.073c5.154,0.01,10.309,0.021,15.463,0.031c0.406,0.492,0.913,0.677,1.562,0.659
	c1.741-0.047,3.483-0.04,5.225-0.055c0.384,0.015,0.769,0.03,1.153,0.045c0.79,0.116,1.529,0.005,2.178-0.497
	C105.237,96.556,105.814,96.497,106.392,96.438z"/>
<path fill="#F1EDEB" d="M139.597,118.672c0-2.17-0.001-3.952,0.001-5.735c0-0.532-0.032-1.179,0.695-1.175
	c0.758,0.003,0.655,0.694,0.657,1.196c0.011,3.39-0.118,6.786,0.053,10.167c0.095,1.883,0.503,3.752,0.412,5.663
	c-0.037,0.774-0.184,1.246-1.111,1.257c-0.936,0.011-1.359-0.298-1.321-1.267c0.046-1.184-0.34-2.525,0.093-3.525
	C140.081,122.932,139.24,120.583,139.597,118.672z"/>
<path fill="#F1EDEB" d="M137.394,112.548c-0.356,3.614-0.706,7.229-1.074,10.842c-0.043,0.423-0.142,0.802,0.272,1.129
	c0.274,0.217,0.173,0.581,0.14,0.892c-0.127,1.18-0.261,2.358-0.385,3.538c-0.107,1.014-0.835,0.843-1.496,0.785
	c-0.651-0.058-1.024-0.305-0.889-1.08c0.162-0.926,0.23-1.871,0.312-2.81c0.059-0.683-0.046-1.386,0.689-1.854
	c0.179-0.114,0.155-0.58,0.187-0.887c0.363-3.542,0.718-7.086,1.075-10.628c0.044-0.43,0.101-0.919,0.662-0.886
	C137.462,111.624,137.433,112.12,137.394,112.548z"/>
<path fill="#F1EDEB" d="M143.917,125.62c0.754-2.384,0.009-4.932-0.148-7.489c-0.109-1.773-0.367-3.538-0.571-5.304
	c-0.061-0.529-0.209-1.183,0.52-1.233c0.623-0.042,0.641,0.596,0.69,1.092c0.349,3.541,0.71,7.081,1.055,10.623
	c0.088,0.9,1.028,1.418,0.94,2.45c-0.081,0.957,0.116,1.945,0.242,2.912c0.108,0.826-0.344,1.009-1.025,1.085
	c-0.694,0.078-1.29,0.063-1.385-0.813C144.123,127.903,144.035,126.859,143.917,125.62z"/>
<path fill="#F1EDEB" d="M114.844,126.868c-1.31-0.023-1.773-0.835-1.146-1.941c0.568-1.003,1.045-2.07,1.713-3.001
	c0.566-0.789,1.429-1.317,1.907-2.243c1.538-2.975,3.166-5.905,4.757-8.851c0.082-0.152,0.135-0.329,0.242-0.46
	c0.255-0.311,0.607-0.39,0.938-0.18c0.35,0.222,0.203,0.554,0.051,0.839c-0.461,0.862-0.927,1.721-1.399,2.576
	c-1.382,2.507-2.769,5.012-4.15,7.52c-0.1,0.181-0.284,0.428-0.229,0.564c0.37,0.908-0.239,1.523-0.606,2.208
	c-0.428,0.799-0.883,1.583-1.302,2.386C115.44,126.628,115.185,126.816,114.844,126.868z"/>
<path fill="#F1EDEB" d="M167.721,120.676c-0.051-0.688-0.527-1.173-0.88-1.703c-1.914-2.875-3.849-5.736-5.778-8.6
	c-0.234-0.347-0.591-0.739-0.063-1.062c0.458-0.28,0.778,0.086,1.025,0.453c2.102,3.123,4.25,6.218,6.273,9.391
	c0.513,0.806,1.524,0.848,1.949,1.743c0.46,0.968,1.175,1.814,1.769,2.72c0.224,0.342,0.604,0.748,0.179,1.11
	c-0.432,0.368-0.952,0.748-1.6,0.518C169.989,125.029,167.693,121.377,167.721,120.676z"/>
<path fill="#F1EDEB" d="M154.178,110.547c0.461,0.123,0.676,0.477,0.842,0.874c1.408,3.343,2.858,6.669,4.188,10.043
	c0.288,0.731,1.049,0.867,1.32,1.515c0.512,1.223,1.033,2.443,1.567,3.657c0.25,0.57,0.005,0.863-0.513,1.022
	c-0.645,0.197-1.359,0.65-1.772-0.334c-0.515-1.222-1.264-2.413-1.46-3.687c-0.643-4.187-3.003-7.682-4.394-11.56
	c-0.106-0.295-0.253-0.584-0.301-0.888C153.599,110.826,153.808,110.601,154.178,110.547z"/>
<path fill="#F1EDEB" d="M150.676,111.221c0.454,0.044,0.572,0.351,0.682,0.708c0.756,2.43,1.521,4.857,2.295,7.282
	c0.402,1.258,0.522,2.769,1.314,3.701c1.188,1.398,1.181,3.122,1.911,4.609c0.227,0.463,0.341,0.997-0.366,1.158
	c-0.653,0.149-1.464,0.705-1.839-0.385c-0.43-1.252-1.073-2.513-1.135-3.795c-0.205-4.18-2.205-7.839-3.171-11.789
	c-0.067-0.271-0.183-0.53-0.24-0.802C150.033,111.454,150.308,111.28,150.676,111.221z"/>
<path fill="#F1EDEB" d="M123.557,128.11c0.477-1.589,0.544-3.196,1.356-4.201c1.388-1.717,1.609-3.755,2.288-5.665
	c0.7-1.967,1.281-3.976,1.913-5.967c0.053-0.166,0.088-0.34,0.151-0.503c0.159-0.411,0.445-0.646,0.893-0.484
	c0.457,0.165,0.349,0.505,0.23,0.869c-0.645,1.989-1.282,3.981-1.903,5.977c-0.507,1.631-1.375,3.271-1.375,4.908
	c0,1.717-0.578,3.167-1.017,4.706c-0.383,1.341-0.661,1.428-1.96,0.966C123.686,128.556,123.516,128.301,123.557,128.11z"/>
<path fill="#F1EDEB" d="M130.229,129.59c-1.32,0.016-1.643-0.384-1.348-1.644c0.223-0.95,0.539-1.897,0.613-2.86
	c0.077-0.996,1.017-1.435,1.179-2.435c0.548-3.368,1.311-6.701,1.993-10.047c0.028-0.137,0.07-0.271,0.104-0.406
	c0.102-0.413,0.312-0.759,0.787-0.637c0.442,0.113,0.397,0.534,0.332,0.876c-0.303,1.61-0.617,3.218-0.942,4.825
	c-0.393,1.949-1.061,3.886-1.126,5.845c-0.062,1.864-0.213,3.676-0.634,5.481C131.062,129.114,130.952,129.639,130.229,129.59z"/>
<path fill="#F1EDEB" d="M150.545,129.578c-0.667,0.056-0.965-0.187-1.069-0.731c-0.25-1.298-0.82-2.61-0.736-3.882
	c0.285-4.286-1.503-8.187-2.032-12.31c-0.054-0.426-0.26-0.976,0.397-1.107c0.589-0.117,0.671,0.427,0.754,0.81
	c0.593,2.726,1.162,5.456,1.73,8.187c0.185,0.887,0.341,1.78,0.515,2.669c0.033,0.171,0.037,0.396,0.145,0.496
	c1.461,1.338,1.06,3.266,1.527,4.91C152.074,129.671,150.927,129.322,150.545,129.578z"/>
<path fill="#F1EDEB" d="M118.595,126.463c0.926-1.099,0.684-3.13,2.349-4.268c0.542-0.37,0.686-1.34,0.986-2.046
	c1.257-2.954,2.506-5.912,3.75-8.871c0.19-0.453,0.426-0.892,0.984-0.628c0.53,0.251,0.266,0.687,0.097,1.084
	c-1.296,3.046-2.558,6.105-3.884,9.137c-0.365,0.835-0.437,1.682-0.598,2.546c-0.264,1.408-1,2.738-1.607,4.069
	c-0.363,0.795-1.005,0.34-1.553,0.201C118.64,127.565,118.391,127.292,118.595,126.463z"/>
<path fill="#F1EDEB" d="M157.752,110.103c0.439,0.047,0.636,0.361,0.825,0.713c1.729,3.22,3.504,6.414,5.171,9.665
	c0.406,0.793,1.359,0.877,1.689,1.764c0.384,1.03,1.063,1.947,1.605,2.919c0.247,0.442,0.509,0.971-0.12,1.251
	c-0.607,0.271-1.349,0.904-1.906-0.074c-0.69-1.211-1.708-2.401-1.891-3.698c-0.315-2.226-1.711-3.83-2.602-5.71
	c-0.908-1.916-2.026-3.734-3.056-5.592c-0.189-0.341-0.403-0.676-0.18-1.073C157.38,110.097,157.568,110.083,157.752,110.103z"/>
<path fill="#F1EDEB" d="M119.807,109.958c-0.491,0.754-1.049,1.63-1.626,2.494c-1.628,2.433-3.491,4.743-4.815,7.329
	c-0.857,1.674-1.686,3.343-2.755,4.89c-0.275,0.398-0.535,0.806-1.173,0.609c-1.311-0.405-1.446-0.73-0.68-1.883
	c0.675-1.017,1.153-2.297,2.073-2.993c2.265-1.714,3.277-4.299,4.919-6.433c1.038-1.349,1.914-2.822,2.858-4.243
	c0.231-0.347,0.51-0.585,0.954-0.453C119.815,109.35,119.809,109.579,119.807,109.958z"/>
<path fill="#706060" d="M79.077,96.432c0.005,3.357,0.011,6.715,0.017,10.073c-0.507-0.308-1.023-0.007-1.533-0.021
	c-2.863-0.08-5.729,0.164-8.59-0.15c-1.336-0.146-2.107-0.866-2.124-2.205c-0.029-2.273,0.016-4.547-0.021-6.82
	c-0.011-0.713,0.258-0.877,0.92-0.874C71.523,96.455,75.3,96.437,79.077,96.432z"/>
<path fill="#716161" d="M59.281,97.074c-1.018-0.008-1.914-0.945-1.872-1.959c0.042-1.009,0.989-1.876,2.022-1.852
	c1.087,0.025,1.975,0.961,1.937,2.039C61.334,96.272,60.379,97.082,59.281,97.074z"/>
<path fill="#716161" d="M202.144,106.5c0.005-3.295,0.011-6.59,0.017-9.885c0.032-0.055,0.052-0.116,0.056-0.18
	c3.6,0.003,7.199,0.025,10.799-0.006c0.842-0.008,1.182,0.222,1.159,1.121c-0.055,2.201-0.012,4.403-0.024,6.604
	c-0.005,1.089-0.779,1.953-1.856,2.172c-1.49,0.302-2.994,0.125-4.491,0.153C205.918,106.513,204.031,106.495,202.144,106.5z"/>
<path fill="#716161" d="M221.654,97.072c-0.981-0.015-1.958-0.9-1.983-1.796c-0.028-0.98,1.024-2.028,2.018-2.011
	c1.043,0.018,1.912,0.898,1.928,1.954C223.633,96.244,222.738,97.089,221.654,97.072z"/>
<path fill="#EEB990" d="M202.216,96.435c-0.005,0.065-0.024,0.124-0.056,0.18c-0.064-0.053-0.129-0.106-0.193-0.158
	C202.051,96.449,202.134,96.442,202.216,96.435z"/>
<path fill="#F1EDEB" d="M128.848,39.245c-0.045-0.002-0.088-0.004-0.133-0.006c0.01-0.039,0.021-0.077,0.031-0.116
	c0.029,0.047,0.058,0.095,0.087,0.142C128.833,39.266,128.848,39.245,128.848,39.245z"/>
<path fill="#F1EDEB" d="M145.847,64.088c0.031,2.186-0.88,3.271-2.372,3.131c-0.66-0.062-1.011-0.314-0.975-1.049
	c0.046-0.975,0.039-1.954,0.002-2.929c-0.029-0.753,0.023-1.395,0.939-1.577c0.835-0.166,1.729,0.257,2.042,1.071
	C145.679,63.249,145.772,63.803,145.847,64.088z"/>
<path fill="#F1EDEB" d="M136.964,65.587c0.018,1.067-0.533,1.695-1.469,1.68c-0.651-0.01-1.169-0.215-1.194-1.003
	c-0.027-0.84,0.603-1.28,1.862-1.36C136.735,64.869,137.046,65.012,136.964,65.587z"/>
<path fill="#F1EDEB" d="M156.349,64.084c-0.25-0.08-0.766,0.261-0.779-0.409c-0.017-0.898,1.023-2.052,1.87-2.058
	c0.649-0.004,1.053,0.297,1.092,0.989C158.58,63.47,157.749,64.049,156.349,64.084z"/>
<path fill="#F1EDEB" d="M139.705,44.259c-0.821,0.138-0.91-0.213-0.649-0.881c0.326-0.832,0.619-1.646,1.75-1.619
	c0.468,0.011,0.822,0.133,0.998,0.581c0.167,0.426,0.086,0.808-0.228,1.155C141.069,44.057,140.387,44.164,139.705,44.259z"/>
<path fill="#B3A583" d="M184.352,97.107c-0.045,0.082-0.089,0.164-0.134,0.246c-0.052-0.077-0.102-0.155-0.154-0.232
	C184.161,97.117,184.257,97.112,184.352,97.107z"/>
<path fill="#F1EDEB" d="M79.866,154.907c-2.659,0.002-4.847-2.141-4.861-4.763c-0.015-2.679,2.143-4.869,4.823-4.896
	c2.687-0.027,4.866,2.161,4.84,4.863C84.643,152.788,82.524,154.904,79.866,154.907z"/>
<path fill="#F1EDEB" d="M165.826,150.038c0.004,2.728-2.1,4.861-4.803,4.87c-2.683,0.01-4.866-2.165-4.861-4.842
	c0.005-2.668,2.214-4.853,4.868-4.816C163.708,145.289,165.822,147.4,165.826,150.038z"/>
<path fill="#F1EDEB" d="M102.106,150.1c0.004-2.767,2.106-4.875,4.834-4.849c2.647,0.025,4.777,2.151,4.814,4.807
	c0.038,2.643-2.19,4.856-4.877,4.847C104.212,154.897,102.102,152.772,102.106,150.1z"/>
<path fill="#F1EDEB" d="M145.445,161.723c0.003,2.649-2.118,4.727-4.829,4.73c-2.725,0.003-4.816-2.036-4.838-4.719
	c-0.022-2.672,2.198-4.932,4.833-4.921C143.25,156.823,145.442,159.049,145.445,161.723z"/>
<path fill="#F1EDEB" d="M120.388,154.904c-2.59,0.017-4.813-2.212-4.801-4.813c0.012-2.662,2.11-4.785,4.781-4.837
	c2.654-0.053,4.873,2.089,4.877,4.706C125.248,152.765,123.165,154.886,120.388,154.904z"/>
<path fill="#F1EDEB" d="M147.464,154.904c-2.763-0.018-4.778-2.093-4.76-4.896c0.018-2.69,2.146-4.796,4.801-4.751
	c2.658,0.045,4.904,2.309,4.86,4.902C152.322,152.728,150.056,154.922,147.464,154.904z"/>
<path fill="#F1EDEB" d="M93.406,154.911c-2.619,0.022-4.85-2.148-4.884-4.749c-0.034-2.635,2.212-4.919,4.833-4.914
	c2.685,0.005,4.804,2.091,4.83,4.755C98.212,152.73,96.11,154.888,93.406,154.911z"/>
<path fill="#F1EDEB" d="M201.596,154.91c-2.633,0.018-4.813-2.123-4.849-4.76c-0.036-2.706,2.111-4.891,4.815-4.902
	c2.665-0.011,4.827,2.115,4.841,4.761C206.42,152.718,204.288,154.892,201.596,154.91z"/>
<path fill="#F1EDEB" d="M187.962,154.912c-2.687-0.054-4.797-2.271-4.741-4.982c0.054-2.606,2.33-4.768,4.929-4.683
	c2.671,0.088,4.776,2.257,4.729,4.874C192.833,152.828,190.638,154.966,187.962,154.912z"/>
<path fill="#F1EDEB" d="M147.487,168.499c2.719,0.012,4.93,2.206,4.874,4.835c-0.055,2.54-2.374,4.837-4.871,4.826
	c-2.689-0.012-4.796-2.182-4.785-4.926C142.717,170.496,144.747,168.486,147.487,168.499z"/>
<path fill="#F1EDEB" d="M138.776,150.086c-0.006,2.65-2.159,4.822-4.782,4.823c-2.689,0.001-4.891-2.183-4.877-4.836
	c0.014-2.636,2.193-4.825,4.796-4.819C136.638,145.259,138.782,147.389,138.776,150.086z"/>
<path fill="#F1EDEB" d="M190.641,158.977c0.906-1.042,1.937-1.854,3.37-2.073c2.735-0.418,5.172,1.476,5.487,4.313
	c0.299,2.694-1.659,5.031-4.363,5.225c-1.265,0.091-2.408-0.243-3.466-0.917c-0.876-0.877-1.549-1.867-1.726-3.13
	c0.021-0.729,0.042-1.458,0.063-2.187C190.123,159.856,190.359,159.351,190.641,158.977z"/>
<path fill="#F1EDEB" d="M138.778,173.25c0.02,2.645-2.228,4.926-4.839,4.91c-2.574-0.016-4.786-2.242-4.812-4.841
	c-0.026-2.689,2.042-4.79,4.744-4.82C136.659,168.47,138.757,170.499,138.778,173.25z"/>
<path fill="#F1EDEB" d="M203.426,161.633c0.008-2.607,2.224-4.834,4.799-4.821c2.652,0.012,4.862,2.242,4.86,4.901
	c-0.002,2.636-2.143,4.731-4.838,4.737C205.473,166.457,203.417,164.403,203.426,161.633z"/>
<path fill="#F1EDEB" d="M77.804,161.597c0.032,2.764-2.011,4.836-4.794,4.862c-2.701,0.025-4.821-2.025-4.864-4.703
	c-0.042-2.637,2.176-4.918,4.81-4.947C75.53,156.781,77.773,158.996,77.804,161.597z"/>
<path fill="#F1EDEB" d="M174.504,154.905c-2.595-0.01-4.856-2.234-4.867-4.785c-0.012-2.595,2.266-4.859,4.902-4.873
	c2.706-0.014,4.782,2.126,4.754,4.902C179.266,152.882,177.218,154.916,174.504,154.905z"/>
</svg>
